<mxfile host="app.diagrams.net" modified="2023-09-17T19:51:22.753Z" agent="Mozilla/5.0 (Windows NT 10.0; Win64; x64) AppleWebKit/537.36 (KHTML, like Gecko) Chrome/117.0.0.0 Safari/537.36" etag="4xp6r6FUjRhAMZwYExpR" version="21.7.5" type="github">
  <diagram name="Page-1" id="pDb4KdGSy0NqhrSkEqrz">
    <mxGraphModel dx="2097" dy="1761" grid="1" gridSize="10" guides="1" tooltips="1" connect="1" arrows="1" fold="1" page="1" pageScale="1" pageWidth="850" pageHeight="1100" math="0" shadow="0">
      <root>
        <mxCell id="0" />
        <mxCell id="1" parent="0" />
        <mxCell id="DwLo5q6sceBoBFdq7gC3-1" value="" style="shape=image;verticalLabelPosition=bottom;labelBackgroundColor=default;verticalAlign=top;aspect=fixed;imageAspect=0;image=data:image/png,iVBORw0KGgoAAAANSUhEUgAABV0AAAERCAYAAABoywciAAAAAXNSR0IArs4c6QAAAARnQU1BAACxjwv8YQUAAAAJcEhZcwAADsMAAA7DAcdvqGQAAP+lSURBVHhe7P0LbBRXnu+Bf/fP3vSIvTjKCEdcxWw2DnBjTP5pnNxpk+y/MSjmMZhHYsYZnAEBIcIZuJiEwSEMxEzMOMHECc41EyN8AeGluVj0TgDv8vAETCtgW4sfuvihEGyF2FEiGwVhFOTeC6r/qUd3V1VX16nqbmMDv49kQT361Dm/9zldVf13AgMEQRAEQRAEQRAEQRAEQRBEXPj/KP8SBEEQBEEQBEEQBEEQBEEQcYAWXQmCIAiCIAiCIAiCIAiCIOIILboSBEEQBEEQBEEQBEEQBEHEEVp0JQiCIAiCIAiCIAiCIAiCiCO06EoQBEEQBEEQBEEQBEEQBBFHaNGVIAiCIAiCIAiCIAiCIAgijtCiK0EQBEEQBEEQBEEQBEEQRByhRVeCIAiCIAiCIAiCIAiCIIg4QouuBEEQTSVInlSCZmUzfrSieNJkFDcpmwRB3Bf0nNyOxa7JQxQXiJHLdVSvmoyV3uvKtpZ+bx6SV3nRr2wPOUORm+724vh7ZajzK9sRuYXTJVtx+ntlMybM5UoQBDGy0ccwqu8Jwoz+hj1Y6Z7KapjJcM7JR1WnqugYonn3QOsebPJ0K1smdO7H+spOcMugOMJZdJUDjCis8L/4COqeF7BxoLmEjb+kVdl6AOlvRJWnFQPK5kOBhTE/8Hp/mLh7HfUeD5pvKNsPMvfpWIfa3/xXalB1svueJtwRz4+N2L0mC04px0+Fa8l2VHfeUg5a4EcvVk7KQ/WPyvb9yjUP3s5vQOqHZ9DamI80Zff9A00G1Qyfr49EPVzH8TXZ+OKFbGQ45D3+a52o8+5Hoej7mpg7BrNfd+LI71m9f1vZZYg8Ts0cwZWFt0p86LmrnPLQ85D7pIU6ZChz/rDMNeMxl7ov52P2bX3Ezq+ilj/lYC66enGk1uQjcZ3qnvhLrLGH6ffdZV4krPWgsbERJz7OROpopegYIvytZVi86SZyFiXLO9gYQnMaF2at2Y/mwIBScrHspy14y9ur7Bh6rN3purSCTTwadX/340SEsMJAaw2KS7yov7+yfEw8jGN+qPm5BcdKdqL6ko0FpfuEsGT8AI/VOuEFcI+vAoVl59GjbD/0/FiDlXPycG7SVpyQcnwt9i32o3LhEpS2jpwy+F4Um/0tPjRPycXSmUlIeGxoi0Ri6CFfDzFwsgTvOrZiV3aStC1OKFNyNuLIZQccf98dPsF6IhubF7fi9RIfdzI8bas3OEdoPJyHx8/mYVZxI32xRTyUdYj9eUV4nfJAzk3uoy9naW5479Dn6RG7EP+QEKvt9zfUom7KcqzNSUHiY2MwfkoW0p5UDg4FdztRuenfsPDjAqSNZtv+VpQuVc1pfAew9O5nWLzKo9iYA2lr8zG+qABVFm6MjQfWFl0dCWziMUb3RxORB5WEzCJ0thZhdoKy4yHgYRzzQ01CJj5qbcFHmWOUHQ8wD9NYbTBhVQ26T63ABGX7Yaf/Qg3qkjfio3wXxks5fixSs4vw0arvsfug7z670yZGxLvzfunAo/IWcZ9Dvq7AJiVVJbXIyclEoNRJzCpDd2MNPt+WizlPKDt1TMjJQ46nAtXXlB0RcIxODM4REpOzsCE/C/6q82hXjhMPMQ9hHRKPeQXNTYYXkv+9g/L0yCJm27/HdfTAyQqUJizHginytp/VNbv9efjTWmVOMy4FSws2IrXVh/rAFz6j3Vi6wY/iQ/fmy+G4vNO1/8IevDXHpTxSlItCr+728NvdqGYFncsp3967eJsXVzWPKvlxtSbw/jQXZm306I6HMLrNO+zbkGs1KFziRorUnyy8tbsR/epHnK75UJwnH09xa/srt78fxytXSLcjR3w04G4/mivz5DE53Vhc4tNcgyeTHnG8qvdc7G4wec/VQKdKflPhytuD+oj3uRs80qD7VlGS14e1of6LOlH3P+w9G0w/XpV+1sjyCcrc6FtLfRt3b6HZU6BqI/IYhkXHnDGLNmv58Ww21nbxs4p+U9x5pvrl6oNhak+K/CtrPFifI5/jzNkuvYdNei+h1A/xUeES1KmFercXdSUqGw7zy8iY9UeWrwf1QZ9m134nsk9LWNGXyn4Wb6tFD+v/6YBfGPig9lFpfdyJ4dEf03b5DLSG9KQfqwQvXka6vmQHk7G4kv2/MpcdC/ikwVhV8g73H+X82lZUBs/JRbEv2hhlpT37/sbNOwqS/UzKhSSWJexcJbZo44zSx2q1HTKfavPD37Y/eB3nnAJUXVFdxW5cE/uq+wu+H0zTlvJov/paip9XXWCxL2g/0fcnjFHsr7sbvTpbTsv3oXWbW1qk0cpMxuhuhIEOb7CPYizSjGOA2UHAfo3iTqS4FNG+Gbx8oMPMB8XxuN7zAb6tcLHjRu+gtCSHoahDbI4TP4V8TryGxufM8tSNGrw1aRZ2d8qbEn4fCsV9bcq2Sf/DEO2yMh+zDG074Hu1wbEZ5Uy1zoxqJvHdYQE/1X8+TF8xxnANVuqzH9j1VHElrB6wI0sz/xmoxSbnVGyqjXA34RUfqr9fgjnpqpsmHBZuoHC4MCO3FdU+e7eDOP7BZLb2INSNDFu1vEi0Ptm2B9MnFeC0+tuvbg/mT8rH8UCutOmT1utUaz5qnpOVNoJ1iP2cbybr8Dxk9A7hAXnMqmtq/J6Tm/xXWF4L2o8F+9DZs9THD72aunWlYoPS5w3qlPC5idhNkxrSSp2gxyweWmlPqVmlz0tyaYn4Ja0kA/dW1MGHTW72f7XOOPPqiPbNZJSi9gOG/8J2to9dRxfXr1ZlI/md2lD/WMxcr85rDM05BvK3xX3p7wzxdSC7VTnbqKZn8WDTQtZewFZ5c0rxUe9gf9n1fb2a/gZjuFmtp8PMJ3ljjhTTQ+8hlcd9rjeiVJU2zOa7+rjH0OW+QFxQy26l+K7R252heMTy1XqPTr9M3vW7VZ/R5zMzfSh9qKzZj9fFfutqeAmN7SvjsDQvlGNvWB2tG3cYTF9Rz19wC/VnazFtsRvjlT0OVz5ajy1Hqji3CcDqHbEq+YVq34SXsjGhqhb1kdUcPwRT+oUjb6QIT+1oUbbDGfyqSHjmudXCwcv9wuDgoNB3+ZCw4jmn8P5Xg/IJd3qEI6udQuamo0LbDwPCzR86hINs+5nVJ4Q+drjv6GrhqYlOIXtXg/DdT+z4t2eE9zNShOxDPfLndUjnv3FU+myAph2qPg42CO+z66842CH0Se2dF96frWrvpzNC/nPzhPe/7BFuise/PiG8O9sp5P/7gHQ40J+s4qPCxa8ahG9+knZrkK43cZ7w7lH5Gn2X9wkr2GcCY+bJRH1c7MN3XxYJmROXCAe/lQ7r6BEO/iZFyPzgvPDdzUFh8Oce4dwH84SnfnNI+E45Q0uL8OeJKcKfLymbIj8cZf1bLRz5Qd6U+/8rIe+Qtv/vnpFlIFzawY7vEJrkLWHwPOsvG29AZvJ4VDLXtS+ha6OtYh7T+SHZBn7qF5oqlgjPzK4Q2u4oJ6gYFh1zxvzdV7uEbPWYTfju0BLhqdlFwrlvByT9m+uXrw+uj0nyTwnJV/Gxp9g5WXq/23RGuCl9aEA49TbzS9GuRBn91CUc28R09HbgeGR4/QnJV2lb8enMvV3S8TAs6iug74D9PfPcqyoflPsQtGG1jfzM/KZPGf8HDYLcS52f6PQfEW67erTXGWzZxWxB70usvaOK7XLipZXra3xFQjfWH07I19T5Tyb7jFo2T/1qnRKj+oW2fUwHz20RThkaBy9G8duz629cnwhDJwOGNs4ofVT89uZPyhhYm8/9dpdwUb1v9j7hG+kz9uKaMCieE/r75pAoAxY3e6WDQtMuse3A9ZmMDq6WxigfZwT8fMGOYB9PFWZG3x89PzMZMDt4ZsFGYe+XXUKfgSi5sTnQR73MnisSLkrtqWxFlEPAvoP2y49LYfbNywc6uD7IMBqnGq4chiJH2RpnwJ63CEc0PhfQAy9PDQrnClMEd0WHdK6I6KNPZTBbEjc4/dejvlbItgN9Cfe9i7uY3apzZkeFkKn4u6SzSxUsPswTypXuDbL4nfncEuHjr5T4IY1lnvBxizxYjb64MVSue1cc7Ze29Gh1bzH2qfUgjl09Np4sNbmJ4z8sf5zbu084F4gZOr47stzUrsNzRwjps4E8FIY8To3MfmqQ4knmrkBe0cn1Aagb7dXysfpkl3DwlRSNj31z8FXhqUBsjMEnw6+lh++j/JwstxGshWLI+UayDrddrb0F9Beaa8r6D/k9x7d6mb0y+eprzhV/1bZvNq+Q+mgw5lAM18pIQtcGN39ZqBM08OIhtz0xV7D5Rpht6MahxsD3A7KJNK82te87HUI5m2PknQjZetMO1qfC84puVbBc4p7I+qockPIa62so18l2E2xLI399bjDQV5D72d9ZPbqDxd6w2neX0CT1XRkbq+n3ftkgXGzpYZ/g1G532HiYf6nnqUfY8adUdqCP4Wb5SILjk7wxG/ps1yEhm+0L5Im+y0eZXFk/IuTNUBvKuMPmuwY2orP/sLgg9ZP54K/Ca5q9X2s/ox27OpZw9KHy6yNs7Be/NrAbje2HdC7H4IA9R5oXhuszzO9jyPdh3GH1hl7OBnxzkNnEuhPB+YSE9FknqxeV7SHE2qKrKGjdX3Bg4kSSFZshdEGJJYhnJm4Rzv0sb0qwSX/+K0XCKaYJSSmvHNIkA8mYVJMsNWFKZGgcs+8EU+qrQcMUufk1MyixEGD/b6tgyUIXiNXFpFF/9EjX07QhjzkYtDky6fureA2WsIKGxCbgzOjbflB/JsQgc5hBtdHpDFWLRQfX9F90TuZ8rDiW0LQvH3MHZjcKGpkbJFBNGzdZcmA6OaheczMx8mHRsWbM/cKx1Zwxm/Ez07/a3o10ooKrD56PSfJfHlqcEZHGo90nFRfPsaQpbugKDwmWwHKZHo+pBW8Ez74N5CvpJMKEzZK+lh7VfMkgyUyzT14kCMrszqCUqNR+o7UrnU5MfUoFt1096usY+9Lgl1uYXti1xTY58dLK9cPtVDtWSd76pPP1PiEr6MPy+e+fV2lE8uHISck8RvHai8LfeD4Rhk7fDEN7qJc2ZJSiRLOPFWSinCQfsRnXNEjFIptQBGQitZUplF+WN2WYTW9iNq2Js7rrSX4ch/4EuNMvXNy7Ucj+FZM9+9yvVu8QjnWEijEjW9foySgW3WGyZcWgPBloET5m/3/3y5DuBntbhIv1XbI9WohLYXbByQdaLPggw9ynLchhKHKUrXEa+JykG2ZjgaFz8pS0yBFYZGVXuPgBm1goxsXrv56mXWwCvEl1/mCP0CROciSlG/iesgAiX0/WWeDaAS4WB+K9HD+y9mmPN1W8KmTvkwer0Rc3hprHEr3urcQ+7djk9gP1IleWuvZM/YeDaUxlmB3X1A9hyOPUzxN+xSZQ3wS7alS33N91o71aPnaflBYRgnMj2UcC7dn1SXt1qpEdq32Uwc3J6vbt53yerMM/q72+pD9dHSna2zMTNyqLBua+FRbDGH0nNgpZhWci2ofWd5U+FjcoWzKSToOfM9CBpg0L+YtXJ+jhxUNee5Jf6WsXM1tiGPi+JBuN/dqLk9LxYIxn1xfrK6Mv4aVjAZ+T5w3vl1cIWQEdDJ4X3lf3TSN/M5vWIx+7L/3dIFaKcit/ZYmwV9Kzwdh4tZs0t1knHBMXNgPo7EAfw83igQjPJ3ljNvJZqU3d/EjfLzVGbUi6CerBQM66cYfHBdnOtPvkRfjAgrJRLJH6EqjZePow8ms9Gts30LlmHhdOmNz0fq9uP9b5i75tA+Qv59k5YV9Ka2U7lET9Q1obnMoxxyPo85WFHimZ5MYmn3KM0d/VCX+6E0+LL7UNMC4Lu/51C2YnKttG73wYGIh8m7wZiZlYuwYozRJvTd6OSm8j+hJdmDZlLBy4jq6WXsCTJ98arfxN39II3FFdzco7KEYnsPa09NxU2uDIJHFWHtbc/QyzXszCW9v2o/pCPx5PdyF1nPFjXo47HajaFHh8jf0tOaAciQFN/8cgcRzgNxR4F9rOAlOTk5TtKOjuwGl0onBOSObJKStQyTTsN3s0MhJDruNeacwZzyq/fmcXhx/t4i3yyiMNgUeGTDHTB8eeZNin1bfQS2j3Of7hEeC23Gj/1y3ogQcrnw3JKHnGVtSzY4M8nVjpj06+j49lslTLP4hFfbGu/0L5bxDNPgcSWIwJymyUA47+8yhdF3hkSnnUIVZiarcLTTXA7OdTlG0Zx2QnMm5342q/hXgZ87iuo/0/ejHtJWfwnX4Sk6ZiGny4+r2yzXD8gyoeJSTicRN/tRKjIrcXhb9Z8oko+C/Kv2rU+0Y7IKpB8pFo49rdTux+Yyt6c/djs1uRyTctOI6XkaYxDQdSX3DDf6VL9chsIhxq23hsLJ5m/8TUHzWjxmLaqhIcbexAZ+1+rB3biHcXLkFxk5HvRkIXi0YlYcILLKVLsceJnG2ZOJWXDteSAhR7anAVKZiWniy/viCauGSaD/TwfTAuDEWOsjVOGY3PSfTiZuDxMk6ecryQiZwbXtSJrxjwt+KUNwU5btFHLfZfRdriIsw+mwenOxfrP/Tg+DdAKqt5JqiDkMb3kpjtA+0/iM9WyjVIe1FW8Fri3+v7A/Fejh/TUrTxI221F0dXaPUsEefcYKk+04xtLCZMCtSLdmVp7j9Dibp+iIT6h7RafTX44xMezH/Tg6tW44+a+6ButFvLi8Tik+NfykJaTa38wybXfDh2JRdzXGJ79n0yqjo1oo8ybOVk+zk/GlmHoa8jn3ia1T0DivzNfOs6rl72Y9rUZE2sTcwqwQn2mcBU1tLckcUfNeP/O5tMt/VGfBxfi9X8ZVIn6LEUD03a+64DdXAjdaJ0JDYizqv59p2auRypvlqcEx9d7mxksSMbc14wsI1RKXhxUS9OXeqW8tq5L7Lw4lI35rBcVy++PaWtAdVT3Ehjc7B4cF/6u6RT5luikgOMcmLNv3qwSnlfpoh6bLzaTZrbTHFh8mPy+bFjwSetjFnjs3KbqS9MtpdPLc93TdDFBQnNPuYbv2T/qH1Y95nEf2LX/f4my5BWa2mdX1sg8jwuRuKd7/V878Vbb/iQ9uEW5IS9u95AtkNE1D+k5VAmVQMnt2J+6XXM+Phv6L7Swf58+MgtHxseHEjL96Kz1YtPs1Nws6EMi11Z2FQrv3di8A4wYYMnVBgG/j7JCiXOGOHKZLQTG461oLN6J157dgAXy5bAOW8rThu950KcoC9dgVOJ+dJEWGrv8HLl4L3jUbHgjpa7zGmQhV3ndDJnf8HFe1vcGx07HjEIghZor1yO18+MxYbDDYr+WaJSjkXDkPiYGFwmiTalk1HjTizkCCne/RkSn7xRi3dzPkPf9J3wdcp+0/hhHALTULVrleG+vhFxilF2/G1E5J2o4pofzaUbUZqwBX9hJ0UXYSIQY5z1D9zCgKpOdDzpxNLtHuxb+j0q99Zq3pUYDf67g9K/4xeVofVyLQ79wY3xV2qwcl46FovvrxIPRhWXzPPB8DAUOSq+4+TmKYcLC3P7Ue3rZBPR86ielIUM5Zdnbff/iSx8frEFvgMFmPlkN774/Xw4f7cf7RbnJX42SV3wyZnw662NooCIZwyNJfYxfxWxK0tT/xlK/h/7G20esdQ/pJUwLhkL3lyBaQ07ceyycoId7oe60U4tbwGuTz45CznuGpy8cAv9l3xoz85EmqISu/0fCXWqrRo7zrIOwTxHmWwPm28NJ3GJh4/A8ffKf4cIrn0nu5Hj9OHUhetov+BFX24WphmalwPTZuai/XwLesS8NjMT0xJSkPHbWzjW0IurHY14fPbUe/JjTvezv4dhpXb7rw4m/XtHtGNOcMSw3jECkBYpY5jjDwtxz/cqbrei+I3twNYKfDTX6AZCNjf5T/ZP2I1r8SfmH9K6erkG/rm5yJkS+EVKpfMKiU+nwNHQiS511hpoRVWZB83WvtoLh7UvT9/CGWAFVWmlD/2jk5A6Mxsbdnpw9D0Hqo+cZ5PGsZjwrANX/6MLftUCckKC+Be/UGAuk1tori5Dpe86m9SyQJ+dj12HD2PzaC+OsGQRRn8HmrpZMlnmwvhAF8Xil4eVcyzxNKbMBOou835AIVS4hPGPk5GBVrT9+EhI5orcA4v3YQyrjp/G81nA6Sb1r4hYRbyTsBsZr63EtCeU6ymTq2jh+Vg0SH55pQVX/SoZKXKKqBOF+PZniHyyuwXHb7+MZTkpSFDGMxijHiRiatfYrvwdragbnYwJLBFy42XM4xqL1P+RhPoLrdo7K5gt1MONCRF+vdqUaGNUEPv+NhQ+YZso4prftxOve5Lw0ae5mKA+Z+JULMDf0KwRgR/trNB2THo68qRfTTRxNsgt1G1zwVWmf5m+Q/72XP2tvUlslmHnqnOBv4uNg9n2mEeluzV2l9WgXfR7pvSl2yrgY5OE5pIT0i+cRxOXzPOBHr4PWuYe5yh74+RhLU+l/TqPCasBVV8eRuqiwA8U2O1/L+p2l+H4FabfZCcW5G7BvlNlWNi0E8dUP16ijRm9ks2k/jfxfpMkqQZp6WA1k/560l0a8vH6b7Q1Sk9tGUpre5UtFfHMDVZjn8HYxv9SHJtNWXL8h0fiP7lYrFffOW+dnu+Yz6Q/HfyRCkuwOGAuWV2sUDPi60abtTwXKz45FnMWZeJ44wmcOtmInJmBL+7s9j/KOjWij9rNyXZzvkVZ88agsw9/VyerexLxqNhlU9+S5Vvfof0hm4EmD0o9ulqKh66PPV+znDslyeKddXHMXwFijYeGtUu8sWLfSZjzmht1J0uw9/8Aa38deaXG4XRhga8VlScOI2NmuiT71Jey0X/Wg+rz3Zj9gsETEnFnBPu7FHsbcfWasi3Ri9NlZTit2ReCV7slTp6K8Q0+tHB+LM86PJ+MJsZFmB/FA1tzIosYxZInHpX8OJY5/rAQ0/yFkZiECbqnNSVut6J0yWrUz92Pz7MjPLF993tcbXAg9Z/GKjuGDmuLrv4BDNy4pfuTlZ2YxAKbpwJVbdfZvl7UlxWgsAHouq6Udc9m408zvSjeVoOr4ud+7ET1h1tQ3JmA8dayjAbZcfej8myv1I+eC2Uo9igHGQnjHGgv344/V3eiX7lefWM3S9RyUktbvAUZl7bjrbJG9EjjEH/dLRuL98Tv20xzmYzB+Ec6UVpYgmrp+C30dzbgYrcD48cFihUVjyVh/GgfKvf6pP72t3mxaZv4+Np19BtGBTkpVx3woP1HRd5l+1GnHLXPGGQsykVf2UYUKjLvb/OgXCVzjJuM559oROU+uY8D1xpR+vFh5SBDfKxr1SOo/OP20JhZG2/NKMBpg+p/+HUcPmZ9HzQLYRqYfp90oG5vBequKfLfUiQ90tDXF+EXhTlwfSwaJL9sROHbZagX+ymO8WwJ5i/ZI999ZPLFSLz7MyQ+OTYJaTiM8irZRkT9vV3cKHYSfcopkTEpLmJql9nVstVwaHzJi8KSGmRszUWamFh48dLC9R2PssRyqQXt7LjRYxmpC9ch4/xWrFfakPy18DP4V+VhYTSPVNmOUXos+JsO+zbowKNPAM3/txMD6ts5Y8FmXJMeb1nnwbSCAswZLfuc9Cf2J8GNZWseQekftstx4wYrGL3bUXzSjT+9zsZqBW5/rqOucj9OdxuNX7bN8ZWr8VZlq+KH13H1bBk2lbLCNWu6tPDLi80yLK78IRBXRF8uQtVjy7FsJstv4xIweJLpSuXr9RdaAGeSvLDMi0sMvX3z8oEWCz5ogeHIUfbGycNinkpxI+fGThRWutiEL1Sw2ut/IhLu1GJ9oUqnbPLVDCfGq2rcKhZz5ePM9quY7be6sTRTfPx4LGa/uRyOyi0o9IbGXvWOG+tPigsu8nF/6RbsbpLtXoqLG2vZpQ1WIWKK4Tosxr7KbVsVnwyNbc1CeWJvS5Y8/xF/rZj5eJ1+4qEw/tl0jPd1RfG4vx9dHY1IfWmyfJ0I+G/3S/KX/q61YnfRdtQn52HOs8oJau77utFmLc/Fmk8mvJSJ2Z7tKLy0BAvTQwss9vofXZ0a2UeZ/G3lZLs5ny/rCc+yic+R/cr1xfwpLtJKh0I0bMfbAflc86G4yIPHV+UiQzQAjm9J8v2iBIU13fL1ma8X/3En2kfbjL9HylB6IZB7PCz3tCLj9VnKnZW8OiU++UtDrPGQ1S6LcvtVtYuo+xJUKYcNGZ3AZNaI9stMV4FH7TlYse/EmVmY7avBcWQjw2zdNGEqXnR7UeVxYcYLiq+Kua7rACovZWOG6hH6oWME+7sUe/3MvvegWVxHUPx5/Ul2KNIcgVe7TcrEKmct3n3P+toEby5j7pPRxTjxNRVpJ0PzI7HNUpbfoyfeazIq9hdhk1ITBWPJ2mykiscs1NIjCm6+96P9izJUNUXQ3ShWTzA5t3epvmhn9VD1OytQ/ex2/GXZ0/CzNsV2pT913LnWhXoWM3RvbRkSrC26VuXB6XLp/spY0cyKuNc+w6E3gfLfueGckYu9f5+PHSuAnh/6ZccflYScT7xY5fDg9Rnsc3NWo9qxAici3ALPJWU5/lKQhFPvzGJ9eBlveBKwLF/1KMS4LHxevRqP/nU13GI/2fXOJZfhzGaX/A3RE9nseBHSOjdilnic9fngqHx8uipF+QYpdngySVxUhhNrE1D9+0xJlu7f+zDhkxP400sGPXC4sJn1d9rljZjOzs38oBNpBRuRgS70GX6ZPgazN5Qh56cyzHe74MopQrt7RUyPETjcG3Hiw3S0vyfL/PXP/Xh+rnJQIgWr/tdGJNXmS310r/bg0dfXsT4GcCBtwwEcWuxH9RtMJtI4WvHiZ1tD7/VVMwJ07HBvwZlPQmN+uzYJy9Tvh7vVhVO7WaAPa9CBaRu8+Ci9A+sz2bUXMvm/UIDNrPvRLkpyfSwaFL/cMbUT6xeyfrrcWFwNbNi5GqnimCKObwj6MxQ++WQuPj+YB+zNhUscW9UvsGH7cuD7fvTzOnn3ezTt9qHPaGIaS7sMhzMfR6tzcbMiW/ID9++9cLzpDX0Dx4uXFq6funAjcvyfYb5rI07/JO/TwPxn37EyTLig+A+LEVf/uQKHon3c3XaMCofrbzrs22AKcjZnw1/G5F4Q+6PyMvbiWn9DLepYoq/bliWdG/x7p4b1h7W19jCOLhtAeY64PxMrjzqwqprFcst3H3P64+/Cxb2f4VyX8e1Hom2eqN2JKS1FWCzanmhfJd1IY7lp3yJldYwXmyXc2PB6Io5sfJmdMwvrL6dj14EC+bE4hxMbqvZjxrUiZp/iNbJRPpCLo5W58h10vLjECLNvXj7QwfVBKwxHjrI5TnMs5qlR4mOXTC5zszBHPdmy1X/RtpldTv8ehZJtuzC/YgBLq/dg6ZPKKYyc+U/j1KZ5clzby3RevRM5yjUdzxfg0MFsDB5Zzo7L/W1yfYYPZsl2KR2vmI62P86T2y/qxoyKA9jgNJBMjDFcg8XYt2plJq6Wv2o4Nluy5PnPz504Vf4ZTnVEmJhMcrN4chjn9De085DefehU3ukbmfoi2aekv4XrcG7MOhyqYr5ruBh0/9eNtmp5LhZ98rHpWMQml+PfnK9dZLPpk9HUqWY+ajcn2835PFknzFqHzxcNoPRV8fqvovCyG6vY9TW412FZohdvz2FjztyI9vQS/Eug7uH5liTfFXAckmNQMG8EcqNVsrMwsbYAmSzHun5XAaz1YFewDX6dEpf8pSbmeOhAxtYT2BWwpTkFOJWUq3n3ZxgJbrz5nhPH1rjh2msxGFmxb+Ybc9ncdPxid4SYE2As0qYzW3O6MS0Qh1mumzaXtbTIHXyEf2gZyf4ux959/9yBTVIdlo3CK9Oxryo/smx4tduoZCyt9GADKrBYWpsoQ39mLnLkTxvCncuY+mR0MQ7JudhXvS7oD1nl1zFnWbZyMBrivyYTZMUKzOkqQ5ZRLLFQS48sePm+H+3/egBVLZF0NwbTZmai/kxjKG62erDprB/91XKNIbYZ/CsPxZ2ehhpcXZoZ4XUk8eXvxF/TUv5PEJZpLpmMxfCgu8DiXVgPGH7fdqSUJ+M8K35sPW53n/Cgj8+Ubg/mv9qNzY1b7kkQJgiCeHhpRfGkXOBwBzY/r+wihoyBkwVwnXKjsSzL8h16/d48uC/nonWb22BCTzz4kI/Gg4d93jTkiO/Yfjkf+MsZrLkHd60RBDGCEP1/HvP/j5n/W71b3c9y25wSjP/fHiw1/045LsT8TleCePi4jroTHVj1bvYDuiD5oI/PDD/az9YgaetyWnAlCIIgHigS5m7FrlFFWO81eN+tEd978e7BZBwqoAVXgiBGJv4bvWiuLEN54nIsoAVXgnj4GJWCNZ9m49gfStBs6bUlfjSXFeHq2pJ7suAqQouuBGGbsZi904PNzz+oU5AHfXxmOJC6yhP9o1oEQRAEMWIZw/K7F69d+jfUcx8fvoXTh1rx2l8KkCb9aBlBEMRIoxWlrllY+WUSdn36ED6dRxCETMpqnPj4UVTXWPhSudODg7/cfk/n+/R6AYIgCIIgCIIgCIIgCIIgiDhCd7oSBEEQBEEQBEEQBEEQBEHEEVp0JQiCIAiCIAiCIAiCIAiCiCO06EoQBEEQBEEQBEEQBEEQBBFHaNGVIAiCIAiCIAiCIAiCIAgijtCiK0EQBEEQBEEQBEEQBEEQRByhRVeCIAiCIAiCIAiCIAiCIIg4QouuBEEQBEEQBEEQBEEQBEEQcYQWXQkVflz1bsdi12QkT5oK15LtqPtROUQQDyXXUb1qMlZ6ryvbrSieNBnFTcomYQOKL/eUu704/l4Z6vzKtgnt+wtQ2WbhRIIgiHjTVMJyQgmalc1+bx6SV3nRr2wTBEEQxH2Pjbp86NHNZ3V5+EFnOOY91hZd+xtRuTEXLqcyWV6Yj90XAosQxP2K/0oNqk52I2By/qYyvPFeB9I+OYPWxlocWutG4mjlYFTcpwtUzN6rPK0YUDbjzt3rqPd40HxD2X4gsK/r5hIWT0pala2Rg94vrEMLsmqGPr7w8ONqjQenu+9tUh0Zdn0dx9dk44sXspHhkPf0N+zBW3NcLIdPRoo7F4XekG5SX8tF3x/zUf29ssMQ2b7Fzwf/XFl4q8SHnrvKKcSDy49erJyUh2r6osQGlBMeZrSLx8OTj+wQfe1DxAJ9yfDw8DDq2nTMI6CuuHc1e3hd/mBwf9Y51uY98YW/6PpjDVZmrkD132dj36lGebL85hM4tSYTK7+ghdf7mR5fBQrLzqNH2W7/6jB6cvOw4aUkJDw2FhNeciM1QTn4EDHQWoPiEi/q47TqGhbQf27BsZKdqL50S9nxEHAfTdj1fkFExz2PL2E29j3qyrej9Ow9zKhRMBQF38DJErzr2Ipd2UnStr+1DK8vO4/xW70shzfC95cs9BRl492TSgwa7cSGDUkofNuDq5wF1GlKG+Jf4+E8PH42D7OKG21N1EfqFy5xZQTFPJrUWyNmuxwSndPCbayMjHgz8vNR3Guf+6LuGxr/uvc293DECcplRGwMn5/o63JimLEx74kXnEVXP+r3bkXdC0U49GE2UseNkSfLWQX4dEMK6sq8aFfOJO4/JqyqQfepFZigbMPPps2jE/BAfQETBQmZRehsLcLsoVpwTsjER60t+ChzjLKDGEmE+QURFcMfX5Kx6lQHzqxKVrYfEu52oqqkFjk5mQiEsPYze3B1RT42SwveY5A4JRcb3krE8caW4GKpw52LzXd2oqrBfPnUMTpRakNqJzkLG/Kz4K86T7UAQRBEREZ+PqLahyAIYggwqMuJ4cfqvCdecBZdO3HR60dG1nQkKnsCTMjdj9Z/zcUEpZ/St3ofenF6SzZSAt9s3r2FZk+B8g4/F2at2YN65eup5pKpSM6vUT3C7Ud9Edv3ni/8jhmjb0v1754YaEXlmiw4J7FrOd1YvM2Lq7eVYyJ3e1FXkie/IkF/XGm/smY/Xhf7Gvh28loNCpe42XjYPvExyt2N6I+0Gs7G2i6+r9DNxsDOT3HnYXdD6E5g+du5/TheuULqY+BbloFWD9bnyI98Oufkaz6jpn33LCS/U6t55P1qVbZGhpHbUr7Zqa7FpoWsf8q3hKFvDOXjiyvZzspc6fNS/wze72Ha39vdqN6WK+vAJT6+2sJ9RF/dnv6R14h6EXWdJ+tFlnMN67/KPji6kG21Fs2Vij0w21xc4gvpVjNuWTZiO9o/lVx+bMTugO2JbQVsS+q/Wq6BPoZ/02Yqh8D5taFxi/It9qlkL/paZT5mqd6XWX3FJIhE6rN0TJZ71QVm/8E+FaBK3Z4NXUvydm9FHXzY5Gb/V3/7f7c/pAfRL9V6ELnmQ3FQ1yq5MB2lTMrHcdUrGvwXtrN97Dpqv2dIfqL2nYFarJ80C7vblG2G+pyYv0n/SW2f4XqKaJttezB9UgFOqwXZ7cF89TgjycMIjh+oGSnxRfsIvK6/A52SzQVfc5OnzidGNqZ/Hy9DnQd0OUmEGxvCUL+nVvajsNeG2I4PDLN8xeOKD9XfL8Gc9NDydlpBB7rfcylbKgb8KvtJxrRXklFVa++uVcc/hJeQEeOZ2Zjt5FsTWxAxrEcYpvlLj1mMNIjhgbgpXitizBPjdLAmCo/TwTpBVTct3laLHmYPpwPjNYqTEfsq99PF6ir4tsKl7jPPxvpZm+o86+s1twuOTqTX6uxW5Sjbxy34rjq36Pxflq0H9TUBf2XXeMfD90WLdhlR5yJR5gSpz5NyIXVrCWszQl4K2LtanysrO+G/3Rmqi1nf13tU+cIsP9jIrwFMYzfH7rnwbFWpRwK2ETxuplcdUdWiOkQZrJTkKdvvuV71GA3yEce2ekRbVfRjFK/4OVldL7D+t7F437Y/qCfnHG1dp619lDY4dWckGzLzB1txOB5xIUJON/Uvk1ormlhytTILyXP246rUghEDsiyl9vT5hmHiQ1bjBDdGM8z9mKcLK/lN2zdN3Fb8zHjuYZLLePN/FXIf7OfY/gshuchzHnVNo51P4JoHiydlo/KKsh0GT9c26z+VrerjiN35j5m/BOHMQ8zjoDEDHd6gzp05IbuxtVYkYhIPTP0k2rkoI2hTuvUdDQZ1OdcfRExyhKXPm9axkbEtdxGTOiesX4b1WRz9UsQ0ngSIbt4TNYIZN88I+RNThD9fUrZNaNqRIjw18VdC3t7zwsWvWoTvBgWhrWKe8MzqQ0LbDwPCzZ/6haaKJcIzsyuEtjvsA5crBPfEdcKxn+TPC3dahD8/lyK8f559UM8PR4UVE1cLR35QtkUu7WDX2yE0SRs9wsHfpAiZH5wXvvuJXeuHDuHgaqfwzAcNgtzagHDqbWfo+E9dwrFNrG9vnxFuioel9lOEZxbsEI581SBc/HpAEAYbhPefcworDnYIfeJnvj0vvD87Rcg+1CO1qOe7Q0uEp2YXCee+HRAGBweF774sEjInLhEOfisf7zu6mvXXKWQVH2XyaRC+EcfdUSFkPrdaOHi5n/VpQOi7VCFkPzdPKO+QP6Oh65CQNXGjcErqsEiXcPCVFCH/31lfRUzbYrJl43vqV+uEvV+y8bX0SHKR+vTGUaFPPIUh6XBHi7LF0MiYYXqNQeFcoTMog5s/9QgXdzF9m9jPYMsuJqN5wvtf9sjtXT4krBBlflSRsZFe7rBxM10H7Yrp+gjT5VMq++DpImirh2Td9l3ex67jFN49o8hSN+5Bdo7YP+mv77zw52nM1picJNtS28nPg8Jgn972DOSq6CMgF64cVPqTZd8vtO1juntuS9Ae1GOWjh9cLTzzXJFw0cCduH1WyT2gy1OFmaz9fcI3cgO2dW3kw7Ie5gnvHtXq4f2vlE7/xOIPs6+AXG5+fUJ4d7ZTtvk7HUJ5RoqQd0LRGaNpB+tT4fmg3IMwu3VPZH1VDgyeL2LXTRHcFQFH6xeOvBFqS+sX8rEVR/ulLb3utCh6mr1FOKLRU0gP5rap82nGNwdfFZ4KxCkzeRjA8wMNIyC+DLLtzOeWCB9/JY9P7u884eMWsTVVjL/JbPbnHuHcB8zvf3NI+E7+uIGN6XXXLxwT7TyYk5Q2ZrM+/CyfwY0NOkRbekblu999tYvJRTXOqOIDJ19x+O7Ico3cjbjZIcaYgGxV1DOdPLcrFPM1yHoOyZPxU4PwZ5YXM3cp8ZDBj2cGY7aVb/m2ENSjqh6xlW+5ejOIA3r7C7PHQaFpl2hv+jjNzumVzwjUCQE5yLJjsfi5V1VxUpZn0CYt2JjeF7k2ZiHPauHphI19B2v/t7uEi0rOkH2P2ZrUSd5xi76r8SOt/wdkm1WsjPnbM8L7LIdk7u2SjovEZpeMMJ3HmhNEDGxNh2zvqjgktcHk9avweLr3a/kzpte1k18Z5rGbb/f6XKC1V56t9ghHmG1kbjoatFXJ/lefiJx7dERVi+phOTRb47tHWX5m141US3Bsa/ArlltU8SrMLqzk5KDMFX9h13suzMcCdZ1e7kobFutOQ9sN8weGnTgcr7hgmtMN/ItTa0UTSwaZPXzMYriR/wTay97VoLQn20IohlvwIW6c4OdNrh/zYriV/KarTTRyUvlZwG61cw+jNnjzfy0BWdvJsWpfFO08cFyeqwwIx9ax+YTKgKVrvHIo2Gc1fF3brP9+OCHHKl0cCc5Rbc5/uP7Cm4dw46COgM71dhXIkXbWiizEAyM/kccc5VyUEdCpZn1Hh1FdHm7LOn/g5Ahbn7dSx6rzsC25y+2Y1TmafkkY12fx80uGhXgiYTrviS/mi65Kh82KvQCSQNUFmbRg+6pwMJSDmNLYBI0J9WNJ7nJRFyxAmLIjLhIZJW5NkdYifMyU8+6XoQ8P9rYIF+u75CClCzoSvUeFXNbmMdFapfZ1fe1jgYztCxSoIje/ZsWWqFxlW8PPTKFBpxbRGrNkUJogLAbWFCFLc1FBuFjMDIRNYMORE0swsH0rBrbAmHhtyX3RO4veYcOcQiNjzjUkeWUK5ZeVAxI6h9Ygt6dOVCKDX25hxs+uKS7MG+lF0qUqEIjo7YOjizBbVfoSlLtm3GrkokMsUr4R+ydyZ1AKwoOBbQZXrpr+WJCDkf4k/wr4ErvGLjYh2qQa02CP0CQGf6MszetzRLkr/mJb1wwDHw7XgxyEA8VAWwULjrpJnpS4lMmUdDzQZykhqIKtGukY66/UrLhgzGRZXiFkBfxxkCUyVd+0+tNNlEzHaaAnadyBazM4tilNYoLFlezzgfZ48giDcy0twx1fxGKJXWOf9hpNFa8K2ftk4YlffqhtNsxPw2xMpzuj2HGnS9j7SugcbmzQIPdZ77uacUYTH3j5ikNYeyqkY0xXT038/wn5R+XFcQ3S4nuk68h6lj8f+vsVK3C/CTZkJZ4Z9NFmvuXZgtS+gR4t51uu3gx8SW9/+m0pZuvjJotHm1gfFFlI11h6NPRFAkMai2afHMOC/bZgY/ptro217BKe4eVZHaY6MdCvGJfLX1ki7BXlwTtu1Xc1dm9Q1AdivoIUU80W52zaZbiMDGKjdI71nGBoazqkfhc3KFsi8ti1++Qv0lb8VYmHnOtazq+82G3B7vX+q7FXS7a6RTinHssPJ4T8V4qEU4piw21DjYWYJelMVxPpkGqwdSc0CyNav9PlI45t9f1VtFc2OQz61IDwDavp2n4Qj1rLyX+ul/dLSGPQ7dPFe21/5TbM6k6u7Yb5g804HK+4YJrTdX1m8GqtqGKJCVJ7urgv+sQzgS/CrfiQwTj0mOdNjh/zdGE1v6nzEEMjJyM/k3QcyUZFOPN/HUaylvpglmMHmZ3fVFuD1pdv/vtGVX0jH4v0xRxX17x4p0OyO13cEb7eJ/m15HdS7A7kG3lcZvMfnr/wfIMfB3VIOl+u+vKAIfU5MB+xsVZkIR4Y+Un4mGUdWp2LSuPTxQM9RvHASC6a83g5gvd5u3WsJh7YkLvSjlmdEz5+rQ9J/YqzX1qJJxKm8574Yv56gdEJundPyLcDS7fxSn+6R3XU7+vr7sBpdKJwjur8lBWohB9+6dbgFMxemYK6k+elW6PbG/4GZGciLaoX/jmRsy0Tp/LS4VpSgGJPDa6y9qelJ0v97/+6BT3wYOWzqr7M2Ip6dmwweJtyIhzqX9JOzMTaNUBplnh7+nZUehvRl+jCtCljjd9J6PCjXbwtWnnMJnALu4ZfOvCo8l+gC21n2biLskJ9Yn+v74f06sNwkpCxyInjtQ3S7d49F2rQvjQT06TOWGvL8Q9RCVeBc43vOlAHN1Inymfz6UJTDTD7+RRlW8Yx2YmM2924GrxfXqsXSZdPTMbTjyk7jLCiC827JccgcVwkuYcYOLkVr3uS8NGnuZgwStk5ygFH/3mUrgvcvq88/mIZq3LQ6S8hEY8HfQlIW1yE2Wfz4HTnYv2HHhz/BkhNd2GC0ctjLPVZ5w+PjcXT7B/JX2zr2gSDd3z23BQVcR1dLb2AJ09+rEL5m76lEbgjKyo1czlSfbU4J8agzkYWb7Ix5wUDGx+VghcX9eLUpW6m5Fac+yILLy51Y84NL+rZLrQ1oHqKG2nMBuJBuJ/14mbgcQ6ObY5/KQtpNbXyj7hd8+HYlVzMcYnt8eURhhU/CDLc8aVXusa0FO377tJWe3F0hewbjjsdqNoUeDSO/S05IO23Sn8Hix3pbkxVx45RyUhLB+q6mGwDWI4Ncp8znjV5R18U8cFavoqOtLXKD2D9az5+sXc+3vKqxi0y2iG9SsjsOuof0mr11eCPT3gw/83Ai+itxzMNNvOtJVvQ6NFmvo05rhvwTQuO42WkaUTjQOoLbvivdIUeEXsE+IXy3yCafQ4ksNgc7PcQ2Fh/Vyf8U1yYbJZndZjqRMoZLqSKSSTAKCfW/KsHq6aw/3OOW/ZdHpoaDHh8LPPdSPFTxG4dGIFYcoJlmB2EodnH/OGX7J+Ab3Ouazm/8mK3VbuPgCVbTXfiaXW9Mi4Lu/51C2br34tmSHS1qJbruHrZz8Y02fr7+ji2lTgrD2vufoZZL2bhrW37UX2hH4+zmi51nHjUYjz7L8q/atT7LMR7s7rTvu3ajMPxigu26n2LtZbdWMJDH/efeBrTWDUmxYkYfSiAed7k+DEvhsepj2F+pp57GGI+/zfEbo51PII+X1noMeZJbmxSpdiEmVlYevswTolPT99owDmfEwtfSpIPGmGia3v133W0/0cvpr3k1I510lTWng9Xxd/si2b+E9FfeL4RRRyUYFcLzKlFRiVhwgtszn1bbNP6WlFMdUIMc1EJXTyIC7HWHzHVsfbX6EzrHCvE2S9lLMQTC3kwXpgvuiYkYeITwNVvA+9lGIuFnyiTrYpcZV8E7orvimOFzznlfNXfBqd8ygR3NtKkoq4TdUf7sfTXLmuGZMD4RWVovVyLQ39wY/yVGqycl47F4jutxIOiICfl46iuH62NO7EwYlHmQFq+F52tXnyanYKbDWVY7MrCplrjdw+1Vy7H62fGYsPhBnRf6WB/LBEpxyLhZ8a44JMzuj6xv7WKgHSMn5mNDGlB5jrqz3YiZ6YzKC+7bUUD/xqPwPH3yn+HCIeDhfLHxpjaSTS64PK9F+vfq0XOZ2XIYT4R5EYt3s35DH3Td8LXKV6rA40fupWD95AnsvD5xRb4DhRg5pPd+OL38+H83X60q3JCkLj0eeh1PXiHxYgNnnB7+yRLCpBIdiPH6cOpC6zwuOBFX26Wskiox4FpM3PRfp4l5LbzqJ6ZiWkJKcj47S0ca+jF1Y5GPD576j358QiubT45CznuGpy8cAv9l3xoVyU5rjx02PWD4Y4vptztxO6lK3AqUYzjss12H16uHBxeHI+YRKNofC2qfGWR0coPYE3JxoY3Xagr/zftD2Cxa4sh4xfqAliH+oe0EsYlY8GbKzCtYSeOXVZOiAob+TZKW7BlwyMlrlthqGzsv7KCXfkvlxHsn7Fhrw6MhiGpVyzAva7l/DrEDGU8jDMJbBJoHY5tib+sfKwFndU78dqzA7hYtgTOeVtxWrnRZdhzMiMa2x0J/eZht9YaOlg2Fu0/HjywMZoz/48D4g0380uvY8bHf1Ps3IeP1CnW4cKcpUDVl60YaPDhtDsbc55UjllG0XXc41185z9WfMNeHIyM/+6g9G8814qiYfjiQYz1R4x17HDLnQfXL63CfI4374kXnB/SEh0zGXV7vWhXAr8jQZlsPcpxqn+cjAy0ou3HR0ITNPGPfd4RGJi0wMCKupL9qEYeFprmXJPkc82H3WU1bPI4FhOez8LSbRXwMWdoLjkhTSgTn06B40oLrvpV/dD3RccAM/LSSh/6RychdSaboO704Oh7DlQfkVf9tYjfNnUj47WVmPaEYpJ3eeE+CVNmAi0d1+HQ9UlcyTdk3CwsmluDi8fO4NQl9V0HUbRlG841Jk7FAvwNzZ3y2XyeBlMVTjdpP+DvaEXd6GRMiBDJEv7paYxva0SH/sdqgkSjCw53u1H19lb05u7HZrcu5HS34Pjtl7EsJwUJii0N2rpedHLQ0ou63WU4foXZerITC3K3YN+pMixs2olj6pe7B4i1z7Z1HQ3Ml5914Op/dMGvt7eEkN3Pec2NupMl2Pt/gLW/jhxAHE4XFvhaUXniMDJmpkvfwqa+lI3+sx5Un+/G7Be0d7kMDVZscyzmLMrE8cYTOHWyUbXwaUUeaqLwgxEQX+q/Eb96D9FTW4bS2l7xK2w0dbuRs8yF8YFu/T/lX4skTp6K8awgblHHDubbzQ1AxtMmdyVExNh3NUTha9HkKzWJ/+QCNHeW3MLpdyZj+h5dP8W2WLsa6+npQv3oFCTZqSSVgkUmunhmK99GZQs2bdiq3uzYoGHc9KP9kg+OSU9HX7wPgY0Z+ooZPJ1I9WAjrl5TtiV6cbqsDKfFfZzjln2XF+NsYq8OjIYhqFcsYeW6VvMrJ3bHaPdcWxWPN3SiS939gVZUlXnQHPoVEBPiUYONRer/SEL9hVbVD4+YY25bt9BcXYZKH4tXT7J5WHY+dh0+jM2jvThyQZxw34uczCMa27XZ73jFBVvYrbXixH+yuK38V8Tf1Yl65h2PjmEb8cgd3LzJ8WNeDLfaR904Y4Yz/48HVy/XwD83FzlTRGWIsBGwcYRwYNqvlwAeD94/VYPZi2aZ68RE1/bqvwhxh32+Hm5MUG4Qit/8h+cb9uOgDIsb6vUdfxezGyaLMcq9oxbXikZyPAivyxVM/MFS/WHmT7HO9W2t0VkgzrUN3y8tEs28J0o4i67MMZduxyqU4fVVe1B/7RYGbrC/a504/mUrMJoFiUgJXrwtetUjqPzjdlS3XZc+19/mwVszCnA6aC3yAkNdTQ2w2I3UsICiMG4ynn+iEZX7fOiRrt+I0o8PKwcZ4xIweLIAhWWN8vEbvczpWwBnkhz4ns3Gn2Y2ovDtsuAYes6WYP6SPcZ3AjISxjnQXr4df67uRL/Y5o8sKDZ2swIoyeC2+TEY/6QDdXsrUCe2z86t3lIkPWbT13dLPiWMsZj95nI4Kreg0Bu6RtU7bqw/GelbjDHIyMxEVdF21GvuOoimLbtwrpHgxqLcfpT+YbssA1EHZSWoUj4dDhvLstVwlG1E4dlexT68KCypQcbWXKRFsoWUbKxx1+Ld9zxo/1GRddl+1CmHo9OFGX40l65DYe9ybF7xNPziuJU/6RGrsUlIw2GUV8ky6blQhreLG4Gu6+iTG4DjURbsL7WgPfAZDVHKQUMiEu7UYn2hyr5Z4mmGE+PHKqeosdBnU2zrmjFafFVJI9ovs1hwW9nHIW3xFmRc2o63VH5dV5KNxXtC32AnzszCbF8NjiMbGWZ1Q8JUvOj2osrjwowXlACdwgrQrgOovJSNGeLjUUOONdtMeCkTsz3bUXhpCRaqf4HegjxCROMHwx9f/KVbsLtJzheSXW6sZUpmUfyxJIwf7UPlXjkHiD6yaZv4aNx19AeqO56NsdixYaYvFDtEuy3fgtLby7F2rpGj8GDyWpSLPpXvin0u9iiHRaKJD9x8dR11lftxuts4eY1/Nh3jfV3K4/4iYzAtMwt9n5ehSsnFA2yiUl7hQ9or6Zo7HK5+w/q2aCpSlW0j/Lf75TakdlqxW7SX5DzMeVY8ai2e6cdsK99asYUwbNowV2/yQk3VgUh5iKG3RxY3l615RBU3r0u/YFx80o0/vR5DNWvFxlhfcKkTzayvlmxsUiZWOc3yrA6eTqR60I/iP+6R+iDnjAIme3ZIfKyRd9yC7054linkyH7FxkXZiotW0iHLxGSXIrbznJU47cCjbPLc/H87MTBg7PP2sZYfrOVXTuyO1e55tiod96J4Ww2uKjqq/nALijsTMF5R0tDXYPLrGNJObsV6xQ/FNkqZP0TC3LaYfh7pRGlhSWj+1NmAi90OjB8n1i/3IifzsGBDYf5gs99xiAt8wv3LXq1ljN7mBpo8KPWYLEY1bMfbgeux/Fxc5MHjq3KRIdqwJR/ixAlu3uT4MU8XFvooL4rtR2WkeskCYbmMN/+PA4lJrP+eCiW3yOMubBBTrGoJzTkfax9jsfJkJua+FFgEioCZrm2uV6QuXIeM86G4I62PFH4G/6o8LBT1IhLH+Q/PN+zGQRk23j8Exiu2V4Sqx5Zj2cyAHC2uFVmKB/bzaTziQXhdzvcHXv3B9adY5/pW5W6BeNRneiz5pQWszHviBXfRVXzEZfO/1uCDlA4U5rjgdLG/nI040p+JQ6eKMFspasJxIG3DARxa7Ef1G27pc5kftOLFz7Zq3rMkLTAgCTnTzVZMUrDqf21EUm0+prN23Ks9ePR1FmiUo3A4saFqP2ZcK8J8sX+ubJQP5OJoZS7Gi8dHsfY/8WLH1E6sXyged2NxNbBh52qkRvqiYlwWPq9ejUf/uhpusc05q3EuuQxnNhvdXu3AtA1efJTegfWZ7NyFRWh/oQCb3ebKdzxfgEMHszF4ZDlc4jXY55pcn+GDWZGLhQR3FhYweenvOoimLbuYX8PBCtQT2BWQwZwCnErKld/1EwGHMx9Hq3NxsyJbsg/3771wvOnF59msWInIWKZLDzaggsUAF1w5Zbg6yY1pylGxH9HoIjKdOFXZzeqSA1j5EmtPHLfyVyq+v+fJXHx+MA/Ym8tkwuyq6hfYsH058H0/+pVonLpwI3L8nzHb3IjTP8n71EQnBzXM19YyX5v+fdBH51cMYGn1Hiw1esTFQp/Nsa9rsSB78z0njq1xw7VXFJwFnshmPliEtM6NmCXKfEYuDo7Kx6erUlgPFB6bjrlzWULjJoSxSBNjjJPZSqAQGZWCaXNZS4vcUb5L2i4WbZONaRHLT+PfnK+d8FmRR5Do/GDY40vFdLT9cZ5sw0XdmFFxABucbHQOFzazsU+7vFHKAZkfdCKtYCPLAV3oC8zVuDY2Fgt2n8DnyT6snMPGwPJE4ZXp2FdVgLQo7w5yuLfgzCfpaH9vFmvvZbxdm4RlyjtoJaKJD7x85e/Cxb2f4VxXhK90WTzMeeIwzqlEkDC3hPUzGRf/IMvWtbQCYDFmX676/W2saDnRjaXMXszcob5IjlPSHyv4z41Zh0NVrG+KrVqJZ2FjtpNvrdiCAbZsmKu3MZi9oQw5P5VhvpSHmH+5V2gfrQ2zRzFOH8bRZQMol+J0JlYedWBVte6VNXaxYGMJM1dg89QTeMvtRrn4GgiejY1KxtJKbZ7tz8xFjtSaAVydyPXgvn/uwCbpegHfy1diL+8433cTZq3D54sGUPoqqzdnvIrCy26sWiEfs0pMdiliO89ZidMpyNmcDX8Z86eC2jjdYWs9F1nJr6axW9RtLHbPtVX5+CqHB6/PkHVU7ViBE6pHP4e+BmMk52Jf9bqgH2aVX8ecZdnKQQM4tpW4qAwn1iag+veZSp98mPDJCfzpJdny7kVONseCDRn4g71+xx4X+Bj4l61ayxi9zfm/9WH32a7IizTudViW6MXb4jgyN6I9vQT/siHwpJMVH+LECQt5k+vHvBjO62PKcvylIAmn3pHrpTc8CViWzwzGBmG5jDf/jwPjX/sMh94Eyn8n5pZc7P37fOxguaXnh/6QPtl8ImMxixdzM5HBexe6ma7trlewOLLvWBkmXFDiCKtFrv5zBQ4FbUckjvMfnm/YjYMSbmx4PRFHNr7MxjsL6y+nY9cB5sOqfllbK7ISD6LIp3GIB0Z1OdcfePUH7/Mxz/Wtyp1PPOozPZb8kou1eU+8+Dvx17SU/w8PbXsw/X8CfznHAoqyiyBMEb8pUk8Auj2YP8eHNy9UYEG8vtok7g/E91S9nM8CyBmsiS0nEMQDw8DJArhOudFYlmV8R54B/qYSzNqRhP99WPVDgQRBPLxQfiWIuNC+exYW/1yCzgLtF9rEg8ItHM934eycRuyay7nTlbDPA7BWFE1dPuw84Gt093rew7/Tdai465cfTSyvQOKb82jBlbBINypfzcIm9aNJJTtxNSsbGbTg+lDhv9GL5soylCcuxwKaEBJEkIS5W7FrVBHWezm/2BrgditKP+jGmk9pwZUgCMqvBBE3/J2ov+TEjmW04Pog4h+4jqs1LFaez8VrwUfiibjwAK0V2a7Lh5OHYY1uGOY9w7fo2loGZ+ZqnBtXgk9fs/EID/GQk4xVe7Zi/NmNyFRutz82bgtObM+8f745IuIAC5auWVj5ZRJ2sYAZr8eICOLBYAxm7/TitUv/hnoLz9m0H/Hg8T/H+Jg7QRAPCJRfCSJuOFKwan8JFgQe7SYeIK7j2DtuzC/pRc6/bFT9FgIRFx6otSJ7dfmw8hCs0Q3HvGf4Xy9AEARBEARBEARBEARBEATxADF8d7oSBEEQBEEQBEEQBEEQBEE8gNCiK0EQBEEQBEEQBEEQBEEQRByhRVeCIAiCIAiCIAiCIAiCIIg4QouuBEEQBEEQBEEQBEEQBEEQcYQWXQmCIAiCIAiCIAiCIAiCIOIILboSBEEQBEEQBEEQBEEQBEHEEVp0JeLIdVSvmoyV3uvKdiuKJ01GcZOySYw87vbi9LZcOJmekktalZ33E3qbG2ru9fWIEYOBr/Q37MFK91Qks33OOfmo6vRL+yWaStj+EjQrmwRx33P3Fpr3bEVVt7JNPPS07y9AZZsq7hH3BH/bfiX35KH6R2WnKdp6vN+bh+RVXvTLmwRBjCC0/knzDoJ4EHjgFl2lQMUKi/kRZwVy8LJeqBCm9DeiytOKAWVzpEGFpTk9RwrwVsNk7KptROtap7LXnOaS+3WBlvGjFytHpO/3oipnMlKKGkHTVz7DYYNhvsJs6d1lJzC+wIvGxkac+DgbaY85lLP1+HG1xoPT3fdYu3Gzdwv9H7G+NdwMve79V2pQdbJ7iGOHH83lS7DpZjZykpVdxENP6mu56PtjPqq/V3bYhnKfGWKuExdKA/9K+BtR/LvPgDc9LPfsxMJEZf9IQcwFYt0d+FfZPRK4r+vXB4WRNG9s24PpOR5cvTvM88W711Hv8aD5hrI9orm39exIm8cPSwzR+MzQ3NA24tZLxBtXHrBY/cDe6dq+rxbtLIiGce0Mqn3K/4mYGWitQXGJF/XDlD1pUTUWrqPF14rU13OR8eQYJIxWdmugu5XvCZ3/hsorDqDKi7qR+g3GQ024r/Q31KJuSi6WZiUj8bExGD/FjdRxyulhfI+68u0oPWt9ZWJkTQ7D+0+TV6vY170pBovbPb4KFJadR4+yPSR0HsCmL+bj0w1ORPpqgXgI0NvfaCc2bEhC4dvywoVtKPfZp7MB1bezsSwnRco9jlHKfkILfRE4IhnueaOa9vNeJC5yY8Jw+9DPLThWshPVl24pO0Yyca5pNNCc04iR5DNE9DyYi65TnEi7UYHqhvBvYdprDqD5iSSMV7aJ2EjILEJnaxFmJyg7iPuKwTtA4mhS3nDTftaLvtyN2OyswRe++6HoevgI8xVxgeGXDjwqb3FIxqpTHTiz6n69RfB+7/9wMvSym7CqBt2nVmCCsh1/buF4RRkS3pyHVFrgIXQ43LnYfGcnqgxqbh6U+3gk4VHpC3EXJgS+1Lvrhx+PIGEkf/uRkCB/OfN0EkbajbjE8DJi5o3+RlTvTcGyuUnKjmEkIRMftbbgo8wxyo6RDNWD95qHcq3l/wGp/+3BGjBn0dXgGwf9N4fiO74q8zHLNRnJk6bCtWQ7qq+oCi/xuKcAi6XjLsxaswf1wdsSlfara7Fp4dTQHYsDrahckyW/O8/pxuJtXly9LX3AGr/MxrI3E1FVq3tc6W4rju3tx9I3l+NpZVeA/gt78NYcl/RqgmRXLgq9qkf1lDFXXahBYY58Toq7AFXKOJtLWN/za1SPSvhRX8T2vefTXl/E6JtX/bv/eOO/24u6kjy4nAbHlfYra/bjdVHmgTuRrrG+L3EjRRpfFt7a3Yh+o7sSuj2YP6kAp4ODuYXT70zG9N2dyjZDfU7U7y1UdF/LxpoX6Fcuin3ad9YMtHqwPihztV7kz7uYjOHbCpfYVsRvxsRHIbaHbHCjRyvPHxuxOyBvdjwkTzbRzGdj36MaO2urbptKHqb2bUDEa4nH4mhnIpq+6X1TlJ8bm5j46t5zs+PhdwNIdxFPykUl+3/lEtaG+o7iu/3M71U2WOLT2tM1H4oVvWr1JtMj6kP1LszdDZH1bnTcDFNfVhjo8AZl7MyxE7MMsOpbkZDiErD217mY85obp784Y3rnttHd3WF3HfL6ZKIfuf39OF65QrJTI7+SrvehVxOHVlZ2wn+7MxS72HXXe7Syj6gbyfZnYXebdJrMNQ8WT8pG5RVlWw+Lg/W7VdfXj9EsThoQ2W70vsKOsz917JHetWUU24MYvJMrUiyQ2pmMxZLj5bJj6nzLGVM/azOo1zzs9vWG2b6MEsfUsa1zD6ZPysfx4ONt6nNU/TfrH8PfFYpfzjmh+GVIDPHQELV8DHw3YLent2QzGYX6LcUjxd/FPtTtZz6g9qeY+qnVvRxXxXa0f0HbYPGn3RuKj5Ielfgn9d+9FXXwYZOb/V/pY1hMMI39gfM9qA+Om53zji4vqhlowNmTLuRM105OrcRaNQOtgfdQsuvlMd3UsPoh0G9FjmG1S0Sbl+WqqU2UR9Xn7w9/vdRIiJtmug0gvic6IFPbxy3p3UwG5nVZJPsTJ+HTXkkOr7l53Ie5T8RUBwOdqN6Wq8Qgxc5VHZb6+2FtqH4S44m+ftIgPkkh/usARil9XHKAbR9g+VE79sj1sgXMbMfvQ6GYn1Wu1r5nlrYe1Z8zLhHSdHlUhJVhji/IuuDEKJN4H9lWGTHUr1ZsJMwmDfJ/LDWwbEPheSwcxZ+r1eNhMbbNL70TOGDDRnnatAaP1cZ180YrPmGaOwzgyVfEf6kW1dMzkSH5VwDOfNFqXWnbZxRdRZzHRiaSPfDmUdZzib6WUtuzlXmyNZlJvhVpzhkvvYiIY4u4bmWgB6U20fgZu57p/IOTh/xX2Bw0eFwbYwz1abTW8oOu3tfbOGceHvpNCtmnzvVqY4AaOe7d49ybXoATS5WFfV7b9wuCKS3CnyemCH++pGyK/HBUWDFxtXDkB3nzu0NLhKdmFwnnvh0Qbv7UL7QdXC0881yRcHFQPt5WMU94ZvUhoe0H+XhTxRLhmdkVQtsd8ajc/lO/Wifs/bJBuNjSIwwKPcLB36QImR+cF777iX3mhw7h4Gqn8MwHDewYn76jq4Wnlh4Vvvv2kJA9cZ1w7CflAGPwqyLhmQx27V7tGKT9z60WDl7uFwYHB4W+y4eEFc85hfe/Uq4ojTlFeGbBDmWcPcKpwkw27n3CN+LxyxWCW32tO2xcz6UI75836LFOfhKXdghPTdwhNEkbvPEPCKfedoaO/9QlHNvEZPz2GeGmeFjV1yNfMZl+PcAG2CC8z8az4mCH0Cd+5tvzwvuzU4TsQz1Si1o6hPIMVd8H2bmijkS5yXtkGa87IV9P0/d+4cgbKcKKo/3SlqH9BAnpXpS7ZDv7WLvPbRFOSQ2zS7fsEjInzhPe/7KHHR8I6mXF0VC/pb68cVToU7b1SMcnOoXsXQ2yvL49I7zPxhccu1o2Pw8Kg31aeQ+eL9KMXZZHplDeIW+a27cOzrXiamesxaZd8wx8k9ler3JKmL6MCNdh0w6mN6aXd4/K9tR3eR/rt8pffjoj5D8X0tvNr08I7852Cvn/zmyRofY38fh3XxYxPS8RDn4rHWYmWCFkqo73XaoQsll7AZlr0Y7Bsi//dpdwUZHxuQ+YnCzHLJ3MbPmWMcG4JLb/0wkhTy0LA4xsXtLJjhZ5g9cnjn4CPpNVfFS4yGLIN6oYGiBgA4E2ZB0yW/7VEuHjr9T75gl7v5Y/Y66bAeHYuhTBrVKy1I9XDsm2ryPcBsW21HLnxEkdXLsx8JUwPehju1ls5MUChkanEpwx3emSckfQdlnuOMKOP6XPNwo3/32jRr7fHHyVnZsStAM5vrBYd1ncCB9/WP8MfEuKX785JHynnKIh1ngYRr9wTPx80HcV357NdPCzfIZsN78S8vaeZ7bdInzHLiTG+GfUtvzVLhZvVGOLuZ963YvnhP6+OcTsiNleIC6rayrRFsPio97OGFpb5Mf+kI8rtqTkxcy9XfIJeurVtizD9xkdXWJNFopLfZePsrjD5Bzot0qOwdqFY/M3T6yT83Mg30ptvCocNBhGmL8yNDZ8D+ImT7eDLGZkPhceQz9ukWVqftyi3s1kYKEuM7I/CdFGntulsREe92PuM9eBqn6/yWLFz0oM+k0oBgZj0KGAH8j107tnlLhrBU1ukeHXy9paTitLnu2IfpgiZAUdi+WaV8RxbAzZBetTUJcW4PlCSBeRYhQ/3hvZqiz/6OtXKzai9SkRbQ5Qx86QDalsn1MDB21IlceMUfw5qNdAvesUntPXwOq8anr9ONi4zn655/Nyhw6ufCVkm1bPnwK6jThftFVX2vUZM/8Mr7/UGNoDx4Z4ucbOPEisoSLPk+3ITEQrB5H46oW3bhV+fX0ckeVtMv/g5SFxDYrpQvt5dv5fZXka6lPjMwG/3iIckfSrjEFt45w4ZtentPYoI/XzXuReXtv3ETEvujbtcgpPbTovTz5EBnuEJlFgoqXfZELWF8B3GlibTubY4obcvnbRqEX4mBnvu1+G9g32tggX67siOKgWWXGiYcpBQe2U4qRe2tYnYnESxJJHCF2Ak87XjYMFNDdr45hkgfJCZfB8MZCqFnE0GBQBemcyHb90XRYs1G0zB84N9MWor30npH2BxQ+Rm1+zSQ1zVqMuNu1wCu4KOTJLwbSwQih/JdDmoHCuUDvWUN/1icHAfoIY6F6yl4BtyAlLvQgjMvjlFlYwsOsphZ1RIFAjHX9Fu3AjBYrgQsWgFAAGVYWipk3J2UOLrFIyD7THtW8dvGvF086kvgUWTAIw3W1ik9pgMWieyGXCdSjJr1Dl80o7AZtpq8jUHWdJ7shy4anVJ6Rx9v1V1Akr8IJyGBC+YTGj7QfxE/pCReZiMev3LiOh6sZgyZeXqxaeGcritRT8uTrVtWfTt8KR/Slk53Kc0o9fjZHNa5Ifp09c/Rj4jB7pesUNypaILBftPrnIDBQSPN1Ii4BB35aPRUqq4ddX+h0o/HhxUg/PbsK2DfSgj+1msZEXCxganYrwxsQm3c/ovmg0zDcBpGOBCYCoq1eF8nIx3iu2wYqyLJ0+1OMP659R/JJkoJpkqIk5HuqQjunGf6dL2CvaoNJvqc8a2zfOM5qxxdzPcNkFkYpvNuFX58GfmS0GFg0kdDHYQKea/liI/dL5r2h9XIoLSgzQo7dNCa7PaJHaD3xZq2BNjiY2r9QMAdlI7f3GeJHfaAwaPd+DuGmuW3ERicX+fdrY31TxqpC9T7RPznGrejeTAbcuYxjYn4QYLyL5piH3Y+7j6YiNShcrtHlA6a9BDDKubyKgazNSHNPWy9o4opGlVdsJ1M2irl9h8wKmv4CtiF/ahWpLC3DinJEuNDHKQrw3stVw+ctxy3L9yrURvU+JaGNjrDVw+Bgioci0XtkUkWSi26fxXf71Y7Zxm+dzc4cOc/kqiF/y6OZPRrqV+hawe14+0mHPZ0z8U2c/eiLJL7IOreQSG/Mgs3myTZnp5SASb72YrlsZXF8fR6Rrm80/OHko7PqMvhMbhazCM5K+w/XJ0PiMgV/bjGNSH+z4lMExqZ/3Ivdy2r6fiPmdrmmLizD7bB6c7lys/9CD498AqekuTBCfK+nuwGl0onDOZIi3r0t/KStQCT/8qtuCHf+gfvzEiZxtmTiVlw7XkgIUe2pwFSmYlp4sP6pimbGYsygTzXv/De3i5o3zOHnSiYUvJUlHNTgeQZ+vLHibfbLyKKmWRDjUPzT02FjpFQWD0jhSMHtlCupOnpduvW5v+BuQnYm0qN63ZD7+/q9b0AMPVj6rkumMrahnx+S+iOj6mpiJtWuA0izxEYHtqPQ2oi/RhWlTxhr+IEZqejZ6Trew6/rRfN6LBa5cZMy+heoL3cDdTlz8IgUzpo5Vzo4Nje4TEvF40Da60FQDzH4+RToUwDHZiYzb3bga6ZkSI4zeuzgwIN/WPsoBR/95lK4LPDqqPDYcwOHEnOx+VPvExySYPM56kbrYLb87z6J9B+FdSyJOdvZNC47jZaRpxOdA6gtu+K90RXwkxzKjlfd1qei5KUr0OrpaegFPnvwYgPI3fUsjcEd+kCBxVh7W3P0Ms17Mwlvb9jO76sfjLGakjhNb7ELbWTa2oqyQTNnf6/uZ9CM/+RDCki+z66jfSzgqCRNeYCZxm13Ark5t+lYYN2pxxJOEnJkBRY1BRmZm5B8CtIJpn/j6kbDyrlKjxwY1+5iN/JL9ExgHRzcJM7Ow9PZhnBKfVrnRgHO+CPE6gO76if+UDHx/U/Jra3FShSW7iSOWYoEW3pj6uzrhn+LCZM2jciaMm4oZU2pwsZVJ7FoDjt2YhYylLizw+FDPdvW3+NC+KN3mOzx18UtiADeNHvOKOR5q6e9g8kl3Y6p6/KOSkZYO1HUxmw+giV1yvJmabG5n8exnEJZLd7+xFb25+7HZrbJlhx/t4mN9yqORgcftLGM19ut8/PGxzH/UMYCHLZ+R4874yU9z6jitHLl+nODGolw/qr4Ug8Yt1Pt8SFvkju6d/fcibprqtleyxWkp2vfkpa324ugKUZmc43HM+ZHrMhNGO5j2ODav5r7MfTwdMdnd6UDVpsCj1+xPehWADk0MGoPEcRbrm4jEWC9bsJ3EqW6k1jSimfWzp6EGA7PdWOrKQtVZ8ZUS19lcoRM56drrm2IlzpnEKMvx3ogY6lcJK/WRCXGpgQ3GEJH/ovyrRr1P47v86w+JjUc832ruCGEuX5n+szWoy83CNL0QjXSrzBft1pVx9xkzNPLj6ZATx+zOg0zmybZr8UjEUS+m61ZWMZl/8PLQ1ct+TJuarPHfxKwSnNiWKfmhhBX/1vj1WEyYZDWOyX1IfWGyzXU1E4Yy95q2fX8R+w9pPZGFzy+2wHegADOf7MYXv58P5+/2o12U413moMjCrnONaG3U/m1wyh83YvyiMrRersWhP7Di+UoNVs5Lx2LxfYHKcaskZOZi6Q0v6tqYIZ704PTcXCx8UjmoYuDkVswvvY4ZH/8N3Vc62J8PH7mVgxaZ4M5Gmq8W537sRN3Rfiz9tStqYzAdvxhAJuXjqE6erY07sTDi2+odSMv3orPVi0+zU3CzoQyLWeDfVBv+jhsRh4slhjYfmr/vxDlvJua+NAapbHwDJxrQc60D9Y/NQpo2Vt+/sML/3ZzP0Dd9J3ydou470PihWvkOTPv1EvT9Hx+bCIjySAktBNm1b+61+MTTzoYK8QeHJmzwhMmk9ZMsOaGIv3Z8rAWd1Tvx2rMDuFi2BM55W3FaeV+O/zaw4JMz4Z9faxI0FGLxZf/dwShilj3f0jNwoZYVN70oXRhKRM53alnyZnFL/YokW5j3iaufIYKrG4cLc5ZCWkAZaPDhNLP1OQbxmodUFNqMk/HIAbaIJhZYGdN/ddiIB+J7GFNQ3dCJnks+9P+WTRAS0jE3y4tzl26h/bIPC1xThy6+xCEexo4Dv2CT9kf/4RFl24Ah6SebmJRuRGnCFvyFBRa1jNsrl+P1M2Ox4XCDYoserFKOjSTs+Qyzy9GsJmOTe1twbZ7lZ1bnwXMGzTfE9866kTPTZAHdlKGPm/eLbqOC6UqsUX9h8UuaBzL3iV+kLF2BU4mizcqxovvwcuXgfU5yOnKmeHGxrRf1Z68jx52ChJcyseALNle40YF2XxZedFr375HqC/ekPhrCGjgemF7/ntt4FLmDI19x0fHUkW6s/bVNedqsK+PtM3aIyYaimAdFniezP9trFjaxew2zdasYkRelY5sXxgTTnYiVOJbgMKl7bTOUuXcY5RlnrC26/j/l3zB6Ube7DMevAInJTizI3YJ9p8qwsGknjok/iPKPk5GBVrT9+AgSHhsT+ksYA0ekwuyaD7vLatAurto/n4Wl2yrgY0ppLjkh37FqBzaJz3kTKD9agqq9nViak2m4qn/1cg38c3NZcAz8auAg8J/Kf63y5CwWUH04VbIf1cjDQtO4xpxCckwDOONPfDoFjistuOpXyZMj0wFmqKWVbFI9OgmpM7OxYacHR99zoPqIfMdkGI6peDGLJYW9Naia7sY0UWiT2GSm34eqoz5cnetCqnzmEPI02PBxuklbffs7WlE3OhkT4hWsu1tw/PbLWJbDkqEiv0ElaAVxzsdanEE9m9hVTcpCxpPKfrv2beVaPKza2cSpWIC/oVkjPj/aL/ngmPR0/IrHMJjdPuvA1f/ogl8nkwTpp3Zvobm6DJW+63A8mYKM7HzsOnwYm0d7ceSCGECTMGUm0NLBjus/r76TLALWfFnnf/4uJhfmW2Meta1T276loRfHDtYi7T2vLhH58Hl2L8r/avKjJGxMbGSGmPeJp5+hg68buXCDx4P3T9Vg9qJZ5naq852er1tZMfWo5Ft242RccoAdoogFvDElTp6K8Q0+tAR/CIvPhBdm4fGGGlSe7EbOS+IdF2MwbaYb1b7PcfELN16cOoS/pBuPeKjCcPx3u9HcAGQ8HWkhLgkTpgJ1l8N/eClInPsp4vftxOueJHz0aS4maOzxOtr/oxsZr63EtCcUf7R7rSGI/YlPJAO+LvQo2yL2fGYMkv57EutDh+qHIPlY8WNHOquTcBgHi2pwfG4W5gR+4d2IYY2bPN3Kua/+G60t9tSWobRWvHOPc9yq3k1kEBM9XagfnYIkSwZ2v+Y+jg76O9DUzWrlZS6MDzQZcf4UT2Ksly3ZTjLSZiei/sQBnOrKRsYktishHTOne3FubwOq3S6kWb5tKvY4F1285xHH+ijieIa2Bo4dzvXvuY3bzR08+TK6fajuZzY8Rd60iv35dzx9xg48G+LEsWjWbiLMk6NZs7CLvWtw1q0C8Gxa59/q+YeVPFTfof1Rq4EmD0o9rbbqI20fe5mPAON/KRoUL46NRer/SEL9BZvXG6bca972/QVn0VVO5FUHPGj/8RYGfuxEddl+1ClHmcki4U4t1heWof4aO37jFnpYEmyGE+PFp8/FW4JXPYLKP25Hddt16Xh/mwdvzSjA6UiSGpeAwZMFKCxrRA87f+BGLzOMFubQSUriv466yv043W0tQYsKetxzAJU3lmBhurFyE5OcbKJfgSqpj+x6Zez6LHF3XbejTvl1BnU1NcBid+RHMsdNxvNPNKJyn08e37VGlH58WDnI4I3/2Wz8aWYjCt9WyfxsCeYv2RPxW5qEcQ60l2/Hn6s70S+2yfRY39jNElJShFvLxyDtJTbx9ngwzZ0unzOKJa/F3aisbFQm50PNGGQsWw1H2UYUnu1VbMeLwpIaZGzNRZoiX8do1rtLnWhm9sl9/M2IsUlIYxO28ipZNj0XyvB2caOofPQpp8hjv4XiogOY9tqs0KOLdu3byrW4WLSzBDeWrXkEpX/YjjrJTliR692O4pNu/Ol1C990BnHg0SeA5v/biYEBaz6XtngLMi5tx1sqG64rycbiPeLd2mMw/pFOlBaWhGTW2YCL3Q6MHydO3sdi9pvL4ajcgkJvyF6r3nFj/Un+t1rWfJn5zx8C/iP2rQhVjy3Hspns+jZ1yvWtH33MZ2pZMSCdruWaD8danVg4MyWUhKS/scjIygW8tdJjSXrkycZ+VCp+IdpRsUc5yOD1yVw/Q4cl3YiF22M1OH5SvsPelP1F2KTYiKijwpJWZKzNlr8Qshkn45MDbGAhFjgeZRPHSy1oZ8el2MYb06RMrHLW4t33IuVrAya5MLvbg6pLL2OaEtbFOzEy9rOcOcmNaSYLWGH9s0tc4qGKFFaMzfSFxi/qsXwLSm8vx9q5kV6Hw/LM68sBVZ7R+1Pc+/m9F2+tY7m1oABzRst6lP6k+Mri45MO1O2tkOO2qMMtRdJjt319t6SPi4+dJbAY1n6Z2arRaxviFvtVsJizAJ24+r2yzbDrM6kLVyPj5FasV+Qo5vPSveav1LDkx6NYDH0zEcdrajE7c3qEmmYkxE2ebuXc5y/dgt1Ncu6RbG1jLeu8WP1xjlvQO08Glohgf1e/YT6xaGrwC3l/Z03kSeR9m/s4OngsCeNHs5zP7FpsX7TxTdvER6+vo9/W7NYu1urliFiMGakvvIyrbF5QL954IbUpvhLCzWqcA2yu5Qot7HOxEOd4WIn3vFhpQDzqownPsonzkf1KbBRlKS4CKgfFsce5Bg59MRMPONcfBhu3lzt48gXaTx6A48159m8eimL+HT+fsQPPhjhxLJq1m0jzZNsysz/ntHcNzroVd91LwWT+YSkPfVGCwppuRbZeFP9xJ9pHK/NGi1Ru26roh8WYKhavW91Ys1Au5HlxLDVzOdJs1GPDmXt5bd9PcBZdx2D2hjLk/FSG+W4XXDlFaHevUD0C4kDa2gM4NP17FOa44HS5ML9iAEur92Cp9C0HO76BHV/sR/Ubbul45getePGzrZgdKdI4nNhQtR8zrhVhPjvf6cpG+UAujlbmyk7s78LFvZ/hXFfEWyq0pMxjE1Fg/JvzIxYe41/7DIfEO2J/x/o4Ixd7/z4fO1awRPZDv+UkKyJOVmcjCTnTzRYlU7Dqf21EUm0+prPxuVd78Ojr65ChHOWOfxRr/xMvdkztxPqF4nE3FlcDG3auRmqkLwzGZeHz6tV49K+r4RbbnLMa55LLcGZz5EfTpXfRsCA044XQZDU1/WV2fjbbx/9mIh44nPk4Wp2LmxXZku24f+9lidKLz7ND32InzFyBzVNP4C23G+WXlZ12eDIXnx/MA/bmwiXKsuoX2LCdTcK/70e/Svni4v14ZGLRTPXk3aZ9W7wWD2t2JvrmYRxdNoByyTczsfKoA6uqmT+zhGadFORszoa/jOmgoNbat0pPZDN7K0Ja50bMEu2N+dTBUfn4dFWKZG+Ji8pwYm0Cqn+fqejVhwmfnMCfXpLtyvF8AQ4dzMbgkeVMTuzzC4vQ5PoMH8yKtHASwpovu7Hh9UQc2fgyu/4srL+cjl0HCpR349rUKce3/N82oLzchy4D/bbXHECzU3XntArHC5nIgQcHaw0mICnL8ZeCJJx6Zxbr38t4w5OAZfmq53p5/s7Rz1BhSTdS4cb8e24mMnjvJl2xAnO6ypA1g+Wm31UAaz3YtUixEZtxMl45wDIWYkHqwo3I8X/G8sBGnP6J7eCNaVQyllZ6sAEVWCzl6zL0Z+YyOzKByfvFRczesqeHvsB5LB0zmDmlzk8PFc4GhPXPLnGKhyHGYsHuE/g82YeVc0T5ZKPwynTsq2K+bXKHkBhv/uWTdLS/J/vT218kYsZc5aBInPvZ31CLuttA3bYsdj2xn8rfOzUsvjowbYMXH6V3YH0m28diX/sLBdjM9BFczExw4833nDi2xg3XXvFdpnriFftViHfnzG3EqYbQpN+2z4zLxq7qdUE5ZpV3YcJ0l3IwAhb9OHW6nJ9Nv6gZ9rjJ162U+yqmo+2P8ySbmF/UjRkVB7BBeQTV/LgFvfNkYAVD++tF/YluLGXjCsii77IXlQdbDL+YuJ9zn6kOHC5sZu1Pu7xRqu8zP+hEWsFGVt93oY//nXFMWKmXI2MxZkxJZ7pxaG68SHjBzcaXgoXpVq4TwEKc42Ih3nNjpQFxsJGEWevw+aIBlL4qxsZXUXjZjVUsNgaIdw3ce2kP6n60OCe2gOn1h8PGbeYOU/neFV/NNtb89wIiEc38O24+Yw+eDXFzid21G4bhPNm2zKKYc9q6hhjrzNateOteCmbzD0t5aAUch2TdBGN14PMWWbUyE1fLX5V8YvFeNt7qncgJ3CjBi2PJudin8anrmLMsW/qoIcOZe3lt30f8nfhrWsr/iVhp24Pp/xP4yznm6Mougog7ZGfEA8stHM934eycRuyay7nTlSDihXinbvBLWT/qtk3FW4950Jkf5Z2hDyKdezDr98Cnf2N5J8IX2Fw0cgauVmVj1oUVaKyI7X2JAzX5cJ7NQusnxq+QIoYWf1MJZu1Iwv8+rH9dBkEQQ0s3ql7NxtUNDcFF2weSOOUO/4XtcFY70ViWRbmCIIh7Suw/pEVI7/YYuNaK3eUVSIzmkQWCsALZGfEA4x+4jqs1ZSg/n4vXxFc9EMQ9YODsVjh/p34sbSeKPclYO4sWXDWkrManvz2Bt0tbo7v7u3s/5s8LPA4nP5JXXNqNBQunR7/g6mftdNegtNyHpdlumkQPB7dbUfpBN9aEvZ+YIIihxt92HsfGb8GqCK/PeyCIY+5wvLQFnbTgShDEMEB3usaDphIkL/EiLXc7Pt2aifFUeBJDAdkZ8cByHdWr3Ci84saGv5Rh1ZQHeAJBjCzu3kL7F2UoLPOi+Uc/EpIz8ea2rViTbu9Rr4cDP9r3bEf7nCLkGDwazqP/wh68X7QPp7tvwTHOiZz87dicnRz1I2L93jy4ijqQsXYPPrfx+C8RP9r3F6D+fxRRzCYIYsiId+4gCIK419CiK0EQBEEQBEEQBEEQBEEQRByh1wsQBEEQBEEQBEEQBEEQBEHEEVp0JQiCIAiCIAiCIAiCIAiCiCO06EoQBEEQBEEQBEEQBEEQBBFHaNGVIAiCIAiCIAiCIAiCIAgijtCiK0EQBEEQBEEQBEEQBEEQRByhRVeCIAiCIAiCIAiCIAiCIIg4QouuBEEQBEEQBEEQBEEQBEEQcYQWXc2424vj75Whzq9sR8PtTlTmuZEyaTJWeq8rO4mHloFaFG+pRc9dZZuIP8xvT2/LhZP5XHJJq7LTnH5vHpJXedEvbV1H9SryV5Ijcd9AeZYg7nNizBc/erFyUh6qf1S2idiwHVN1+msqQfKkEjTLWwTxANKKYuYfxU3KJkEQhAkjc9G1vxFVnlYMKJvDw3UcX5ONL17IRoZD2WUbP+pLc1GKPBz1NWJX1lhl//DQXGJ98WT4EZOZWLAF/r0/ERehxCI08C8SMrF0qhe/L21l1hEdPZ5cJDu3oz6WLwMeYHqOFOCthsnYVduI1rVOZe+DjXaxMz48iHI0i4FDIcMHmZEjryHKs7SIc0+wa0f3wu7uxTXuv3ps+BcXHtQYHf9x+XG1xoPT3dEWiSNr7hJOrOOLL/eLL8etnyMhNz4g+dl/pQZVJ7ujng/ahRtr7l5HvceD5hvK9oOOHTuSzjXKg/IXTvdPPieGixGx6KpPBAOtNSgu8aJ+GFddB06W4F3HVuzKTlL2REMnLnr9yMnNRuq4MUiIevH2XnB/fGM33EV3PK4/flEBci6tQLEvmjTbieN7O+GAB0fO3lL2ESGuo8XXitTXc5HxJPO50cpuwiYkR+J+IT559v5aBHt4uB/08qAuBhL3K9+jrnw7Ss9+r2zbZaTPXWIdH3G/8WDE2PB5do+vAoVl59GjbA87P7fgWMlOVF8aovllHBfLqWZ7mLk/1qz0jMg7XRMyi9DZWoTZCcqOe83dTlSV1CInJxOxdsF/G3D8w4hebR25PPEoJMmlP41Eacf9ScJoWf8TnlDuFhiVjJy12agq99pPtG0+VN9Ygs0bnDh+6vww3w0+Mhm8AySOHq7g8eBAciTuFyjPEgRBBEjGqlMdOLMqWdm2z8iOqbGPjyBGAhNW1aD71ApMULaHnYRMfNTago8yxyg7CIKIF5xFV2UluboWhUvkd/ukuPOwu0H7fp+BVg/W57iQLB3PRaFXd6v8QCsq12TJ7wZ0urF4mxdXWUIP3Kq9uJL9vzKXfV759kP3LiDp24wPa9FcmQeXk/1/kguLS3zoV70Xc6B1P1a6p7JjU+HK24P6GtaG+luxSH0w4ooP1d8vwZz0UMEhf8u2H8crV0htBFfXr/lQrLz3SDN2aWy5kIa2ROyz6hH5SJ9hyGP14vSWbHZclkeka6vl7pyTr9OLH1e927HYpciLjTfS4wJS++q+quTG1a2O/gt78NYc+fxkl8H512qCtpTsysJbuxs1etTw9Fg8Lv77CPALxRZd7/kA31a42P+Lm/yo2zYZ0/d0SqdLdO7B9En5OB4cq+6cu7fQ7CkIymXWGmYr6q9OIx43ur70Ce6YHn9cSV7/Rf5HxOFyY2mrF3Xdyg6LNP97BfDmfCzNzEbGyRqcMvu20OgbRf17tnh+cbcXdSWK3+mPK+1X1uzH66K8Inzj6L/iVclHZxNM3u2inUq+Gx5fZNv3MH8O2DLz73c8EXxX1JEbm5iK6t5zs3NVY1ePw0jvPFQ+q9fx1apsJL9TG1oAH6jF+kmzsLtN2WaEnaNGY3NsfEu2o/qKymssypldWJalYru2dKnh/pFjvGJgiEgylB8fmr5bFWvQi6qcyZi/P4IT/9iI3QHf0utD0WnVBRY7gvG1AFWK3ptLmD/k16jsxY/6IraPxZ/w+Kvk6Vrmy0HZ5qLYF5JF+B0B2vfvBXOMKvYt3ia+e1p+r2/QZnR5l29zZvFW6TerLzYtZGOLdBeLmc1JcoyQZ3VEzGVSGwZ1iIK/K6Qj55yQjiTMxmfFb5VzhipGR65bbORhNQOdqA7YQ6DWUinNSq3W37BHU6ud6w23aAlTvYiPF4fsbtZGXU6wHOtkuH2KOG6TuoAjKwnWz/rdoX6u1Okh5nrKpNYMQ7TlynzMkmTK+qvPQyI/hWKM2J46xoiY1otWbF2HZVsx4jbTzZypmF8WepWTeb4wPx6szVXxUK+vIN0ezJ9UgNPBAH4Lp9/R5Y+wc2zYtD7WhGHwflyrPi/pyTimmurXApE/b7eW141Psa1I+VSCye84050URyVf8qGStRH0VxVR1XR3+0NxT4w5+lxpUvsYYlY/WMj5kj1ZrX/8PhSK41OJv33PLG0NYnBO1LnRUv8DmMRYRvR90KHYUFi+tpNL2PUizWcizbPlHK2qfTR9Do/DluZEXF83izWKbhQZh2qIQG4wqPN09IhtKzJQx1Ephrq3og4+bHKz/wdlbD4PDFsXuWxSG/D01c/8KpjD2HV8vUoMii+RZBDAUq5RrQNJdsHLz2pud6vqj3CdmdYWVuKpHpPrRa5DzeuTSH2M5EsSdmqe4UAwpUX488QU4anZRcK5bweEmz/1CBd3LRGembhEOPitfMZgyy4hc+I84f0ve9jxAaHv8iFhxXNOYcXRHvkEoUc4+JsUIfOD88J37PjNHzqEg6udwjMfNAiDyhlNO9g1drQoW4xLO4SnJu4QmpRN6fjEXwl5hzqEPuka+4QVE53Cu2cG5BO6DgnZbHvFwcDxo8K7s9ln3jgq9Ekn8Pug5rsjy1Wflek7upr1wSlkFR8VLn7VIHzzE9v50xkh/7nQ2G9+fYJd1ynk/7vSL0V+f76kbIpwPhMc697z7Dotwnesg4bX7qgQMp9bLRy83C/L/VKFkM3aLe+QmhEGzxcxPYWu891Xu9hxnZw1hPeVr1stg1+xayp9GhwcDJ7//leKlAcbhPfFzyt6uvnteeF9pqfsQ8btGSHJQqWbm/++UXjqlUPCN8r2NwdfZbJKCengDhvXc5lC+WV5s61invDM6kNC2w/s+j/1C00VzJ5nVwhtd6wd118/+jH1CEeWpggr/tqvbFtAulZgLAPCsXWc6/xwlPnJauHID8q2iMa3eH4xIJx62xk6/lOXcGwTk8/bZ4Sb4mGp/RThmQU7hCPMLi9+HbB7Fb3sHGaX7x4N+KZiQ8q4vzu0JBhfRJv57ssiZnOh+BKyfaUP354R3s9gfd7bJZ8QRr9w5A0m16NqufYLx8RxBfXaI5z7YB67LpPDz/IZWr3q2vjhhNxnnY4zmS9JcmK+6J7IxhAwc+Z7og26KxRnVNrLO2EgH9ZC0y6xL4EY2y+0HVwt+dGRXuUUC3IOyCl7V4MiJ7mPlnUZxn0gxzjHQJ4Mb55YJzyVEYoFsl5eFQ4amaI6Lvw8KAz26XxLpdNAbj1VmMlkuU+OZZdFWawTjomxXkSKYynC++cV4WhQ8vSv1imyYDa0j43luS3CKUW5YTlWp5vA2AO6kf2U9e+5V8N8N5B3+TbHi6ehfu/9ktl1S0/wcyH4NmeYZ3VYyWVhMgro6Le7hItqHf3mkPCdcorp+KzER+mcoYvRAR1paocYclawLzeZTf+s6EIlj9hrtXD0egm3OzknhPpvM9bZqR8jjFvqk2YMVmWlz42hccRcT3HrUy3qXBzKQ0XCRelyiq/O3iIc0cSYwHELPsa1dV2+sGsr6vbvsPqK+Ukwt4hw8gXveEBf+nxi7DcdQjmzyWC8HmS6EeUn5g95j2wz605o/DSyTVuJg2p0srTt8+ExlR9DddfUzeN4n7dXy+uupYq1hvmUWcG5QqfKvgNz2Qh5w2YtEu7LctwL+iqv9tHDqx8s5Hx79Y8YM1OErGAx0yUcfEUc08Zge6I+nwnUPwF5R5sbLfRfT1iMjbkPOlQ2FMrXvFyi9RPefMbIr7Tj4s8HArEi4pyI4+v8WKPtY+B8fRxW13lq1HlLsju9DNRxWoEnt2BdoVoXCe7X2DNHX3eYXbO8HLQJVk8dYcef0uelSCg2Eh4z5HgQ6AtXBpZyjXa85vlZRyD/bToaHKcUP1afkOyMW1uofCEQL7XxVAfneiGbtb5+xu2jgS/ZrXmGA0uLrn+uVzYl5GJSDs5yoHYHqxaZwS+3sODJkq0SXD9mgf7dL0OWMdjbIlys7woWwGGOo0vW0vHC8yoHl6/7zC75M20VzBiU4iWANpDx+6Am3JGV9lQFgYh0XU2/mGOIC7aKoRkZBe8z4WM1urY+QcpcLA7IRCzQwvViNK4Q+r5a0a2OQWbkbIIRQlcY9bHCY+Krwt6v5U2Rm1+z5CY6lbLNQ6tXhhQcAoWBWCi8KpSXswIpIENWuGcF+nuTOaR+keROAxu3U/hYFAvvOCPs+lGPSSwCQzZsBanwUy36SItAOpvUYJDctL7F8Qtd4SnRe1TIZW0eEwUgtR9h0UmhaRcrdDfp7PnERiGr8Iwsw5+ZzWgmDQYJ38jvgj6mR2dzItI4VAtYIiz57mVFZeA8rV61bRjFF+HrfUJWcILH+ixOBiRXkfX6fnmFkBXotzThipDUJZsLfSkgw9rYxGwj4KsW5Cz1f+nRYLEpIRbJAd/g6TKMkS7H+MdArgwlXTm1tvmbUIGv4c6glPQHVXFSIxsjnUryDehDnrQH5S/2I1KBpfiMZkFW6WsgboWPW6sbo7FLn9Hs08Ysa/Iyi6cG/dZjwebCc5cea7ksTEZGOpLip8XxWfBb+Zyhi9GSjgL+EyCGPDyos2ltXxUZmtRqUj4wrdXC0evFaEzSOYGJlc1YZ6VPvHEbjcGSrIoblC0ZqZ3AwlyM9RS/PtUSlqsHe4QmcYIkCcbAVyXbDcRrCz7GtXXt+GzbSqD93sAE8IzwXVD+vHzBO26sL2kirPcvhaYdzuAinVS7FVYI5aw+lS8hx1JN/OXaNC8OqrFnK+HoY6qVGKq7pka3Vu3DYi2vv5b0WV2sVedTwzrLJG/YrOkkXWl8Te5fQP/c2kcPr34w8kdNzo+y/gnYmyjrV5i9iuNWriEugpvWpJK+Y8j9mv6HE+b7MfdBR0QbMsslOhvizGeMbE4zLkM71c4HjGKFZk7E8XWjz2tija6P0vm6Ok9aENPLRaHvr2L7+4RvVLH3G5ZH2n5QTpbkrLN7jtzC/UsmzJ55+mrZxfqti6NG/YmEdK5WfzKyvwf6Yi4Di7lGN17z/KxDGucW4Zxapj+cEPJfKRJOiXLg1RYRfcG4huJdL6LNmtUnvD4a+JLdmmc4sPZOV9Vj0UASUl8A2n8QHzroQlMNMPv5FPmQgmOyExm3u3FVut/XiZxtmTiVlw7XkgIUe2pwFSmYlp5s732poxPk93tKjEHiOMAv3TN8HV0tvRg/+WmT9uLUh1868Kjy38B14cmTbmOWbn9mf9O3NAJ3It3MbPEzmrEqaK7dhbazTAdFWcE2xL/X9wdk0isdz3g2lvcdWdGtDscj6POVhW4HVx5RDpKYibVrgNIs8TGP7aj0NqIv0YVpU8aGj9cq46ZixpQaXGxlA7/WgGM3ZiFjqQsLPD7p1/37W3xoX5SO1FHs3O4OnEYnCueEZJacsgKV8MMvPnrBO25E1GNySD9OJOvLCrdw2uvB+N+65bEwEl7KxOy2AziteuTJHuZ+0f91C3rgwcpnVfKYsRX17NhgUB6JcET8kaXruHrZj2lTkzWySMwqwQl2Xek9vQ4/2sVHaZTHMAKPDGjQ2D7w+Fhm1xF9LJz+DjaOdDemPqbsEBmVjLR0oK6L+aMp19H+H72Y9pJTGysmTcU0+HBV/B2HUSl4cVEvTl3qZgptxbkvsvDiUjfm3PCiXnzyvK0B1VPcSGMxK4xvWnAcLyNN42YOFmPd8F/pUj1ubSZnBek1HCqeeJr1cQA3b1vVpTkjS45DFANNZIgENxbl+lH1pfhI1C3U+3xIW+TGeOlEHaMccPSfR+m6wOOByuNxGnQ6fWwsnmb/yPpIweyVKag7eV6ygfaGvwHZmUgzCSqa9+8lJOJxs7hlhH7sIpp9BjHLTF4W46nZewNjs7kAUeSyIEZ+Z2d8FvzWlDjEaF38jCUPO+50oGpT4BEy9rfkgHJEhUmtJuaD1Bcm26u7jNCPSWRggEnebqyz1idL49Zh6TMsTqhJ/CcWr76/KY0jtnrKfn2atrgIs8/mwenOxfoPPTj+DZCa7sIElWDCfbVX9oWYfMyIaG2F1RN7C7DprBtr38nEeKVW4ucL3nEFnb7G/3cny0u9oUewVaSmZ6PndAvzVz+az3uxwJWLjNm3UH2BJbO7nbj4RQpmTFXe8y9iZtOxxsGYa+9Y9Wvh83ZqeUNM8qkUq52Y8I/SET7R1HQG87aem6L2LNQ+eizVDzp/1OR8+/VP4lQ2t6hpRDPrck9DDQZmu7HUlYWqs42s1evMhjuRk67WX6y50az/Vom9D1q07dmum63MZ8ywOh8wmxNZ8XWTWGOIrs5zPM1qEGZjfQavq0iclYc1dz/DrBez8Na2/Sze9eNxlkdSx5lEGityM1oX0cHTV39XJ/xTXJisjqNDgLkMLOYa3Xit5OcA0jjTnXha7RvjsrDrX7dgtjjx5tUWEibxVAf3eiIam7NQn1jqo5po1uTuPffkh7TGLypD6+VaHPoDm6BeqcHKeelYXMmUpByPDZacmKIDP1YUiaHog/hDMxM2eNDa2Kj9+ySLmasx0XzGCPEl9ws+ORPezlpWBCo4HuGFqPgycHIr5pdex4yP/4buKx3sz4eP3MpBCQfS8r3obPXi0+wU3Gwow2KW1DfVat91Yo9kTHslBdUNnei55EO/uCiZkI65WV6cu3QL7Zd9rNidKgevuyzZggWCczqZsb8Noth4xw2Jfkxi4ndYVdGN8zh5khVDpdnBYJLsKmBFRS+qWTEULaZ+IQbXSfk4qpNFa+NOLLRjrCa0Vy7H62fGYsPhBsVmPFilHLt/cGDazFy0n2cJv+08qmdmYlpCCjJ+ewvHGnpxtaMRj8+eOkwvymeaFPV4D3QZO/bkeO9ioCJDsX+ZuSypn0HzjQacPelGzswk6YwwbtTi3ZzP0Dd9J3ydol13oPFDTTDkMsGdjTRfLc792Im6o/1Y+muXHMdGPAGbiyae3kfco/HFP0ZHmbPudmL30hU4lSheT7bp7sPLlYPWSWDF9JAShUxM+xTNuGOUlVgbxFpP2a41n8jC5xdb4DtQgJlPduOL38+H83f70S4Z2vBg31Za0fNsCc5v9+PdrV70SHFbhpcvrOQTO0jv7W/zofn7TpzzZmLuS2OQymL6wIkG9FzrQP1js5Bm8zvB6BmK2jve2Kjl7eL4BR5HgvV6m11lWGu6ONQPIrbqn+R05Ezx4mJbL+rPXkeOO0W6sWPBF8yGb3Sg3ZeFF50W2xsJuT8efbCZS0bGfGaYfX20ExuOtaCzeidee3YAF8uWwDlvK06r3+WtI25ys6Kv/+qILoZYIPW/KSugHBlElWvimJ/5tcXQw6tPouljvNbXhhJri67/T/lXohftlwLG9TSezwJON2kXffwdragbnYwJ4iiv+bC7rAbtGIsJ7OSl2yrgYwJoLjnB9sWDMUj670msTx2G3zZL2OxD4j+5AM1dZkawtp514Op/dMH/2BgkBP4SxL9ILh3NZ4xIwpSZQEvHdTj07UjfNBjrxR4WdKvj6uUa+OfmssQd+NXDQeA/lf8yBlgSKK1kxdToJKTOzMaGnR4cfc+B6iPy3VzRMuGFWXi8oQaVJ7uR85L4FeEYVjC5Ue37HBe/cOPFqUp//nEyMlhR3vbjIyGZKXJziN+e844bEP2YetHDRDvtyQiLNjp6Tnpw2rkRJ3TBpLEsGz17vdKdAMYoCyBGcPwi8ekUOK604KpfJQuOPLTI9l7foX2R9UCTB6WeVuav4h0A3ch4bSWmPaHYPyuU4k3i5KkY3+BDi/pb2bvdaG4AMp7myX8sUv9HEuoviP1VweRSDzcmPCFvOpwuLPC1ovLEYWTMTJfuaEh9KRv9Zz2oPt+N2S9o7/AIMnEqFuBvaNa4mZ/FMx8ck562lyiYrzGPC+Lv6mR9TMSjzPxj1+VIk+MQxUATGYo40pmf4DAOFtXg+NwszDG6e1mkuwXHb7+MZTls4qLId9CubT85i018fDhVsh/VyMPCWCcrQ+BbpvKKIp7qic3mAtjPZZaIw/hk7m2Mjjpn9XegqduNnGUujA+UK5rakEeEGBBn7MnEQp+iGbfVz+h8sufrVja5elSKGbHVU3ZrzV7U7S7D8StMfslOLMjdgn2nyrCwaSeOWXqSxqqPmdi6hmhtxYU5LyVhfPYW/OnOVrztEW9LFOHlC95xBSN9TUkyvhvXMRUvZvnQvLcGVdPdmCaeNInZRL8PVUd9uDrXhVT5TC6xxsHYa+9YY6i1z1uu5e3yRDKmwof2b5RtC0Rd04VhrfbREHP9EE39k4y02YmoP3EAp7qykTGJ7UpIx8zpXpzb24BqtwtphoZuQNxyYwzEo/6wlUviMJ+Jw3xgSObZhnVeEh4Pu2P0Fpqry1DpY3H0yRRkZOdj1+HD2DzaiyMXIi36xm8eyNOXYRy1w7inkcryQc8Pt5QdCv4uaV3s6bGihngysJhrNNjLz5IcGjrRpRbjQCuqyjxoZkGIV1vYhXe9cPj1if0+2q15hgdLi65VZWWov3YLAzeYc1RtR3GrG0szxa9oxyBj2Wo4yjai8GwvO34L/W1eFJbUIGNrLtLEoDQuAYMnC1BY1ogednzgRi9LPi2AMykYQByPsqLhUgva2XF7jxbIpC5cjYyTW7G+qhP9Sh9K96ruQ7bQBzXjn03HeF8XrnL6krZ4CzIubcdbqnbrSrKxeE/kO2ij+Uw4YzH7zeVwVG5BoVce88CPnah6x431J0WnZnpZlIs+lV56LpSh2CN/2hgHHmXJv/n/dmJgQOyJBd3qSExyAp4KVLVdl2VcxmTOisKu63KoTxjnQHv5dvy5OtTn+sZuFpgiFK0GOEazMy91ovlHla1McmF2twdVl17GNKUOEr+hzdh/AJWsyJ0WWBgRH7tY9Qgq/7gd1VIfxTF58NaMApwWu8g7ztBfP+ox+bvR3pCCGf9f5fGyH32orKxlyULe1MJs5ItWpC3KRKo6mLC/xJniIpAXpy4ZfHDcZDz/RCMq9/lkW7vWiNKPDysHGTy/eDYbf5rZiMK3A/7P7OhsCeYv2WP52zXJ3r8oQWFNtyJPL4r/uBPtrCBIYDY2/kkH6vZWoE5sn8muekuR9FhJX58uqcVCCis8Zvrw7nsetDO9SeMs34LS28uxdq7q8b4IpC5ch4zzofgiybHwM/hX5WFhwLYS2ATL7UWVx4UZLyhJIoVNsLqYDV7Kxowp8q4wEtxYtuYRlP5huywDMcZ6WYw96cafXre5ytawHW8HdHnNh+IiDx5flYsM0RDjoMuRJcehiIEMMxmKjHJi4ZuJOF5Ti9mZ0yP7+NgkpOEwypWxitd+u7hRDIboU07hMxZzmM/X1dQAi0OvFYmGCc+yGdiR/UpsFm1MLAqVg7FgJi8L8ZRLjDYnYy2X2a5D4jG+YYjRvJwV+lJMx2NJGD+a5SlWW4l9EWW4aZv4yPx19FtcGUvNXI40s1rNANt6sSkTbp8sjDusLrEqq/1F2KTEL9F2CktakbE2W1qMi7WesldrJiLhTi3WF6pkxianzXBivCU3szIX4Ni6jmhsJcioJOT8qQgJpetQ3CSOlpcveMcVjpSh9EJgfIq+Xp8V4Y7HMUh7yY1qjwfT3PKinfjYesbiblbrNSqLihaJMQ7GXnvbnw9osfh5q7W8XcQ6axVUdZboTyWoUg4bEm1NZ4Cl2kdNzPVDdPVP6gsv4yqz13rxCwFJJ6ydTDez1wNInekynC8bEo/cqMNw7mdGPPpgK5dYmc/o59k64jAfiMc8O4yG/dgdiIvBOi8L08LWspgMHulktl0SknlnAy52OzB+nOJDTI8JaET7ZXb8trgj+nlgWG3A09ekTKxy1obiqHitsv2ok1oT8aP9izJUNUW6rhM5W92o27I6mAcGrrWismAdqsbl481Z4hh5MrCYazTYzM+SHNhce1sNrirtV3+4BcWdCRjPjIBXW9iGcz0jePUJv4/hvhSf9bWhxdKia878p3Fq0zy4XG4s3gtsqN6JHCVROJz5OFqdi5sV2XC6XHD/3gvHm158nq18++pwYkPVfsy4VoT57LjTlY3ygVwcrcwNvgsvdeFG5Pg/Y8c34vRPyk47jMvGrup1wN5cqY9Z5V2YMN2lHGRY6IMG8dvoJw7jnPjqPjOeyMbn1UVI69yIWWK7M3JxcFQ+Pl2VEvn29Wg+Y4Dj+QIcOpiNwSPL2ZhZOwuL0OT6DB/Mkj3Q4d6CM5+ko/29WWy8L+Pt2iQsW2FW5KUgZ3M2/GVMjwW10jdiXN3qGP/aZzj0JlD+O7c0rr1/n48dK8Rvhfplgx+Xxca+Go/+dTXcYp/nrMa55DKc2Wz9sdmEmSuweeoJvOV2o/yyslN6/xLrb/b00MLEY+mY4Wa2NT9dpWMH0jYcwKHFflS/wfrI+pD5QSte/Gyr8t4R3nGD60c5Jv8lH6qd2chQHi/zf9uA8nKf9puiAG3/hspWJxa+ZCB3ZttzsoGq6lqDO0JSsOp/bURSbT6mi/pb7cGjr7PiTznK9Qtx4vKJFzumdmL9QvE48/9q5v87VyPVqsIke18BxyHZToM2tEi0UwembfDio/QOrM+Ubbj9hQJsZnqLOvgbMhYLdp/A58k+rJwjj7PwynTsqypAWsRvFlUwHe87VoYJFxQd5xTh6j9X4NAGp0rHY5E2nfmXUzUxYHY5bS47Y5Hb5F2czObWHsbRZQMozxH7lomVRx1YVV3GYpByilXc67As0Yu3xTFmbkR7egn+JdDHeOhyhMkx/jGQYSZDhdTp2cw/5MdFI/JkLj4/mBfMSYurfoEN25cD3/ej30b2l97bDKY7USYxkDBrHfO5AZS+KsbmV1F42Y1VLDbHjKm8+PGUT4w2p2All9mvQ+IxvmGI0ZycdbOrFruvDGhsXsLhwmZWu0y7vFHqa+YHnUgr2Mj62oW+SHMFPcm52Kep1a5jzjKWwEywrRe7MuH1ycK4w+oCq7JasQJzusqQNcMF1+8qgLUe7JJyYxzqKVu1ppiHmC1P/x6FUh5yYX7FAJZW78HSJ5VTOPB9jGPreqKwFQ1s/H/amoSqP7CJKiuOuPmCc1wiOwsTawuQaaAvI6T3ZLKJ8YwXQuekpr/MpJ3N9hkZYyRiz72x1t5WYqgZlj5vuZa3ixir92FXoNacU4AjidOxUDlqTLQ1nQGWah8Vcagfoqp/pqQjh/VI/YVAwgtu5qMpWJhuTc8y8ciNWsJiLJc49MFWLrEynwmfZ2sR43CM84E4+HoY6dl48UYFXjepiwMkLirDibUJqP59piRz9+99mPDJCfzpJeXsBDfefM+JY2vccO0VF1minweG1QY8fY1KxtJKDzagAovdLIbnlKE/M5fZfIB+tP/rAVS1RL7u+Gw2vu1OXC2S45gzZwuantiKM//KrqHELJ4MLOUaDTbzsyKHVQ4PXme5SrSBascKnPhEfsyeW1vYhXM9Qzj1Cb+PBr4Up/W1oeTvxF/TUv5vQCuKJ+UChzuw+Xll10hF/JYjkKQZV6uyMevCCjRWRPcuh4GTBXCdcqOxLCv6b4cIwpDrqF6VifZlDfiTe6SEAoIgrDBQkw/n2Sy0fpI59LmhbQ+m/0/gL+dYQafsIoihw4+6bVNRPukMjubamWQTxINNc8lkLIYH3QU2n0AhRga6OSL8PhQ+m4+E6pYH4x3jBDEE9Hvz4DqZicbK7KjWUgiCCHFPfkhryOnej/nztmoeISgu7caChdOjDhIJc7di16girPda/YVkgrBGj3cLqibtx2ZacCWI+wc/yy3dNSgt92FptntoF1zv+qXHlnaXVyDxzXm04ErcG/p9+KJjOTYvogVXgiAeFG6hrtCFxZrHTktQlZyHOc8qpxAEQRDEEPJgLLomr8C+rUk494d5yq3cNRi/1Ysdc00e/+QyBrN3evHapX8z+ZEigrDJQC2qWrLxl0iPFREEMSLpr9kI16sl6FnswebAo1JDRWsZnJmrcW5cCT59jRbAiHtEYiZ2Vdt7dQNBEMTIZgwyCg4g50YZFouPv7qyUfzjfByqCj0STBAEQRBDCef1AgRBEARBEARBEARBEARBEIQdHow7XQmCIAiCIAiCIAiCIAiCIEYItOhKEARBEARBEARBEARBEAQRR2jRlSAIgiAIgiAIgiAIgiAIIo7QoitBEARBEARBEARBEARBEEQcoUVXgiAIgiAIgiAIgiAIgiCIOEKLrgRBEARBEARBEARBEARBEHHE0qKrv20/VrqnInlSHqp/VHY+6DSVsPGWoFnZJAJcR/WqyVjpva5sEwRBEARB3GOoTiOImOg5uR2LXZM1fvRQzvmIuNLvzUPyKi/6lW2CIKKhFcWTJqO4Sdkc0dD6EA/+oqu/EcW/+wx404PGxp1YmKjsH2H4r9Sg6mQ3/Mp2fPHjao0Hp7uHpvXhJUaH7m9ElacVA8pmrFCiHqmY28nQ+t/wMjxju58S7UiE5GeJu9dR7/Gg+YayHRO9qMqZjJSixgcyDoxMyM5DjOQ6zULffvRiZYyLXFQ/jUyGTS86mwqrZa558HZ+A1I/PIPWxnykifvukzkfEU5zyWQkl7QqWyOJ+zs2x8N/KTbfH0h6YjWV0V9c6qwY83y856Mjb+7+YNe0/EXXzgZU387GspwUJD42Bo5Ryv4RRo+vAoVl59GjbMc3wH2PuvLtKD37vbLN4+GZCA201qC4xIt6i6uulHgeTPT+9yBhd2z3wsbJjx4WhjiX/NyCYyU7UX3plrwdS0HY+W+ovOIAqryoi9e3cA87cViIu5cMb1wayXVaeN9iXyChBfeHiXj4Vtg8qcWH5im5WDozCQmPsdgtMlLmfPdZ7CPMsBmb76nuKTYTenKxr7ERrbq/DU7l8DBidz7Ks+UHee4+EuEvut71w49HkKDk45HKhFU16D61AhOU7fiSjFWnOnBmVbKyTQRIyCxCZ2sRZicoO4iHkqH1v+HlQR4b8ZCTkImPWlvwUeYYZUf0tJ/1oi93IzY7a/CFT1nEJYh7xkiu06iGJIafsFrmLvv7pQOPylsy98mcj7ifoNhM3E+w+PfYmLC/kXDTYbznozS/vbeYLrpK36wuOcD+dwCLJ6lWy+/eQrt3OxZL7/yZjBR3HnY3KO9waNuD6ZMKcFp9p0u3B/Mn5eO48gjjQKsH63NcymdzUehV39ps8A2R7lsvaeX+Qy9Ob8lGirI/9C2w/HnXez7AtxUudVt3e1FXkgeXk33e6cbibV5cva0cM8XgPRXXalC4xM2uz9pyZeGt3Y3oZwWM1I9Juahkp1QuYcdU30z31IRk5pyTH5LZQC02OadiU22EiSqTd7OnQHnvkguz1uxBvfrr7oFOVG/Llcc1aSpcebrj4iOku/MxS/q8wXGRn1pRmSePR9RJsc/iOzn071QT+1qputaS7ai+ImrXRC9hiI97BN4zxca70aPV04+N2L0mC05R9ux4mB4H2FgCxy3ouf/CHrw1R7bHZJfeHrXItlfLxqjYkXj9Ep+k+wCm7Sm2XFkT8gFnznac/p7Zh/huLck+RLmVoE6jQ44N6LDSh6oLzIaDfliAKklPCre7JZuSZCh9vsX0FRJhd2FE8A9DzOKJQkTfEYlocwpqv48gO/8Vr6q/WnmFjS2iv5nFHo7+LMvbYnyzYCPcuKGBH5f5ejCTgdJ+NYuFC5mew+7o8aNu22RM39OpbDM6xVwTyiuG53DimnkuCodvJ/txvHKFpMeArNTXMLLdSLZvlkt4bZrqQUNIr1Jsc29FHXzY5Gb/t3Onx91WHNsLrP11Lua85sbpL87o9KclzKcYYd/I82LINR+KVbpV68KoRjCivyEUJ8PiDsc/eLlAHqMH9cFcxtp4R5fLTHzWlj7M7NzExuzWa2G2FsQ4Ll2tykbyO7WhWMZqnfWTZmF3m7LN0J9j1ydDDHGdpsFuPFL1TYqbk7FYunguu47WPv1dobzsnKPLywpm/Reva1o/2ayDebnXLHcH/FB9vZWVnfDf7gzVaEwv6z06HZv4th6eH4qY1UOyn7K4rcpNi7fVoofJ6XTA/0U56dq0P58YkGUVvIbqfH0uFQnW1iY5X08/q42DcmO68PVq5KaOu6Lc1G2KtikdjzDns527zT7DqUEtxT5TmSnw5gJmOlTar6zZj9fFMQT6YKe2ZQxljjHkbn/ofAO7jegLN2rwlhibVSENfh8K1fHats0HsB6bI+recl0zVLGZE1cV7lls5snDkm3Zj83W6gERJS7UhmoT0d4s1yaMqGOzjfwRFbw1CAtrLlbyvBHqGC4RKcaZ2nIIbXsWdMYwjWlqrMRoK3Nfjj6t1WwKpn7BGT/re4omjjA9XtjO9rF4FclP9Qg8Lu0Qnpq4Q2hSNkW+O7REeGp2kXDu2wFhcHBQ+O7LIiFz4hLh4Lfi0S7h4CspQv6/D0jninxz8FXhqbfPCDfZ/wdbdrFz5wnvf9kj3PxpQOi7fEhY8ZxTWHG0Rz5ZaBH+PDFF+PMlZVPkh6PCiomrhSM/yJtNO1JYn34l5O09L1z8qkX4blAQ+o6uFp5646jQJ58Sti0IA8Kpt51C5gfnhe/YdW/+1CUc2zRPeEbpVxiacfcLR95IYX3sl7aEwQbhfbHPBzuEPrGtb88L789OEbIPRR7D4FdFwjPPrRYOXu6Xxq2R2Z0e4dzefcK5XvlcPW0VrJ+rDwltP4j97heaKpYIz8yuENruiEd7hIO/SZHHdXNQGPyZtfXBPOGp3xwSvpM+PcjkxT7/213CRaavmz8px2fvEpqY3AJ9fWr2FuGI1Ld+oW0fk91zRcJF6bgenSx09qG2Damtg6vZuENthetFi3R8olPI3tUg6+nbM8L7GSrZqmX/MxtvX4dwcLVTeOaDBjZSEZU8xM//oD+uRa0X0ZYD9vj+V4aDD9neIVn3fZf3Mdt0Cu+eke2d255kyykhfSr9e4qdk7XpqGbfM5tCtmluA1os92HBDkVPPcKpwkymt33CN9IJg8K5QtanoB57hIu72PX0fqlCo1euf2gxjyfa8YT5DsPc5vqFY6Isg7IL2D+z2Z+ljwtCL5PHc/OEd48GdKrEpL/KNq61WZ6/Gdu4uf5ilLeEhXFq4I9DCz8u83zfXAZKHPrVOmHvlw3CxZaeMH+9+e8bhadeOaTYqJJX2GeCueYOa+O5TKH8srjBj2v8XKTDip2wWJBVfJTlpQbhm5/Yzo4KIVNlu32XKoRs1kZ5h/QRru0byt1Gm0Z60KJrX6dTq0g+mqHo8qcTQp5mDOEY+YgUW3e0yBu8GPLTGSGfjTmgu5tfnxDene0M2oJRjaBnkOWuzOeWCB9/Jbchy36e8HGLeDLfP3i5IGQPSi5Sclnm3i7puCWf5eqDb+fmNmZer/FsTU+YXtnn3RPZtQM+d75I8ll3RaABuZ7IO6HkT7s+eS/rNB324pGubwyNvYsE8rKqVpPyso2YHLC5iPWTzTrYTu41il+yj4T0KR9nNv+rcL/b+7X8GZ5v6+H5Ia8eCsgsYCfycaaH514Ni/WBNu3KMVwvsi0G61IjP9fV1mG+pecO82UWs4LxhNWRR1ifnlK1q2/DsE3ddUWiyd2mnwnYesQalMGLfVyZ8eYCHB2q+niE5fOLXzPd26xthzrH6An4W8hu5fMDtm7uC2Idqo7NbI8Yr8W8Lm1FYfNB27IZmw10a6euiXdsDvdffVzVM/Sx2VweVm3LZmy2VQ+E4oJ8fqA22SKcUgbEyx8BmdmKzTbzhx75mtr4p0Ftu4ZrEJw1l0BciTLPa/2KF+PCbVmPtj2+zsxjms6XuDHawtyXo087NRvfLzjjv9MhlDOfDdSrIk07WP8LzwflzSOqRVfhZzZwzUReaxSSIwUDhTzI98+LXRKDCgvqOg8d/HILGxS7hiqBq4OVXnGSEekGqTWc8G198S/BJtG5rN1jwZNUaMatM6S+E6w/r4YCEePm1ywpMyXJzYePoe+vrD+vsIJCGqPIgPANS+RtP3BUdZMZHLvWwcA8TeROA2vfyYxc3hxkhjYYbJeh7rtBX8WEU/7KEmGvanFC1o+CJG+WkAwDqU4WOvto2sUMcJNKN4M9QpO4AKE4bJhedEjHVclSRNJ3wJ7uDEqOpR6vPmh8zILyu1+GxjPY2yJcrO8yTFzCILNl5nwhwhOwmnDbk236mV0BZXDak2S7XDiiXmCXZKjdJxU7z7EgLW5YsAENlvqga0/yD8UXJJsJFCQBDPxShUYHXP/QwYknPN8xtTlpXOuEY+ICWAA2Odn7SkgeYZ9n9J3YKGQVnpHGo7dZU39jhNk4T3+xylvEwjj18MahxaA/+rhspgeuDRvEIT3S9TYqyV9cLHpVKC9nfhLwx65DQpYuj0SOa1ZykRZLdqKJXfI1sjSDFoSLxap4wbH98G1+m7wYrEXXvk6n1lAma0FZDgjH1oX3UU2Y/TI0xSEnhrRVsCJVVwN8d2S58NTqE1KbRjWCFnHBk/Vxn7aPTRWvCtn75HHw/IOXC8LtQem30kdLPsvVB8/OGTHWa6b2qyNMr4HJrdQX2U7eL68QsgJyGWST7eD47PukVif3uE6zFY/C6wqNvYtI7elipDS+wDX0GPTfwOak6wT0a7MO5sqDY1vStYsb5A0JWQ7affLCf+DLK55v6+H5Ia8ekmS29Khmwiu1qdkn226wTbtyNLiGqNtnAro18nNdvAnzLT0tu1h7uniia1ffhmGbuutGlbt5nzGydUmmKvkZyUQNV2acuQBPh0Z9tFXbDn2O0RN+vmzrwYVUji9ICxjBRdZB4eIHzlD8j8bmg7ali388ORro1lZdI30+frFZGssrJnE1jKGPzTx5WLItW7HZbj0QKS6o5q28uZ8oM5ux2W7+0CNdk/Uh7C9gD7w1CAPb1qy5GMUVSTfW8rzmWrwYx9Dbsh59e+Y648U0nS/xYrQkK/O5L0+fdtfWzP2Cb7NSfwLykupb1Q1tFuC/09UIhx/t4u3eyu28gVvpA4x/KQtpNbXyjytd8+HYlVzMcYkvCOpCUw0w+/kU6bwAjslOZNzuxlXd7demjE6AnVcO9X/dgh54sPJZsb/K34ytqGfHBs0e1TAiMRNr1wClWeIjM9tR6W1EX6IL06aMjdinxFl5WHP3M8x6MQtvbduP6gv9eDzdhdRxnFF0d+A0OlE4R9XvlBVM3n74lX477nSgalPgdmn2Jz0epPBdB+rArvO0si0yyok1/+rBqinKNsPxD/p+9OKm1dulVaQtLsLss3lwunOx/kMPjn8DpLJxTrDzzlf9O6ZEBgbk28lHOeDoP4/SdYFb+5VHpII4kbMtE6fy0uFaUoBiTw2uIgXT0pNh2AXHI+jzlYUet5nkxiZ1c0ZobG8MEscB/sC97pbaY58OezeMdp/jHx4BbiuNWrABDZb6kAjHaOW/Io+NhWgiki9INuNG6kTpiH3s+gcnnvB8x8zm+juY36e7MfUx6VSZUclISwfqunrZxnVcvezHtKnJmr4lZpXgBLMjox/uNfU3I3j6i1XeDP44w7E9Dg6mvm/RhsPjkIpxUzFjSg0utjK/uNaAYzdmIWOpCws8PtSzXeKPgrQvSkeqxo/07QXimt1cZNFONLGrC21ngfairNCY2d/r+9Xxwtz2w+G3GZcYbIcbtTjiSULOzIAsxyAjMxPt+2rRbhSfrGAaQ66jq4XZtCdPfvxH+Zu+pRG4ExAsw7RG6JXkOC1F+x63tNVeHF0hj8OSf5jlAhFdLnt8LLue0sdofDYSpvk7hnqNa788RqXgxUW9OHWpm32oFee+yMKLS92Yc8OLerYLbQ2onuJGGpNbXOtDkaGu06KIR3x0eVliwF4tZlI/2a2DufKwEr9YzRaGZh/zoV+yf6TrW/RtPbHWZKzc+oXy3yCafQ4kML0E2oxqPqG/xhNPY5pd3ZrQ39UJ/xQXJqvjSTyIJndb+oxJDRoXzOcC1nSo66OtmHKPcoweg7zXc1P5AMcXHC9kIofF5jrxqXsWr095U5Djlvs/3HNoW3XNUMRms3mpVeIYm3nysGRbtmJzdPWAJi4kJOJxdQywkj9sxeYo80cYBj+ktVb5FS3eGoSlNZc45HkJm+sdFomsM35MswV37svXp921NSt+YWazqZnLkeqrxTnxlQmdjSzPZWPOC8bXMiKqRdf2yuV4/cxYbDjcgO4rHeyPGZNyTOLJWSxQ1+DkhVvov8SCW3Ym0qz3aWgQBTYpH0f1jtS4EwuNVlZMcSAt34vOVi8+zU7BzYYyLHZlYVOtyXskRjux4VgLOqt34rVnB3CxbAmc87bitME7NjRIL7XPwq5z+n4rv6R3txO7l67AqURxbKIu2N/h5fJnh4MnsvD5xRb4DhRg5pPd+OL38+H83X6024l3ZrAJ/rs5n6Fv+k74OuXxNn7oVg7KjF9UhtbLtTj0BzfGX6nBynnpWCy+q0Y5rmbg5FbML72OGR//TbFlHz7SNmeLeLcnwbMBHfHpwyNw/L3yX9vY8w9uPOH5zlDbnJpo/M2S/mKRdxQMRdww04NNGzYmGdNeSUF1Qyd6WF7p/y1L1gnpmJvlxblLt9B+2YcFrqkRi/bhwM+KqAWfnAkbc6CA49q+Abw276k/MAYu1LLCoxelC0NFkfOdWuB7ZfIWFeYxZPAOMGGDJ1wGn2SFFsBjYaTl1RiIpV7j2hoXB6bNzEX7eTahbDuP6pmZmJaQgozf3sKxhl5c7WjE47OnDtGPOAx1nXb/xSPbdTBHHtHELx7x9u2hqcnYX1zmEywoK5O5uPBfHfG3t2hyd1zyfeyYzgWi0mEUMSUSw5BjuL7gcGFhbj+qfSxxi/F6UhYynlSODfcc2lZd8xDEZtN6e2hsK/Z6QMvIzR8GP6QVWCS1sAZxL7Gz3jEyMZ/7cvVpp2aLh18ku5Hj9OHUhetovyD+eHAWptkIJFEsurIL/Uc3Ml5biWlPKFdiCVbLWMxZlInjjSdw6mQjcmY6leD2NJ7PAk43aWdi/o5W1I1OxgS1R/w/5d84kfh0ChxXWnDVr3OkBPu/SDfAEkVpJQvko5OQOjMbG3Z6cPQ9B6qPnFe9MFvNLTRXl6HSdx2OJ9mEIzsfuw4fxubRXhxhijPlHycjA61o+1EXBAL97u9AUzczgmUujA8oXi076fONuHpN2ZboxemyMpzW7IsHvajbXYbjV5i8k51YkLsF+06VYWHTThxT/XBGTHS34Pjtl7EsJwUJit4G1fZ3zYfdZTVoZzY4gRnb0m0V8DHnbC45wfaFc/VyDfxzc5EzJfDr3YPAfyr/jYJ4tyfBswEdMfdh4lQswN/QHOWCiT3/4MUTnu+Y21zi5KkY3+BDi+rF17jbjeYGIOPpJLbB7ORZB+o7dC+Lb/Kg1NMa/kJvnr8ZwdNfjPIW4Y9TRzTjEIl4Dsf3bdpwJCa8MAuPN9Sg8mQ3cl4Sv1kdg2kz3WyS8DkufuHGi1Ot/gq/jVwkYdNOJJIwZSbQ0sFsVzdmuYCzkkv18Nq8BzFYQy+OHaxF2nteXVHkw+fZvSj/a2Pk4o/FJBaZDDGPIbIurv5HF/x6GVj+yW1ZjvXfiLdbhuipLUNpbW/0/mED2z4bFbHUazxbs4bD6cICXysqTxxGxsx06Q6M1Jey0X/Wg+rz3Zj9QuAOCbs+ac69qNPiF4/uDfbqYJ48oolfPOLh21qGoiaLaj6hi3f+rk7Us2njo0ETYbKLYQHWMJ7Eg2hyd5zyPR8TmXHmAtHo0F5MGf4co8eKL6T9Oo8F4QZUfXkYqYvcGK/sH945tP265sGOzRx5DIltxaceCHF/5I8weGsQUuy7R2suNtc7YocT0wwxidHcuS9PnzZrtrj4RZL0Y8F1J0uw9/+IPx5s7wuHKBZdx2D8kw7U7a1A3bVbGPixE9VbiqRbwvv6Qr++n/BSJmZ7tqPw0hIsTA+Mbgwylq2Go2wjCs/2YuDGLfS3eVFYUoOMrblIkwxYLryrDnjQ/qPSftl+1Emft45jNCvtL3WimbUh3Rb8bDb+NLMRhW+XoV7sN7t2z9kSzF+yx/YdQAnjHGgv344/V3ein7Uj9rG+sZspPUm5pduBR58Amv9vJwYGxMaZzB7pRGlhCarbrsvj7mzAxW4Hxo8TA7+JQ4qPYax6BJV/3B76bJsHb80owGkxOz2WhPGjfajc60OPIs9N28Tbpa+jX1wJkD7vR/Ef90iyGLjRi/qyAqw/yQ5Jj/TFk0Qk3KnF+kKVjFkR2Awnxo+VzwjTi13GJiENh1FeJcu+50IZ3i5uBLquo088Pi4BgycLUFjWKMlDGu+FFsCZZPgtV2IScxhPBaok2cqyKWST3q7rxqmfR7zbk+DZgI6Y+5DgxqLcfpT+Ybvs41IbJahSDvPg+4caXjzh+Q7H5lJYQTfTh3ffU+KJOJbyLSi9vRxr58pGmbZ4CzK+KEFhTbfcPvOh4j/uRDsrCMP6y/M3RpiN8/QXhbzDrmFhnBosjEMLLy5z9GDThiMyyYXZ3R5UXXoZ05S1GjHXZOw/gMpJbkyzHNOs5CIttuxEYixmv7kcjsotKPSGfKHqHTeLv2JBYCWX6nMJr01+DDaF2VUCKxjbLzMdKY86+TtrIi8si4+jtzqxcCYrQNVF0WNjkZGVC3hr0WyQX+UFgv2oVGQvxvFij3KQwYshki4ubcdbqjhfV5KNxXusfsMvy9FfugW7m2R7lHLJxlrWOZYpbPtHFFjxWQN92COWeo1na+EY5veEqXjR7UWVx4UZLygT3RRW+HYxn72UjRnBR+7s+6QZ8a/TDIghHjkeTWKyakE7u05UtVBY/y1gqw7mycOabdkldt/WMiQ1WTTziYbteDswJhY3i4s8eHxVLjJEYxw3Gc8/0YjKfXK8GbjWiNKPD8ufU+DWzpMyscpZG4onoj6imDuFEU3ujke+58U+nsx4c4EodGivth0BOUaHJV8QY/ONnSisdCFnpurLv3s5hw7TfRR1zQMdmznyGBLbsl8PmDNM+eNHJpfKWlw1Vct/SjLV/0m2wFuDkGLfPVpzsbDeEbstq+HEND28GG1h7muuT5s1W5z8InFmFmb7anAc2chQYotVolh0dWDaBi8+Su/A+kwXnAuL0P5CATa7dYH7selYxCbp49+crymWHc58HK3Oxc2KbDhdLrh/74XjTS8+zw4E9zGYvaEMOT+VYb7bBVcOa9+9wvYt5wkzV2Dz1BN4y+1G+WW2Y1QScj7xYsfUTqxfyPrtcmNxNbBh52qk2v0CZFwWPq9ejUf/uhpuNgbnnNU4l1yGM5tdTDoiKcjZnA1/GRtjQa30zV3iojKcWJuA6t9nKuP2YcInJ/Cnl8RPXEfT7j1gNmyAA2kbDuDQYj+q33BLn838oBUvfrYVs0Ubd7iwuboI0y5vxHTpWCfSCjYiA13ok9qTP7/vnzuwSRp3NgqvTMe+qvwheOUDu9Za1tfp36MwR7yWC/MrBrC0eg+WKo+ohOnFLk/m4vODecDeXLhEHVb9Ahu2Lwe+70e/GEQdTmyo2o8Z14owX9QNG2/5QC6OVuYGv7FVM/61z3DoTaD8d0y2M3Kx9+/zsWMF0PNDf1QFfrzbk+HYgI7Y++Bgk9wT2BXw8TkFOJWUq3kHsClc/1DDjyfmvsOzubFYsPsEPk/2YeUc2R5k+y9AWuDb2SeyWX9XwHFoObMpVUxaZFDNcf3NyMZ5+rMv7/BrWBinGgvj0MKLyzw92LPhiEjviGStZU8PvY/rsXTMYPaSOj/d0Mcjwc9FOuzYiYLj+QIcOpiNwSPyZ0T7bnJ9hg9miZ+xkkvDcwmvTV4MNoUVQW++58SxNW649rZKu/oue1F5sEUuKHW01xxAs1P1CKIK6f1w8OBgrUEBnbIcfylIwql3ZrE+vow3PAlYlq96RIsXQyRdFCGtcyNmicdZnDs4Kh+frkqRj1tAkmPFdLT9cZ4sp6JuzKg4gA1O1oJt/4gGCz5roA97xFivmdpaOMb5fSzSprPK1Kma6DI/njaXyXmRW1OH2PZJM+JepxkQQzxKXbgROf7PWJ2yEad/UnbaIrz/XGzWwbzca8m27BIH31YzJDVZNPMJ9zosS/TibdHXMzeiPb0E/7IhcFd5Clb9r41Iqs2X4o17tQePvr6OxZsQxr6lYlQyllZ6sAEVWCzl6DL0Z+ayGBwr0eTuOOR7buzjyIw3F4hGh7ZqW9aFYc8xWiz5AotpGb9l8XZuFuaoF4nu5Rw6TPdR1DUPdGzmyGOIbMtuPWDO8OQP/7cNKC/3ocs0+HuwUvys7q9UNEXeGoSoGxb77smai4X1jthtWYtpTAuDl9cszH05+rRVs8XLL1i9PHcui6eL3Tbf2Q/8nfhrWsr/ieHiRg3ectVghq8COfH+JoQgCIIgCIIgCIIgCIIgCPuI74Z9OR/4yxmsGfo7XYl403+pEf35eVhIC64EQRAEQRAEQRAEQRAEMez4b/SiubIM5YnLscDmgqsI3elKEARBEARBEARBEARBEAQRpBXFk3JR7czFjk+3YPYTym4b0KIrQRAEQRAEQRAEQRAEQRBEHKHXCxAEQRAEQRAEQRAEQRAEQcQRWnQlCIIgCIIgCIIgCIIgCIKII7ToShAEQRAEQRAEQRAEQRAEEUdo0ZUgCIIgCIIgCIIgCIIgCCKO0KIrQRAEQRAEQRAEQRAEQRBEHKFFV4IgCIIgCIIgCIIgCIIgiDhCi64EQRAEQRAEQRAEQRAEQRBxhBZdedzuRGWeGymTJmOl97qykyAIgiAIgiAIgiAIgiAIwpiRuej6oxcrJ+Wh+kdle9jwo740F6XIw1FfI3ZljVX2E8NNvzcPyau86Fe2CYIgCIIgCIIgCIIgCGKkQHe6mtKJi14/cnKzkTpuDBIcym6CIAiCIAiCIAiCIAiCIIgI0KIrB/9twPEPtNpKEARBEARBEARBEARBEIQ1OIuurSieNBnFta3B95omu3JR7Au927S5hO0raVW2RK6jelXo/afyY+D7cdxTgMUudu4kFxZvq0XP3V6c3pYLl5Ptc7qxuMSH/rvSR4IMdHhRmONin5kMZ852VF/xK0cYd2+hWdXmrDV7UB981lzpd3UtNi2cGvkxdNaHupI8uQ/6NqRXHOSikv23col4vATN8hENvPGL9NRsx2I364c4jjn52N2gfTfsQKsH6wPj1B2X2v//s/cvsFGdaZ4//l0xm2oxiyNGOGIVezIxl4kx2ZSdbBdOdguD2kAGc0nK7TROEwFNhNNhMQmNQ9IQk5gmjYnTOGsmRngB4aFY/HNNB+wZLu6AKQVsa/BFgy//ENsKsaMgGwVRKMg1Czr/99yqzjl1qs45VeUL5PlIBT7X932f97m977l95MHZ7S4mf+mVC3zbqwqxSGh7OhyrNLLRcqMF+9/MgZ3vP0H+HvTelbbx+Fj/ytv5vtBuVyDXJyA3tv+6qh74+Xffyudw5GCzux+qGl33YrekQ6nOfBR7gtuj1xEfujxMtoFjNPWORkcsyIIgCIIgCIIgCIIgCIIg9DB1p2vV9sOwbfxntLR4UVeQgKpN5TjrkzaawfspPr+/Fp+daUHLPxci4fNCLHq2EBee3oH6C2zdPxUgwV2IsvN3pAN4vCg7OIgle/+CjpZz2Pd0M7bl7UWTNFPXVbUKr3rt+OBkC9v+L/jjf7uIdasPoEsxKVdVVo+ZhZU4ttGBBGldkJs49eYyvNHvxCFWr44WD96bXodXV5eijZ9km+7CoWturGd/rj/ejf5rRcgQjrOG/9IuLNo+iBX/2MDKaEFdUSJOvrYJ1delHXoOIHeNF8++/y/C9oY/zMGFgjXY3yNt5zlcis//rhCHDhcgcyowcGIDcmsT8V4NX+8GHPqHQRQrZKPC34LiJQVonbcXDR3t6Ll0BCtu7MKyshZp0nMQ1evzUTO9CHWs/I4zBzTbdTh8GBee244G1ncXP1mEwdJ82BeU4HZ+JbzsHBc/mofunayN16T9bzVg84pS+PPcTIdYf1flw3/QhXdOK/o7Gh1hx1QMZuNPfP817EVa8w5Vva3rSBSyIAiCIAiCIAiCIAiCIAgNpiZdV+8txeq505AwdRrSXC4sv1uPzn5poxnmbccHq1OROHUKEufmY2M+4P9v+XjTJa9z4bWVfpzs7pMO4HHgg48LkfnEFFZuErLe24X1cOMEP+nma8DBMhveK8oX37XK6pWxvhCr+ytx5qp0OIOv9/qFDmTakxDygoAeD8rOO7HnI/kcfBmf4r3JR1BxWn0naiz4hgfhT2F1SOXlNwXJCwvxj4cLkWHjp/Hu4OzBcti2FEnyZbJ4dgO2vNKPinOKu2fz92LfeicyX7AjmTVkeLgHSGfLgmxYn+Rtx7H92UjUmxn8Kzu2XPDis3wm68k22BJTsSTbAf/1QYjz5jcxdA3IeMGBZFZ+wvRU5O04jEPZieEnGtfuwAcLk6T2FGC90w//ykJseUFel8/a04/L3aIcu2r24tTKIrwnHZMwOwdvrrPj1MmLwTuQo9ERdsyfCqV6P+HEB39YA1R70Mg3LCodiUIWBEEQBEEQBEEQBEEQBKHB1KSr6p2mCYl4DH74Na8CiMgjwM+kPwOo1tmQMBnwq2a2WJmTpD95JiVh5nOA7y7bqb8bZ9GD4iX8Y+PSL3UtqjT1ivQu1uHudgzMcyJ9qrSCZ1IKMuYBjX2D0orYSVxUgDfvf4pFz+fgjZ2HUXNpGI/NcyBtOl+3PnSeB7pKcoLtYL9XD2tkMTlBNWmckVuCxecLYHfmY/NHbpz6Gkhj55wZejsva5MNtuGLKNskv15gDhzveqWNPHbk7czGmYJ5cKwqwm53PXqRisx5KTp3B0uwc4agWsfq+zfsP6EvbqKvncnTXSC+nkL6zd/eAtxTNDIaHdEe8/gMZMKH2/ydylHpSBSyIAiCIAiCIAiCIAiCIAgND9yHtPz3R4D7fviRg30X+MfG1b8tdmnHicJkO7acbEdPzV688rQPl8tXwb50B87y72Zl8B/qWv7JuZB2dGyM0JDHc/DZ5XZ4jxRh4RP9+Py3y2D/9WF0qSatJW414J28TzE0fy+8PfxrErrR8pFT2iiSvLIcHVcbcOx3TiRfq8e6pfOQy7+nVdoeKyP3gJlb3KFt/CQHidI+8YPVmp9UjVJHRlsWBEEQBEEQBEEQBEEQxMNPfCZd74/GlJQ0eSbj70PXFSBxyqPA385BFjrQeeMR8XF1+ZcwBTbl3bERSJyTjuRmL9pvSSt47vejrRnImpEkrTBJ2PbfQVtNOaq8N2F7IhVZrkLsO34c70324MQl/tH7JMxdCLR3s+2advB3deoziMb95Th1jbUhxY7l+dtx6Ew5VrTuxclOaRcl/e04dfcXeC0vFQmSbEaU9b3uxf7yenRhGmY+m4PVOyvh/SQHbaV1bF08YOd92obef+uDX9vGBJ07Zq3wH6wt0p88/r4eNCERj05hC9HoyKjLgiAIgiAIgiAIgiAIgvgpEPOk68ync4ATh1HdeRO+WzfR5eEnGaWNMdGC4t+Vo+n6HXbeQTSWlqB66hq8tnAKkJiNjesfQdXvd6FGKPcOhjvdeGNBEc4GXhJqQKoLWxZ68c67bnTdEMtoqtiOsrtrsPHFadJOxkRu/xQkP9KDsuLSYD17mnG534bk6fzM4DQsfn0NbFXbUezpwTDb7rvRg+q3ndgc9r2yiUi414DNxbJs7mCg2Ys22JGsV+1pScjAcVRUi+cfuFSOt3a3AH03McRvn56AkdNFKC5vwQBfPi+HS+2APSlud6Fm5G5H1pVdeENRRmOpC7kHYryDtHkX3pLPed2L3SVuPLY+H1n8uwCi0RFDWdxEY9VhnO0fjYsMBEEQBEEQBEEQBEEQxMNCzJOuCYs24bOVPpS97IR9wcsovurE+rXSxphwYsuriTix9RewOxZh89V52HekCBnCzZE2ZGw5gmO5ftT8hpXrcCD7ww48/+kOLDY9UzgNy/fX4bMUL9YtcbBzuFB8bT4OVbMywt5lGopR+xNXlqNuYwJqfpst1NP5Wy9mflKHD14Q7/K0PVuEY0ddGDmxBg623b6iBK2OT/HhonATv6ztG1nb53+H4jy+3g4sq/Rhdc0BrH5C2kXJE/n47GgBcDCfnd+J3OqfYcuuNcB3wxjm5w5tdmypPowF10uwjC+fyaHCl4/aqnwki2eIncdd+KymBBk9W7GIL2NBPo5OKsSf1qeq3lVrGecmvJbowVt8/2VvRde8UvzTFrt0zih0xEgW/j5cPvgpLvT9h7A7QRAEQRAEQRAEQRAEQejxnziG9DdBEARBEARBEARBEARBEAQRIw/ch7QIgiAIgiAIgiAIgiAIgiAmMjTpShAEQRAEQRAEQRAEQRAEEUdo0pUgCIIgCIIgCIIgCIIgCCKO0KQrQRAEQRAEQRAEQRAEQRBEHKFJV4IgCIIgCIIgCIIgCIIgiDhCk64EQRAEQRAEQRAEQRAEQRBxhCZdCYIgCIIgCIIgCIIgCIIg4ghNuhIEQRAEQRAEQRAEQRAEQcQRmnQlCIIgCIIgCIIgCIIgCIKIIzTpShAEQRAEQRAEQRAEQRAEEUdo0pUgCIIgCIIgCIIgCIIgCCKO0KQrQRAEQRAEQRAEQRAEQRBEHKFJV4IgCIIgCIIgCIIgCIIgiDhCk64EQRAEQRAEQRAEQRAEQRBxhCZdCYIgCIIgCIIgCIIgCIIg4ghNuhIEQRAEQRAEQRAEQRAEQcQRmnQlCIIgCIIgCIIgCIIgCIKIIzTpShAEQRAEQRAEQRAEQRAEEUdo0pUgCIIgCIIgCIIgCIIgCCKO0KQrQRAEQRAEQRAEQRAEQRBEHKFJV4IgCIIgCIIgCIIgCIIgiDhCk64EQRAEQRAEQRAEQRAEQRBxhCZdCYIgCIIgCIIgCIIgCIIg4ghNuhIEQRAEQRAEQRAEQRAEQcQRmnQlCIIgCIIgCIIgCIIgCIKIIzTpShBxYOD0LuQ65iBldinapHUTBV/HAWxz90tLBBEjPYexuaoHfmkx7tztQVWBE6mz52Cd56a0kiAIgiAIgiAIYnzxdx7GOmc6G/cXoOaGtJIgImAw6dqB3WEGvm2lc5Cy3oNhaZmwhv9aPapP94/exIUGob9KO6SlCcZwC6rdHfBJiw8c1914q7AZaR+dQ0dLITKk1RMBf0c5crfdRt7KFGkNMSpY1eEHWedT8/HaD9vxhmdQWhFP/Ggqy0cZClDrbcG+nGnS+vFAjH+7W6VFYswZ9hSwhJa/mBX6i0u/3PBg3UOWMAsye8Byswmdn5jFsi750Vvvxtn+scoCo8g7H/TczCRjrn8Pnd8RY6Wen46XL3oofISKsbd/JWM9BtXlIYy/44/VvJXy3Kjwt2D3rz8FXnejpWUvViRK6wnTPIi5aqzQna7jxIC3EsXlFzEgLT+4CUXsDtvXUY/dpR40PaCZ/XC7F21z87F6YRISptqktWri3b+mnNX9HlRt+xes+LgIGZOldcSoYFWHJ5bOW7VhGzI2FiK5pAjVcb+BugeXPX7k5buQNn0KEvTNaWIwAQcM453EjE75+TjU0oIOzW+LXdo8xox3rH74Jh+s8yDKINQ2vkNjxS6Unf9OWh59tHmnkb1O/NyMJgx44u53o4xtmTs8IX6645McjMt8xHjHZ8Pyx97+lZjxBaMTz4nxZCz6dLz1ZkzK72lGzV0XXstLReLUKbBNktYTRARo0nWcmLm+Hv1n1mKmtPxTJiG7BD0dJVicIK140LjPfn9jw6Pi0oTBd7oSZQlrsHyutIIYNazq8AOv85OdWL3Fj93HWuJ+p4T/LmD764k820qMLY8ggSW12h8lucSDTQrWn+nGufVj9xSK1bzzgY9TxJhim5wY6qsn9JXT8WTs7V8JjUEJIgbu+9nYh+Wm5N4IC8Rv0vV6PYpXie/hS3Hk4I39LRjmJ6NkrnuxW3pPX6ozH8We4GMNwl0LH3lwdruLbQ9eGRyo34Vc4X0Zc2BfUoj9zRHe73f/Jpr2F2KR8F7NdDgKDqBJeZnjRgv2v5kDO1+/2Q7k7vSglw3uRaSr5Q0dgXcJpjjysdurX15vtQspbzcEH7nyNWDz7EXY3yktM5T76LUvcCVGuBo6B7lVbMeqfFY3xZXR+4NoLC2Aw86Otzs1dQ7FUF73h9FWpThfqTdsH4X2oSSjmgZsW8HKYHX///FtmJ0Poeqr2DG6V5aCx8n6keosUNettZSdR/Eu1Pt30OYukt6R6sCiNzV9adTXRscb6aoGX4cbm/Mc7Fz6uut41wt4d8DBtoe8iiOa/mXrawrSkbrTGyjH31yK+fyx34nyVJapf5fHHTSdb0BmrhPJ0hoBizrFGh+wCbHf6ln5ijZEQrrSX32JyTsgvyJUX1NM00XoK6t2JpyrSqEXq3ahRllWJJRy0dGZgA3vzA/Ibp1SbzQ6LO7fELQ33uco7U2r84xIemZKlpEI0++CHwpjw/5rHoWdaOrDmPmCCzOrG9AUpgrh/LqynSo/JbRRUReFfMIew9Arx3LZPHf7UcP6V4gRQnvbwz5WK5zfuQON8GKbk/0t33Wn0mcTOsj27/IE/XaIb2SYi4N6fsGPxp1zMP9Aj7QPo+cA8yOFOHVLWmY9qtrHyHeG3R7BL1n0t5aJGNsZRvGC4e8L2pV9SRi70vXlYyjjSLEkBP7RVfk94+wcW91qmRjJjPf78najOGFCh9WwuvH7S3Xjz90WkJVEuPpFkoHF2DZ86QDeWCL2uda/ifmZG00BGTK9eVsjw2FWR2Vs9A4GjlcTzjZuomZ9MGcQyzyMU4q+z93ZgAHWLmXcCcnbLLQ7eAeQyTxCLzczG2OlmFVVfzggZ3ueZn+Vroc5Xxj/ESl2RfTzZvRPw9jpioSvR4hFYu6g77NEIvRjBL0YYHVOte9Co1zHuy3YvYDpYs1g+NgWKyb8hFHOYTiGkdBtQ78by2YX4WwgqN/B2beZX96v8N3afSKMW3nC6Zk5Gartn8fsmDeuY1BdHYpOr2Sbt5qn+rpZv8tyVPiItlImi8J6RR7mR1MJW8fqpXtGo7imRKqrKoZq/Z1RHDQhC97/vcr7hTB2FMm3mJKn6bzVwOf/oBzrhc5/RPapMnplTJA81EpOw1C2V2v7gu2sOsL+OoJc/nzhfOQE0kfR3ll+UbVWOF433jMi+mADH24qFobgE88p9aWVNj2QcBFp5/4wK5VbWzssLQdp3ZPKPfmbWm6IXxhp5t5/xs6tPdrNDf3g425/c5F7f3Eq5zo2IOzL/XCOK3xmKff+FwPcbX77V3XcO4vtXOG/+oTNwrlm/ZwrOHiRu/xlO/ftCDvllyXcU89s4I5eHRaO+faLEi571iru6DfCIRpG2DmWck/9ah93+Rt2/h8GuAsfLuWeXLyPa2XnUtXvxxFuZKibO7rBzj31YTM7kkds55M/3ySVN8x1HtrAPfnMdu7MbWEHNd2VnHNWCXdBPJgbuVjC6p/KOSu7xRXcMHfiN6lcQV349g3VsvPL8pP32dMuLfH4uDNv2bnsDy9y3/Iy+6GPO7mNtfGtc5xelYzkJdZhKfdOrdhHQ1cPcWtn2bn3v5Qa8X0dt1anD7NZnbQyOvhFM3e5fUC1/g9XhAUdpOMWM3lJfXN53yruKWVfXtnD6raHa5UWOytZOzcc4zq/5/cf5lor2f6LK7nOe/xWg75mRDzeSFc1jLTvY3IM6u7Q1WOinGqD+2v7Ug/L/Sv0RzaTK2vUvW6ugtVx7QkLZd5r1ukXazrF3evjjv4yNSjL77u5E2z/J2dt4E58L+0Tie9rmY6x45fvCfT9meJs1leHuK+lXSL2lUU7+/bYKoWeMRs+uoHZRAl3WTo+PMPcSd4fBOoh6xTTyR/FPWT7kfXg2y/3ca5nFHqj0eGAzR9T29s758S6avc31DMTsgyPUb/r2PAgK4/57KC/kOrzZ0UsEHTMzn2sVGsFARko/B7fp9kKPzV0pZLJcSlXIXepXl0MjtErx3rZI9yFYrtCf2Q/FcG3CX2itAXmm/bxeqPVQbbPoLSLBqXOjoyMhPhta3Ew1C/c/tet3JMvHQvoyNdHX2ZySQ3EXu4ekzfzMxVXxcXIvtd4e4hfsuhvtQjnU9hJCIax3SBeyHal2C7Y1S+Pcd8Kx4ci6JbCl4+1jLXlaxFlZudc+5pFe//mHPd+lkLmhjIbEPx+wF8wv6/ersZIh7XwfvwpHV8aaJNh/fRkEH2+xNdZ9m9yPiTLMGe3dD5JhtkH+4Tt0cTGENuQ4pecX8tlyrYi1omV8czLIX44EEcstltbh9A6adDEKUsxVrYtrYwC+5vwl4b+w3q8MNQ/DWOvKwr7u830/0fJZ0XwSaH9aKQXYs7jZG3mW8H7HP74byUfExrbjBD7QW+sKGPoJwxyDjGmRxjDaAlpA8ujWb+8f1Haf4TpEqvzk1nMt4prRDluqhNlZDBuNcxlDGWotn9LsZ6VHe8xqJ4vsKxXss2bzVPl/bXxWfYRV/l2buJO/iDuLsZSRR8qMRE3VOj1j8rfGcVB87I48SUbM38l++wgRr7FWJ7W89bQPhVt98nF27kTgu7J8x8Kv26k6xq0ZYx7HmoxpzEz7tfGxhAmmD4KMhHiVC3zAc3c17JNKTHwwUY+PFiGVAdtLNQg7x/MVcX4btrGHkDiM+k6VMeU5WXu4FfCJoHbXzEnwzsS9ndnJXMSxRdVivbtiTXckxvqhOOFc2m2D/2ZdcZLzLHISQAT/tdMUTq/V+4loVM+b8QVL63iDvJGfG9EMJyRwLmkzg4YpdhOlSO/zQIuUwbdCQXZQQQG6+zYikouR3YqQjAPGo9u+zROQdhHmfRpgqoAM4h8dt6TQU8SwEheoXUQg7IcpIU+kpMNma8OcTmBdujISEBcH3ZiQt7eJC0KiM4j56hkiErHIsj9ZU7eJKCc3DHq6yiOV+qqGt7gmYw0kWXki+0sILH6hnXwoUTTv3yf8oHkxCHm6H7JdCus/uqg58At6pS4vyLh4dE7bziEfTV9IZxTKs+or6za2T6WfGxT6PjIANfKBxcj76zXTjZQOvhS0PcJ/be7WfhbRghAcl00ATjU3kRdemqfpAOq/U3omZEsI2HY76E2HCJLxlDdVi6n+JxC59hgkpeRciJWQTgZBOxe4vJuhVxC6mJ8TGg5UZQt+IVg0idi4Nu0tiDos/YcTG+3sTLCDOi5H1kiIU3si6jLtBQHGSF+QajjVuniId9fL3MVFWyAJsum7xiXI+uYkT0abWeElG/J34YinI/JI+Qny9MothvFCz27EmxTllkogm4p+3OMZRxSvgah/YoBDo9wjJyomsiHPmYD23e+CPbQyGA7d7mpTz/RNdBhNfxkT6ivU7XJsH46MjD0cRpGWJ1vK3fWmQDVyFDIkaSclWODsqcsxkZtG3TLXF2rmlgT2qlaJ8bBgL+02G5tHULrpEEb16zEWEEea9QXnISBqJRHmvGXhv7DarwwoX9axkFXRjT6r+0HLSH9aEYvhAv7S7mK2kOcix84K0VmUL9QxH4I9dWKcxj4CaOcQ+gjVUxXj2FC0GlD6x57YH9horK4ksUC2d+KtiX3a+Rxq4lcxlCGGj2yEutHYQyq5wss65XQZk38Eo4J44eF/TU+QmibPCEnTpTLMuLtIOxFHhNxQ4Ve/6jszCAORiMLLQa+xVCeUeStoTIR91eN7YVyZf0yk7erCSlDON845qFGfalCbK/RuN/IJ080fRTK1sQpLYbjPqPxik4ZqlioQdhfk/MINi7ripGNPYDE5/UCidnY+CZQlsPf5r0LVZ4WDCU6kDl3Gmy4ib72QcBdIN6uLP3mb28B7ilukZ+cwPYNkrioAG/e/xSLns/BGzsPo+bSMB6b50DadJ0XaHzbjUawbTOkZZ5Jdrz5z26s599nOckG2/BFlG2Sb/OWbj/XoHqPYEIiHoMffr3HICel4vmVgzhzpR/wd+DC5zl4frUTS2550MR/WKazGTVznciYLu4uoGmfEcNftWMAbqx7OiizlAU70MS2jejUyZS8dOowcJvvg5vo+rdBZL5gh+rVXbPTkQkvehXveY/6XYv/WfpfIAlpzwFd3+s8BNHfjbPoQfESRbtT16JK7gujvjY6PqKuaulDaz2w+NlUaVnENseOrLv96NV93MscZvo3cdl2fPB3ldj2EfDBH/MxM8Z3GFrVKWH/x+dgxlRpRVQkwqb8iNfUaeC7TijPqK8s2llGbgkWny+A3ZmPzR+5ceprII3ZwEyD99ENd7N2znMiXdnOSSnImAc09im+0M/8iJLkv7ezOgyGeZSHobK3KUhk9fQrXF4Qs3oWQZYRsNrvvD/ovepHZnqK2ifnlKJuZ7bioxisfX/D/otUvkoGfeg8z+y+JCdYD/Z79XA4ufCYPEbPv1opW/ArTqTNEveOiq/bcQq/QIaqG23M1znhv9an8+oVhs2PLv4xKelxHflxWRlLcVCP6elYMLcelztYI6834+StRcha7cByt1d4LQT/EcCulfOQxvsWI3s02q6HJX8bDp0PaW2UvqJlFNuN4oWAxq4EfLht9hGm8ZaxHnrvGPf52FkYhvmQHXnMzs8UzINjVRF2u+vRi1RkzktR5wcyBjqsZlCww6ynI7zH0GS+psSyj7M9giFvefCxztlObNMWoZHhY9NYnaWcdbivB/65DsyJKTbq8AjwM+nPAKp1NiQwXZV9n3XfHhvWYyyzcmXeYpsh5H4Dw3fM+UvL/sMoXpjQPy3joCu2e92o3ia/XoD9hEdZzWNKL6bn4IMdSah4dy+wYxdWx+HVoqEf0lJ81TuinzCZc4Qdw5gjbZ4LA2fbmT/zo+2iB8sd+chafIfFVZZQ3u/B5c9TsSB9GtvTaNwaTS4TGUuxfgzGoHqY8zdW81RWK6WPmJSEmcxH+O7ygkzF4nWpaDx9UfAHXc1/AVzZyNBrSBRxIzKR42BUstBixrdEkmc88laJ0LH9oJQDxUHXxz1HspLTxGncPxH1MeK3Z0z4YDO5XoRYqIs253l8BjKl/Hus85uxILZJ16RESWFtyCj0oKfDgz+5UnG7uRy5jhxsaxDf9TByD5i5xa0JxuwX6auWk+3YcrIdPTV78crTPlwuXwX70h04G/YdZhG41YB38j7F0Py98PZ0o/9aN1o+ckobo8GGzIX56LrIFKLzImoWZiMzIRVZv7qDk82D6O1uwWOL02N7QTmvULMLUauVmTKJURJPeY0nwsupc7DvgrbdJr9WbXh8ZF0dM0z173/A/wPvrHwY8pmNbhGwqFM2G7PuqVNUDjiumOgrS3b2eA4+u9wO75EiLHyiH5//dhnsvz6MrjiI7oHGqi8xzQivouqE2QD+I1nLPzmnqQf7yZNoOkRzjB7G53kEtr+S/hwjuqrW4NVz07DleLMQl/qvubFe2iYQs19PQeZLqahp7sHAFS+Gf8US9IR5eDHHgwtX7qDrqpcNPNNFGzeyx6h8czz8rc6HtORBSNxjezSMt4wtYkJmySvL0XG1Acd+50TytXqsWzoPuVU9rG6hGOqwDrZHIkSVaPrUoo/znd6BZWU3seDjv0h19uKPVtXmv7BBlfTnuDFqvj0MYx5jrfsPM/Eiov5pGHNdud+D/avX4kwi36+i/vcfXyNtNIlJvfDfFS/E+H6QLsjEiN6HtOQPHkbjJ+KNzeHE6k4v2r7rwQVPNl58YQrSnC746poxcL0bTVMXIUOafDYat8YrLwlgKdaPwRhUjzH0N/77LL9kzGT9k+FtwIUbPWisHcbqf3Do29Io5AIR42AcZBEX3zIGeWvsuj7+OZKVnCYuPID6aMTY+XDWIr49Y+hvxgqDSdckzF0I9N3QTu0PousKU4D/migYiY8lRGVVzJAmJyFtoQtb9rpR+64NNSf4q1PTMPNpG3r/rQ9+ZTBO4H/h0pA7aKspR5X3JmxPsEDiKsS+48fx3mQPTlzSSbb+dg6y0ILe69KywCDOlpfjLL+uvx2n7v4Cr+WlIkFKAEaY4caCze7Acm8HquqOI2vhPGHyOe0FF4bPu1FzsR+Ln1NfJbFK4oxU2K61o9evkJkkt9CvNluUVwjTkPbfk9B0qUN91x4rvwlOzHxcWo6F/yf9LyDqT9p/Db3GJPZlBzpvaAbacruN+trg+Mi6qmUGns0BzrYqXgDO8Hd3oHFyCmbGYPRm+rfXvR3F2I5DHyWhalsl2qyobGISS7jUdylb0ykg4e9mILmzBd0GH5mIGqO+Zpi3s0E07i/HqWusnSl2LM9ncjtTjhWte3FS8XEBPRLnpCO52Yt2ZTvv96OtGciakSStYGh8xsBXHcDcJJ0rpVYZPT3jsdrvvD/gfXZTt+ajEa1ulLkVPuL+d+httiHt7/g7Q8wgxpP2buanNPUITKKFEM0xehicZ1Y6luMvaFN3gTV0z+Fnvs4L2+wZOhcY+ScM+pH1yjpkPi7FQpWOxerXRWY+twiPNdej6nQ/8l7g7WUKG7A5UeP9DJc/d+L59CnijqZ8b2R71WLN30aBUWw3ihdxYjxlbBkjmV33Yn95Pbp4P8Ac0+qdlfB+koO20jq2TouRDmvR93UqosjXrPq43qv18L+Yj7y5Ur/IF5BMohszxgHrvj0WoomxrN/4gZOMv08cOyQyuZvwl9b9h1G8MKF/GsZcV4a70drvRN5rDiTLQyRV/myMKb3od2NbCfBBVQmSDm9HBX8X2qhh5CdM5hyxYkvH8zletB2sR/V8JzL55G02k/WwF9W1LF9+0YE0YUejcWu88hIZ67F+tMegeoyOv9H3EYlTpPvlnliEPKcXZ0oPowYFWBFuYi2qcb6mbCUGcTAesojVt8QlbzUkPro+rjmSpZwmTuOxB04fjXyw1VzPJEzfxcsrIv6+HjSx6P8oU4exzW/GBoNJ12lY/Poa2Mq3YpunB8O37sB3ox+nPirE7ms5eI8pE0/CdBu6KnbhDzXyPkxoLf0seIgTEhm525F1ZRfeKG/BAL/9Fv81MhdyD4S7yjAFyY/0oKy4FDWdN9n+dzDc04zL/TYkT5edkwL+EaT1fuz+/QG03RDP31RehM2n2Sb+8YppScjAcVRUi/UbuFSOt3a3AH03MSSewToJLHg7Pah2O7DgOalOqSx49x1B1RUXFgQeXTSH7dEk4Eo7ulj9hFvkn3bhg4UtKH6rHE3X+Taxep8vxbJVB3TuKrAoLx3SVmxC1sUd2CzJyHe9hZ3vU/jXsyCnfEQlBBsefRxo+/ce+CLcjVnNBrliO5jhVu/C7g4nVmfrPM8k9OUjqPr9rmBbOt14Y0ERzvJZtlFfGxxvpKtqpiDrtQ2C/hefH5TO5UFxaT2yduQjw4LRW+7f7zzYXeLDlg/ykbWyCO8lHMC2yo6Avdgms9pe6RFkoPtIxaQ5QuDoUj4eb6hTN9FYdRhn+6VSUl1409mAd951o4uXNZNVTflhNIpbGWyA9Hk5qlvvSMsWMeprHtN2loiEew3YXKxoGxvotMGOZGFOMMJEC2vnloXeYDt5narYjrK7a7DxRcWE4olylF2S9cDN9KADWa8uisPdBPHQswjtM+z3UBsWfPbnpSiu7w/UZ/fv96KLDX4DdnK9jwVHFzRP4URAiidV21EciCc9qH7byew33CRiNMfoYXCeBCdW5g+j7He70CjIiPcrpaiWjtaF2WACWtB1lenuXbbMzvHam48ozsF8nYf5utNOfPCq3kiB+e0nbGg8WCnuz9vX9hLhcZ2hId6mrPt1Xb8w24HFbIBdfeUXyJT6KuGFbGQdZjbEBpyZsn835Xsj26u2fEN/e8OLqqoGllQJh4fhP4SytD+hfUax3SheREGIL+cZSxnrlW8FI5lNT8DI6SIUK/K1pkvtgD1J58KBkQ5rYb5uZT6GFL6OL3+3W9rMYyJfiy1fYmJOYvborkS1IGNRJ4qb+SLkwGPA7Gyst0eKjaEYxuxosNhuLdbqZBRj9WhBVYUnEFcbS0tQPXUNVjjYoM2EvzTO17SxyyhemNA/DWOuK1OTkDyZ+cWDXsH++Ni7bSf/eoGbGA4z+xjSj0Z6cX8QNbt3wbdlB1Y7XXhvSwL2Ky/ss/OpYpvJXM9/d1goS/UT+sXYT5jKOawQ0gaeKch4wYkatxuZTnGikn9UPyu3n8WhFmkySCTyuNVEXqJbfjiiGMPFewyq4wss61VUsPP9Tj5f0Ee8tlBu9zQsWZmNxvp6INcpPoKuh9Vx/nQ2Rnqc+adDop0JY96Pj0sbGUZxMA6yiNm3RJG3Wo9D1nNw3TLGMQ+1mtPEZdz/AOpjZB9sNdczSfMuvCW36boXu0vceGx9PrJYF46OvxlnpHe7RmSo6RBX+Kv/KXwR78ln/ifn+t0h7rLmJbYjX9Vy7yv2WbvnYvBLmIyRr+q4P2zQ367/EvsR7uvaEs71P+3CC9mf+p8buD98EeGLx/eGucsVm7jsn7Nzzfo5l/3bSlUdh5oqubXCuezczzewbXX8C4rlF/TqvXg68suoeYQv8P1S/UVR/kXt2heW67Uv5IXK35/j3lnO10/xguAf+7iTezZwP3+GbxNfb/4LhtK2ECLLK7QO4gu7Veu+uRjso58v5QoqmrmhQB+Gl8fQue1cDl9H3ZclSy/pPlYX0A++bgfbFV9y1L6Qmu/Lg1s5l9CXqdwzv9zKHVXub9DXRscb6aqW2+3HuMJf/lyS6yru/do+9YumI70cW8ZK/94bED8QsFvxlcPuSuFrioEXpo90cwfX8HUKvjxcy+26TaH1iqRTI83cH36u/DIy43Y7d1DSCUGnDu0RXmItvuyb1XO1PeyXCXVfDK5dZ9TXDLN2ptYLzbmEF61rXr6uhMn8QkAuoTol2M+Hx7iTxavEfXi9OdjO3Zb1RqPDejavWqfzEvaIemYkS6P2GfgSPRtW2ome3vMfEgv7JU6Gngx4hHgitfPJn6/iCo8p5BjGz0Q6xlDWCiKWzXSA799npG3v19ZxH78UKQaMcJ2H1gj7Bz4ocM/HtR6T9ZnJ+Vcl3ImvwkmIwfrlhKrMi9xBZvvBjxZYjIO6fkH6+I6qr0T/r/04ginfG2m7TvmR/O1I0x7umWe2h/1oleBb+eN0fnK/RI7tDJVf0Nh22I8XaNYp0fPlYylj3fKD6MUjwR4U6wxlNtTMVfx2qaiXTGau3x3jWsP0kbEOh/JtHdNpqT9cxbXcyX3Mxyvs1bB+seZLgk5I+/I6yXKdk7vZ31JM0ZNhyDpNbKz44hj3TiS9CbENzYd0TPQbT4hvs9DukDKM8gi93CxcjNUi2NYa7uCfD3EFi0Wf+8wvS7iTyrqZ8JdG+Zpe7IocY4z1T8U46IrQZqn+vMxOfMF/qf/l8PFdrx8j6MW3J1j9svZwl+WPotzr5ioWp3LZgY/HaGObQa4nxW1B3tqfLAcTfiJSzhEa03XGMCp04jMP/9EexRe3BZieP6X0LxKRxq08kfUsTPkB1PbP728p1jPiOgbV0yGLemWYp2qRth2sC+a+IT6C54c6riDkg1GhGMYNDSNXmV1J8n5m8SZWD97OFP7OKA5alYUWA99iSp5W89aQPtXJuYUy1OuMfKoK3bgyvnmopZyGYTTu1xvDaZlI+qgXp/SIOO4z8OGmYqECcdsh7mQgB+DjcZ16PiaSjT2A/Cf+H2n+lSBGgQ7snp0PHO/Ge89Kq4ixgX832NJC4ONzeNPiVe8A/FVC5ZW9fjeWLfHi9UuVWG72MYuJAF/vl/vxXst2ZMqP7FmgrXQOcuFGf5HeHYsTgBjbZxk/s+slpUj+P+64fICDIAiCeIi44cE6ZwOWeCuRF+Vd5QRBEOg8gPn/C/jHCxuk1z8QBEE8eMT2IS2CICYuk1Lx5p9cOPm7UrQZPt6kRz+qXs5RvFqkB9Wle9Gb40LWgzThyj8ad74eSTvWjM2E5Jgz1u3zo628BL0bS2nClSAIgiAIgogv9/3wXe/A/opKJL6+lCZcCYJ4oKFJV4J4mEndgLqPH0VNveLdrqZJwfoDO5B8fiuyHQ7Yl2zAyenbUbcrO7p3bI0bNqStd+MzV5K0/LAxxu3rcePo3+x6iOVJEARBEARBjBsd5bBnb8CF6aX40yuUbxIE8WBDrxcgCIIgCIIgCIIgCIIgCIKII3SnK0EQBEEQBEEQBEEQBEEQRByhSVeCIAiCIAiCIAiCIAiCIIg4QpOuBEEQBEEQBEEQBEEQBEEQcYQmXQmCIAiCIAiCIAiCIAiCIOIITboSBEEQBEEQBEEQBEEQBEHEEZp0JQiCIAiCIAiCIAiCIAiCiCM06UoQBEEQBEEQBEEQBEEQBBFHHsJJ15uoWT8H6zw3pWWCIAiCICYcd3tQVeBE6myK2QQROx3YzWxpd6u0+JPip9v2YU8BUtZ7MCwtEwRBEAQxsRj9SdfhFlS7O+CTFh802krnIKW0Q1y4fxNNbjfabomL1vGjt96Ns/1+aXkMsFTn0UlaVTLUMNrJIiWjPA/JYOSGB+tmF6DmhrRsRMz2Skx0/NfqUX26n3lWwiwTxyf60VSWjzIUoNbbgn0506T1DymtpUhhfjj8rxRt0q7ERGEccrY4Qv7RHKMnpwdbf36STIgxK+nNTxqrY52fIAPufKTYd6GJTIR4gBj1SVdfRz12l3rQ9KDOuir5sR0nS/ei5sodaYUBIY7zOzRW7ELZ+e+k5THAap0faMZicnG8JzDHpvxIE+UTlZA6/6R0/6fJgLcSxeUXMSAt00WWB4keXPb4kZfvQtr0KUiwSasVjHt/xnPwYy9ER0uL9PPgg3lA5g6PYl0hMqRdx4oH0c+PLeOQs8URrX8k9Bk9OT3Y+hPKw5//hoxZdWLA6Melh01vxocHJb6NVz3HWz7Rl9+DUwd7YIMbJ84bj+8e3HZOXB7GNo0Foz7pmpBdgp6OEixOkFY8yCRk448d7fhj9hRphVVSsP5MN86tT5GWx4CY60wQDyik+w89M9fXo//MWsyUlokHC/9dwPbXOrOtDyOTbEiYOkX6JcL2CGv75ETFup+IHB4oxiFniyPkH80xenJ6sPXnp8jEGLOS3hBEWDq9qLm1Cu9tsePUmYsP7JPUxE8Pg0lXnauKmqt+wmz3Rw1oqyqAw87+nu1AbqkXw/fF7eIjdcrH5vzo9exCrkPcd9Gbh3Gqam1wxlzvzhLtOe7fQZu7SHGOA2jSu+QonGsR9ndKyzzX3cid7ULVNWlZhbpuuTs9mkeTQ+UxUM/2d6az/efAvqQQ+5vF99IJcnHuQCO82OZkfwvt07xvVmpr9aV6FOc5hHOkOotQfU1xv/z9QZzamQ8725biyEexx4sqdg65DnpXXNVXIDR15mVXVYhFQhvT4Vi1CzXK8nh+6Ai8Zy/VmY/dXvW79nwdbmyW6qtss4iRDPXwoUtzTC8bjMvymr+/R9hLZBDVeXOw7HC/tCwiyGF2PqrY31Wr2HlUMuEf1VHo3Fa3dH4JJuPGUkl/7U5F+Wp0y+h3Y9nsIpwNeP07OPu2ps7afa57sVsh32KP5rG2MNsjt1HB3X7UqHSmPSQoDV86gDeWiH0o7iPVQdDJOcgVCsln2xW2aFRvJUzPhD6VbCPVWaDSE1Fv3WgK9AvTxbc1/TLcgv2B8tjx3kH98sLWWa37YpnM3yh8R+7OBgyw/j/L5BXof6X/4onQ7t6qHKQsOYxeaVmFgQy0hF45DH0/dTh/IxPJNkVf7cHZ7S7WFo2PleFfybBf4R8KNL71BuuTN3NE3VLZKo8k74ag/+B1S+s/ZHqrXUh5uyGom74GbNb4a+U+evUX+5S3A7Fsx7tewLsDDr4eAZ9nzr5lwtoGj4HPbitlfVNYr7A3P5pK2DpWrxDdNfT/ofFGPkbuO1kmyvatq+qBn39XqtxPjhxsdmttNZzPlYgUY6U6VNUfxqv89nBXuxV2w9fhjf0tQbsSzqHwZSGP1uv3p1Wd4Ykcr8JvF2QbEsMZPqbfsmxN6JN5/GjcyWLHAUXs6DmA+bMLcSoQQzX7GOVC4bYL8g/n55k+rgrTbzoMNwftJcTH+XqEWCTmhqH+RNTfCPmjhnA+LGIfG/m0iDJU+OBb9XiD1zVlOuL3olipfxZ8TTRtCRyjiFfrIvRP0D9KGOlLJN2+dhiLZueEyZ0N/KaGQCxmuT9fluzj4tZ2NmZIVdkN66pLu9g6Zs86/REiJys2wMs0bE6tjuFR5SAKfyvL156nk7cLmM+ZZcz2m1B3bf4p67+iuK4Di9QxULuPkY3Ekv9azMd19VAx3hR0ThUD/r8IeUYk27KWG+nrjUG+rEC3XTwGOXyk/NKU/UWK+SZlEDHHNfJfMhHjW6Q66hCHnFfp11Ryj1RPhr8vmBval2jnBkzoW00Dtq1gstTail65346CLYfbbtBuI9r+tRJ4fRlWZ7uQdboeZ8Idq1vOBMmzNPiveRQxR2Ob7Pwxj6c1+DoOY51wPiknqmd+z0yuYKFNkWKLUZ0tjaUeJLiItHN/mJXK/eGKtMjzfS23dtYG7sT34mLrnlTuyVk/5wqOdXNDP/i4oauH2HY79845n7jDlT1s+x6uVVziRi6WcE/NWsq9/8UAd1vY/xi39hl2jj3t4g6a8wtoztFZuZR7asMxrvN7HzvHMNdauYp7anEl13mP3zrMnfhNKre2dpj97eNObkrlnBXd/AaBodoN3JMvHeO+lpaVaOv27Zf7OJeybhp5jHzJ9n9mA3f06rC4/xclXPasVdzRb8TtoW1R1o0hbE/lnlq+h7vwDd+WAe5McTb35OJDUv1GuAvFdrZcEth+eR9rq6IOQnt+U8sNiYsCQp+EqfO3x1YpzjfMdR7dwNpQwl0e4beK+z65eDt3QmgT236InT+wndFdyWUr2jx0pZLJaCkni9hYhmqE+jN9ce1r5r5l+9/+5iL3/mImkw+bWes57nbdJu7JLLlvGYLMXuaO9knLKkL1NfT857j3s1I517EBaQ8fd+YtO5f94UVx+w993MltTL/eOsfdlvZQoy2jm6tg53v/oiSgEVZ/XoZ8ncU1Yh021Ynn++EcV8jkJcvn9ld13DuL7Vzhv0r2YrRdp41qjHVGqbcjIyOSDdq597+UO1mrQwzDeqlR6hlfhtY25H7J2S3JXeqX7INSx97r447+kumBbOffd3MnWL88qfUNCkLqrJGVXObao7KvEn3PU8+8zL1Tq1yn8F8G7R65Wst9zI4NSi6IkQy0hNZf7S8M/Y2BbQZ89cGL3OUv27lvQyo9wvZhuv+rfdxlSXcufMhkvngf18rvO9LMvc9kI8jvxxFuZKibO7rBHrDVgP/4+SapDrL/2M6d0TMmVl/nLCYfqR6873iSHe+slP212P6COlHWevUX+lTh/7TLVu3b0DaMfPZVvk2buJM/CHszPWYyYToW8A9KDP2/jq1rYoooE4W/FXSC9cnPV3Eff6lct5Q7+JV4jGwH4XwuT8QYq6j3iS+buctf6fiA7+sEucm2JpeRzfQ7KAkjX6bTnxZ1xsgmDLdr5M1xA4JfCugT80tqGzCLJheQuP2vW1X5yddHXxbaF/Czgj5lcxVXxcXIuZDx9hCfo7RxRb8F46WaEZabZT8Tqmsft/PSUMjqNvMXP0r+5JfHuG/Fw4M2HS5/1KDrwyL2oYFPY5jPJ/nYqtQ1Sf8Csd6ar7HeFh17l/KrYP+obUprP5HbaqDbP7IYvK+W6/yRX1BjJqdQIvugnN21rO3N3Ne8v4xn2++JeVnADzBa97C8qPiirp2q5GTRBiLn1Go7l9ttKQeR/a3cb3IupMjLlfW3kjNb7bdQn83rfCqXEzg5y9te4vtpazDmMx/xVKA+BjYSc/5rLR/X1UPNeDM0Bmj0RSKybYn1Np0bhdGbsPmyBt12GeWyBvmlof0ZxnxjGRjVwSieaRHqrIxvpvISBXHIeUfa9wkxUZabbGNra4P+JLSeks0r4paQGypip1l9O/gFy9HaB3Tbpy43zrZsIh6GtNsMQp/IOZA4xxPON8toyxn3PEvLIOtvZpvaGLD2z6L9xzye1tJ3jHOp4lAt8wWsjqZzBeM2GcUWwzpbGUs9QMRn0lWVyIiG+9Q+qTNUAUzcppwE5VF1nk6AU53jNgsc2gTiXjOrp50l+vyCOlgJxvUMO1ZQFHGbvoEOcyc3GNRNI4+hPzOleYkNkCUl5Nv3NQtwnd9L0ghpi7pu4nZNW1ji6WTHnBSyJ76tQcMX0dRBJ/hHqnPrPpZ4blP018gA18oHZcELivuqlFqoI6uDIBatUxa5vFvubzMyVCPUf3VtIJAI8I5ddvSCDOzq9ioCj5pQfRX2VzhXHqE+suMX5B0cxAswB5gv90EIoWXwybw8EBMGYcWVXMVLcr+KAzW5zzsrWeDUJP7fnljDPbmhTuhDo+165asYYkmFgc5wI8zBsUFwEI1eMrR9ZlwvDT+yMlSDM3Ud9PpFKEM+H0tUnlI6XB4936AgVM90ytTomnCMap3YX7L/stxuJQYy0BJaf03iHdHfGNmmdH5NW1QIuvNyYHJOgAW6ipdWcQd5fbo3woIvC/qB8iWZBvyP2D6V/5DsV/TNGuTERjAdUe7vV1RyObJeCAOmSLFGW37osmX7NrINI58tDfoC+/O+THnRSonhuXT0RWMDgkx2N4sLAmJ91evE5FlO4PTsINTnRoixevXWINiNfKFJ5qtDXI6i7kb2wBPSn5Z0xsgmjG0m1Oe0cx+zxO+dL4IdOjLYzl1u6lO31ZBQnysglCcPcvh+e5mrqOBjiqT3LFnOkfMZo34y2s4I8Tk6PuD2V2zQxifO0nIQMd7nHFLLr7XyZc51SIqHGn+hzgf1bFrsk4D8NYTbP2wfGvk0Qxmp+0kYSAQmcEa4yx+yQYN8sEVfY7ktjFB7lwZksv5rbEplP4ZtjUG3TeQUSoR6BerME/+2Cz5IbrvgNwwmgeV9LdkAq1fEnFotBz3fK7QrQg4i+oQ13IlBcVFAmHgIxtrQfjaZM1vsNz2fLZxfzqd5//QSy395vyzVjZ/QeEr2MQY2YpxvhZavxUo+LtRdpYcMjY8KjQEaefOYsC2+3qZzIz290dRTlS9rCLt/BNkajWeN7M845hvLIGIdDGUcilBn7TjGMC9REHPOK/o17Zh45IvtinmJ0Hrq5liCXprM0fTqpYO2XKFtcbJlM/EwpN0mCFzolGQnXGTS2rAGffmOY56lISSGMIbqtnI5xedEPYt1PK1Bzw5Ueh2HNhnFFuM6WxhLPUDE552ukxMQfBvZFCROB/y69//2ofM8kJ6SJC1HQX83zqIHxUv425GlX+paVMEPv84jAgkLc7D67nGc4Z8MvNWMC147VrygV/6gULesp82/QydxUQHevP8pFj2fgzd2HkbNpWE8Ns+BtOlW3s2WCNtk6U+eqdMwg/03wrdFaKsdM/9W2BIXMnJLsPh8AezOfGz+yI1TXwNprM4zFe8vCn3H3iBuC7d8i/3XVZITlD37vXpY7m/rMhR4BPiZ9KfA4zOQCZ9YZoITK/P9qP6C78A7aPJ6kbHSiWRhR5P8jQ2PSn8G8PmEW9SHv2rHANxY97RCnxbsQBPbJvSBCdLmuTBwth297IxtFz1Y7shH1uI7TB/6gfs9uPx5Khak81/mvom+9kHAXSA+QiD95m9vAe7xtTHaboJvu9EIJ9JmSct62B7BkLc8eNv/bCe2eaVtukRRL5sfXfyjCdLjEPJjYSo0/fLYNKY30vmG+3rgn+vAnKnCYvzQ6hqPap0NCcweRX2OsT/MyMACkf2NkW1KqHy1BkF32Pl4ByQzyY43/9mN9XP5v22wDV9E2Sb5USvpMTsNKv+RkIjHwvhmTErF8ysHceYKsxN/By58noPnVzux5JYHTfyTkJ3NqJnrRAaLJwEi1V8Hy/ZtyjYi+GykYvG6VDSevig8ptPV/BfAlY2MsJWOdC6TsH4JQbWOyexv2H/Kc0byuaZirKbeKm6i698GkfmCnZWsYHY6K8OL3li+DWJJZ4xswqTNqLAjb2c2zhTMg2NVEXa765nfT0XmvBR1W6NlejoWzK3H5Q5WgevNOHlrEbJWO7Dc7RW+0jvc7kXXynlIm8T2Neoni7mSQGI2Nr4JlOXwj5PtQpWnBUOJDmTOnaZjd2K8z0xVx/uMDR7Urk0V/rbd60b1Nvn1Auy36oiwXoXp/FFCtb9BHxr5NIsysj2XjTyma438U4dM/854UpHnFNsfVS5hpS0yGntP/ns70/tBxWN4YTBsawy6bTmnYKjif/zbnpa9BmneBlzgH33saWFtd2HJc+rjdbFkA+ZyahWWchAZVjJv8zK2GUh7DhgY1vmIjJWcOZp+05CYzvLN+ha0sfoONNfDt9iJ1Y4cVJ9vYZp1k+XEPcibJ/qDyDYSh/yXYT4fl9AbH1jFpB8xnRvpESFf1kW1v7FsTY1nw9qf+ZgfSQYR6xBNPFMRRV7C2htbztuH1npg8bOi/svY5tiRdbcfvcpH1EPQy7Gs5GiaepkgfrYcZTw05A7OetxI/hWrp+QPE17IxuLOIzirfI2kEeOdZ6m4id6rfmSmp6jiS2JOKepYPE7kF2IcT6sRfUHynBnh43rMbWKYiS0R62x1LPVgMOof0tLj0b9mGUa03GedjhzsuyB/8Tf428L8fwg2B5ashpCA+Jq9OOtkidcT0jYdbI9Y6NHJdmw52Y6emr145WkfLpevgn3pDpy18G6SiNh+xpw3S8rjqWSP5+Czy+3wHinCwif68flvl8H+68Po0rNNHfgPnyz/5FyI7Ds2BoVvSYZhYRUSjNuGzOx8liycQ9utZpw/7UTewhgm7bXwZcwuRK22PS17sULwdsbYHCwwdXrR9l0PLniy8eILU5DG9MxX14yB691omroIGdK4dOQeMHOLW1MW+32SIzhXo+3meAS2v5L+1MF3egeWld3Ego//gv5r3eznxR+d0sYwWK1XV9UavHpuGrYcb5bKYINcaZtp/gtLeKQ/x4tY+iMuMlBi4G/M2GZM3GrAO3mfYmj+Xnh7+PZ0o+UjA8WJCLPthfnousiSs86LqFmYjcyEVGT96g5ONg+it7sFjy1Oj+3jJhbtOxrb0DKT2X6GMNjvQWPtMFb/g2Pc9dgcks+1GmPHFGs6Y2QT0dhM8spydFxtwLHfOZF8rR7rls5DLv8eXWl7bKQg86VU1DT3YOCKF8P84CJhHl7M8eDClTvouurFcke6qE9G/RRVP9qQUehBT4cHf3Kl4nZzOXLZoGtbg/oddaa434P9q9fiTCJvf6K/6D++RtoYP2Lye1Hkkyvyh1Hj7QF4/Zudgyw5n4xDLjGqPtxEW6PV7Xj4zbi3PYXlinYvzly6ia5LHgzl5yDTlCO2aAMx5tTxx3zOHI9+Q8o85M314HLnIJrO30SeM1WYCFn+OcuJb3Wjy5uD5+2S4A1sJB75r5V8PG5M6JgpYijb0R7PmiFSHcZDxnHPeePEaMkijrYcj3gYwq2LOH0aGChzBScDHUU4i0HUXFS8o9WQ8c6zrBHfsSQbV08GEiZHCIZxaNNPeywVHnOTrv9P+j9mZmDuQqDxKn9LSiTkCTcd/nYOstCBzhuPKL76y34JU2BTXgkOwBKQf1jFEhA33j9Tj8UrF4UJ3jPwbA5wttWs4d5BW005qrw3YXuCDfpchdh3/Djem+zBCZbkxYXHU5AOL7q+lpbD8R8soEp/RmYQjfvLceoakJhix/L87Th0phwrWvfipKmrRElC/7V3szZrZM9fmbcuQwlN/f19PWhivfSo9NF527wcrMZxHC2px6kXc7BEeedbjCTOSIXtWjt6/Yr2SG3S1ycdbOl4PocFpYP1qJ7vRCZ/+Wg2S3SHvaiu9aL3RQfShB2nYebTNvT+Wx/8mrISEnhXYrTdBLPSsRx/QVuELui9Wg//i/ksuMpf9WfSZ30QHqv14q8o9yPrlXXIfFzazpy4FRLnpCO52Yt2w4+wjSax9EeUMgi7j5G/MbJNEwi+tQW916VlgUGcLS/HWX5dfztO3f0FXstjiZhkGyMW+1WLze7Acm8HquqOI2vhPOHKa9oLLgyfd7Mkqh+Ln1PfIWAVq/Zt3TZ0eGIRS1bZYL/0MGpQgBWxJl5xi78KIvlcyzFWyzSk/fckNF3qUN+BxvqhCU7MfFxajhLzOmNkE1HYzHUv9pfXo4v3DSzYrd5ZCS8btLaV1rF18WHmc4vwWHM9qk73I+8Fvi1TkLnQiRrvZ7j8uRPPp0u6adRPUfSjr8ODsio2CJmchLSFLmzZ60btuzbUnBDvNlAjyq/pa3U+N9BQjrKGQWC4G639LA6+5kCy7C7jrssGfWjk06KQUcY/FLAkpxnVXxxHmuIOwthzCZP6qPG5A191AHOTwt+1ImPU1hh0O3a/ORptT8KSV5xoPF2Kg/8X2PgP5hyxNRuINac2C2u3ckzk70PXFSA5UZa3GrM5c1ziHVKQsTgRTXVHcKbPhazZbFXCPCyc78GFg82ocTqQIXVQZBuJQ/7LYzofjyNR+JGxxUi2JsezYe0vHjHfoA4xyziKOsac8+qPif3dHWicnIKZ0U4+jpq+xcuW4xEPQxk47cZZ+1bUaSYCW8pdGDjoEe5SNct45llqRNts6lZ/1M7X6kaZm9fV2MfTaqYg6e+TWPzoVtuBkjjo14QcS00ADCZdRYdRfcSNrht34LvRg5ryw2iUtlpnCrJW5mOofCuKzw/Cd+sOhjvdqHBLm3mmz8Gzj7eg6pAXA2y773oLyj4+Lm1k8I/+rH8EVb/fhZrOm4FzvLGgCGfD3apvX4aNU1nycVq86qlPaN0GLpVjt7JuKqYg+ZEelBWXBuvR04zL/TYkT5fKmJzAglELuq6y7XfFVZZIcOK19UDZ73ah8TqTxa1BNJWXolrazCNOTh1Glak6JyLhXgM2F5ejSTgf27+ZJSewI1nxtE14pmHx62tgq9qOYk8PhtnxvE5Uv+3E5tN8YLYqQ4nmXXirvEXqby92l7jx2Pp8ZMmZ9CQ7VryeiFP1DVicPT/C4MKGR1ngbPv3Hvh8Jp3S0y58sLAFxW8pZHK+FMtWHQhzp4JeGVOQ8QJz1m43Mp3iJAD/GGxWbj+qqlokhy6SkbsdWVd24Q25vaxPG0tdyD0g3k1itN2wjcKjZcORdSaJeS53JaoFveW3F6G4Gei7GTQg26NJwJV2dLE68I8TGNdLCbONJ2xoPFgp1oH3G9tLhMchhoZ0HofTY3Y21tsb8M675n2Pts7xwKjdwcCoxboMZj7NnO2Jw1K/sEDr4RNQaaOhvzGyTRMIvtWP3b8/gDZe5pJubD7NNvGDtmlJyGADuYpq8fy8bb+1u4VXHAyJZ7BOAhsgOT2odjuw4DnJb6ayAVLfEVRdcWEB/wiwBWzM5+JKj1B/QQcs2rcZ2zBmGpaszEZjfT2QG3wMyjrxjr8KIvncaGKshrQVm5B1cQc2S7oixPHiT+FfzxInCxfNQvqTx7TOGNmECZvRxvDpCRg5zXRC4Q+aLrWzHCNJuph7E41Vh3G2X0e5zDLbgcX9blRf+QUypdDB322SdZi1b7YTmbL8jPrJRD9qfWbCdBu6KnbhDzVBeTS19LNBsN7Elig/f9l27G8Vzy/4hK0NrGwmjalJSJ7sRdVBMZcb7vRg207+9QI3MRw227eKQR8a+bRodJ3XtVt7UVzlUN9BaDmX0GLSh58oR9mlYP5cXNqBrFcXGT8RYNRWI932daC63I02nb6L3W+OTtsTF+ZgsZfl/nAhK5iGRcSaDcSaU5uFjYkqPGIcYPJtLC1B9dQ1WOEIMxlpMme23m/6+Wfac79AL8t/m/gJTSHesbFAtpPlv0eQttAh+UaGgY3EnP8KmM/HTaEzjguJS9H4kTEmsmxNjGd5Ithf7DHfoA5RyFgb3yzXMeacl9nBaxtgU815eJjc6pG1Ix8ZUm5oeewSJ33TKzdetmwmHoaWHyl/Yvr6eQcyWG6dppwIZD/ez6+GB2eu6PsEXfmOY56lRbDNz0tRXN8vHe9hOctedE3mY04cxtMa0lZsQNbpoB3w5ZWxPC1AHNo0scZSEweDSdcpWLylHHk/lGOZ0wFHXgm6nGtjekTW5tyKuo/moevdRbA7foFXP/Pj2ReljQKpWP+/tyKpoRDzHQ44N7jx6KvMUUpb2RmQseUIjuX6UfMbJzuHA9kfduD5T3dgccAbaBACLlOQF5lBRXhHpM25Hec+CdbtrYYkvCa9m0yPxJXlqNuYgJrfZgv1cP7Wi5mf1OGDF6REKMGJ19+14+SbTjgOdojrLMG39RD2zevG5mwH7EuKcCJxPlZIWwVS1+Afi5Jw5m2xzr9xJ+C1wnD3cLPzbWSym/8divPY+Vidl1X6sLrmAFbLj8gZYHu2CMeOujByYg0c7Hj7ihK0Oj7Fh4vEDNOqDAWcm/BaogdvLWHny96Krnml+KctdlbbIGnzXUhGpElznlTkveeCv9wFe1GDzl0JOkxKQt4nHuxJ78HmFbxMnMitAbbs3YA03XxWvwzhXTgs0V7wXDDTTpv3C9YGF1unONHjLnxWU4KMnq1YxMtvQT6OTirEn9aniu012m7YRhsL5nUqnTmTlC++v04i+ZVPcex1oOLXzH7Y+Q/+VSH2rAUGvh8OTKCmrdiKPP+nWObYirM/sBWG9VJiQ+YWD/4o14HpSNdzRXiPqaVphzspBaur3NiCSuZred9TjuHsfORJm/UIqXM8MGi3/xsv9p/v05l4ti6DhEWb8NlKH8pe5vvlZRRfdWI96xcZI39jZJvGiL710P/oxjbBFlwovjYfh6oLxffoPJGPz44WAAfz2fmZnVT/DFt2rQG+G8awfq5jgmnImM/8g12R5DB/nfkiK3Cl0/L7exIWrsV76XV4w+lExVW2wqJ9m7ENMwjvmQIrm29b1MQ//gaI6HOjiLFapufg0MlyzLy0AU5eF1nde/9HJY5p/LoRIf0pYF5nDOOVkc1oY7jNji3Vh7HgegnzM7w+uVDhy0dtVb54x6O/D5cPfooLfZZvFwvC2vL8SlaUa34wyZw6DwuY70hbNk/xbkajfjLuxxCfyfrts5oNePTPUr8t2YALKeU4957+Y12C/Crno/P3S4XzLyvpx4LKI9jCP4Joc+A95jszr24VcrnsD3uQUbSV5XJ9GFLMo8VK5D408GkmZBQCn0/+is8nNXcQWs4lQjHlw105mNVQhOwFzCf8uhLY6Ma+lWZ8vEFbjXT7bh8u7PeiV+cGgnj4zVFp+9T5eJGNL5KtDNgs2QCTaYw5tTkcyHP4ULHmF6yMRdh8dR72HSmKGB/N5MzW+y1M/jl3HsvNbKoJzYTnnMzWU7FiHrMVGSMbiTn/FTGdj5tBZxwXGpei8CNjjYFsDcezPJHsLw4xP3IdrMtYL75ZqmMccl6bvRC1Nfm4Xcl0VmiTB7bXPfjMFbQL62OX+OibbrnxsmUT8TCk/Ej5U+e/oKojzDd5WOxa4gKqaxp0797Ubed45llaBNtcC9sxMfYFdESwrTiMp7VMd2FfzaaAXudU9GHmfIe0kSf2Nk2ssdTE4T/xX9OS/h432krnIBdu9BfZpTXx5g5OFTpwfkkL9r0YadJuAsJfQVAmi34vip8uREJNe9zeF/Ig4KsvhP18Djo+yQ571Z4gxpqu/YuQ+2MpekbNdxEPJJ0HMP9/Af94gSWY0iqCIIhYGP1cOQK8T/v1bfyptShwh9ZYElXb+fcK/6KQOeJzePNBHbPd8GCdswFLvJXI07sbLwyUMxPxZFx9D0EQ8UUzt9Rb7cKiS2vRUmnl+zFjwEM2lhqXD2mNJX7fTfTWl6PiYj5eWfiATbjiDhqLHchVPQ5SiuqUAix5WtrlYcd/B8P99Sir8GK1y0nJIzFx8Peg6Yode16jJJSQuO+H73oH9ldUIvH1pTThShDEQ4AfXc3NSN+1blwmXKPBz/LltiqW+yeuwfKH4yYZc1DOTBAEQYSj/zCWLd2henXA7rJ+LF8xf+JMuD6kY6mHfNL1Jk6+7cSy0kHk/dNWk18unUhMQVbREeTdKkfuAv72fBd231iGY9UbHop3W5hhuH4rHC+XYiDXjfeUj7kQxHhjS8X6w6VYbuHuE+Ihp6Mc9uwNuDC9FH96RecxKIIgiAcOG9LWH8a+nAiP8k8oOlDmWIR1XyRh35+k1yP8RKCcmSAIgghLyloc2pGEC78TXwvl/G09knd4sGciPQn+kI6lJsTrBQiCIAiCIAiCIAiCIAiCIB4WHvrXCxAEQRAEQRAEQRAEQRAEQYwlNOlKEARBEARBEARBEARBEAQRR2jSlSAIgiAIgiAIgiAIgiAIIo7QpCtBEARBEARBEARBEARBEEQcoUlXgiAIgiAIgiAIgiAIgiCIOEKTrgRBEARBEARBEARBEARBEHGEJl2NuMieAD4AAGVKSURBVNuDqgInUmfPwTrPTWnlKNNaipTZpWiTFgmCIIgouD+IU++Wo9EvLRNqLMe3m6hZr9y3A7vZsbtbpUWCiAtaPftp4O88jHXOdJb/FaDmhrSSmFB0HS5CVScFFIIgCIKY6Ayc3oVcx5wJMa82MSddb3iwbkIknX40leWjDAWo9bZgX840af3Y4r9Wj+rT/aw2Y8uAOx8p9l1oovySIEYJP3rr3Tjb/1M3skiTd9HK6CZOvenC58+5kGWTVsXIsKcAKes9GJaWQ7h/E01uN9puScsW6Nq/CLnV/cLfbaUsQSjtEP4ePSZGfHtwMNZDQ/0wwdj0vQGW9Zj8mJoo5OFvwe5ffwq87kZLy16sSJTWT1hGv8/HK/eNRNor+Rj6fSFqvpNWjAljfXHr4bbncdGrCTOujRa6wGqE/9IupM7OR/V1aQXxAEK5TOxMIF9x3Y23CpuR9tE5dLQUIkNaPV7Qna4R6cFljx95+S6kTZ+ChDgN3K0y4K1EcflFDEjLY0MPTh3sgQ1unDh/R1pHxMS4J13xd4TjPUEQj0mO8eU7NFbsQtn5MR3BPWCEysiM3vlOl+Id2w7scyVJa8YgEfixHSdL96LmikWfeb8HjbXTsMKZIq0YCyZGfHtw0OphPPRpgg5kLevxGPuxCR9Lo5BHTzNq7rrwWl4qEqdOgW2StH6CEBprR7/Prea+o5EPhJxzsh1btiSh+C03eu9L6yYcsfqVMbbnMWYi6JWWBz+XjQ8P7pjiDho9buYfelB1pkdaF57x7m/SN5FQOTzcvu+nxnC7F21z87F6YRISpo7/IIcmXQ3w3wVsfz2+HTVzfT36z6zFTGl5TOj0oubWKry3xY5TZy7CJ60mCCKepGD9mW6cWz+Wk20PGlHI6H4PqksbkJeXjQRp1ZiQkI0/drTjj9lTpBXm8Dd7UPHf8rHiCWnFGDER4tuDw0/IVi3rMfkxNdH4LD/8eOQBuvgx+n0+LrmvCWzOfLx3by+qmx/Wu6EebnueqHpFPMDcuojP6514r8iFof/rRdeEvSBDRIZymYcK3g7/xoZHxaVxx2DSVbpa2tAReO9biiMfu73B92yFXpVSv4tLvIpwGKfcRdI7FRzI3dmAgfuDOLszHw47W2d3IrfUi2GNk/J1e1Cc52DHzIE9bxdqrikSnPt30KY456I3D6ApcKlCqndNA7atSA9/NYfVobG0QKyD9hzCnRT5qGJ/Vq3it+u/C0Jo/0cenN3uYvIJ3nnh63Bjs1z3JYXY36yRGX+Mov3r9reEtF8m5EqMst687HZ60MsGzwGu16N4ldxfOXgjwrnD0favlcDry7A624Ws0/U4E+mOEr27TrTvpfUxHXozB3a+Tnp1jtQm6fxV9YfxKt/fYa6C+q8xfQm0Ox/FHsXjQ0xfujy7kCu8L20OUp0Fqj4RZexGU7387o90ON52q+uoIKDXVWuFNsl3FITrd6HPnTvQCC+2OaU29LuxbHYRzgZmtO/g7NtzMH+/4iqpdp/rXuyWbDGVJf6qNvKE2S7UV6nP4WzC14MaWS95GRQo7UqB0CdzkCucMJ/ty/e/H407Wf0PKOrfcwDzZxfiVOAxVc0+Ee2YEXa7aOOOd72Adwcc7G+juzqi9kUG9jZ86QDeWCL2eYjeSbpbfYnZpKQXqc4iVAd8mebdhYb7M1h9TrH6CrYklOdFFTuHfvvD+EIjucfBXiO24W6/oGfBNrRHuLCjkJGu3ol7qbjmRc13q7BknjiDEUn/lTara1Mh8I8fyX6CyW6r0k+E3mE0wO8r+R1tLBDxo+28B1nZ89UTxPeH0ValkLFWLyP4gnD+KYAgxzDxTXHeaOJHJHn2VruQ8nZDsK99Ddg8exH2d0rLDO0+4WNpBN2uKsQioX+YD1ulyR0CWPVXQT2M7E8j6UeQiOeIoe/1iKjjkr2q42uoHvs65PeNSnGhnsX4QJ318j6DeHqjBftlHyP4Yo2PCcODEUut+XXhnKuOsL+OIJeXhyLHsdx3gXUKu2H589nvmC/i320m9+GqUjQqKx429oeLtZo28ijjgk5cEXPfhqBu8/2uk/vLiHokyTeiDMPVkWEipxluDsbwYG4Y4ZxsYJ75UgqqG1rEvmB+bJs9HdsawtwZbjavkjGKjxHy2Yj6adpv6PStlXFFhPoJGPloK/mHjp7x6PepiEqveML6ogg6YJRDDbNzBmTNyvcOhpF1pDKM26nCqE5R24KCH4LzAbwOKecD1IjtMp17Cvb9YI0plAyfr8fZF3Ow4pUcrL5ViZNBF65Br5wo2skInxsx4tFOyQ/J+qe1w9jGPhqijVtRj0XCyUHP90XKiSU9jzBPFoKBHUaMk0Kb1Dkz/wh97mwXqq5JywqMYm6IL2QIxwRyEKl9NcrYwfqp0y+8g17uf/sSnb79XuMDtb4kQjwS6xVhDCMRKT/i26HsX1WfjhdcRNq5P8xK5Z78+Sbu6NVh7vYPw1znoQ3ck89s587cFvdo3cO272kXFwSGuRO/SeXW1g4LS0O1bP9Zdm7t0W5u6AcfN3T1GLf2mVTuqWde5t6pVa6zc++c8wnHcN/XcmtZuU/9ah93+RsfK3eAu/DhUlZuCXd5RNyls3Ip99SGY1zn9/z2Ya61chX31OJKrvMevzVY74NfNHOX2wc46TAFw9zJDXbFOaQyFu/hWn+UdpHO84cr0qIOQvtn/ZwrOHiRu/xlO/ctX1B3JZf9zAZJZqx9Vyo51zNLuYpu5TFLufe/GBC2f/vlPrY9lXMdGxB3uLKHbWf1EJdEGf6mlhsSlnzcmbfsXPaHF7lv2bG3f+jjTm5jsnjrHCd0yUgz9z6TpSzv299c5N5frDi3GYRzZHMVV/kFH3dyk8HxQn9t4E58Ly3zqNowwB39ZWqwzt93c0d52X/YLPWLQZtkfVi+hzvxJevPryQ9UTLI9mEy1urU2j+LevjtsVWsb0u4C0yfRkZGuG+/KOGyZ63ijn4jbA7oac5uqQ7fnOPez2J1Ptgn7qAhuH8t6/dm7usf2EqDfg+VUzdXwcp4/6KknSOsr3i9zWJ6LK4Ry9lUJ8rhh3NcITufrDe3v6rj3lls5wr/VZKH0XZDfVb00+0RbuRHySZ+eYz7VtpDi9b+b//rVu7Jl45xX0vLXx99mckpNViHe6wOAd0ysmPj7WrbiIzcZ5Z8kYFujnxZwo4X+5zXK/n497+U+lShu7zu8X7mTHE208VDkozU/tJ4/xHuQrE9oMv89sv7mEzC9qu+L4ws1/jZa3zaoJERIzTuqPn2xBodvQjV/5H2fcwPBG0m4Ddq9f2drEOufc0qPxH0j+oylPoh+HqN3xG4zex2FpOFpDI8cowI6uUhJlOFXhnYuq5/CkHHH3xfJ7ZfEz+ymazFkrV9oWmvkTyZj3Qq2jpysUTwD85K2UmK5y+ok+wvok/V122lrxdylqMbWB8Ecwcl1vxV5LbzGOuHltBzxNr3Wgz7RDe+aurVd4xzsToEfWctK5PVM2BjatkE9S9MPFXmKT+yWDOk9TGhNq9iwsdSTf0NfSJDk/fxRNV38jrZv0v++0l2XM62WtW6p7ZJPttE7Bfkp/Kp2j4yzqlF3Wb58jG1bgfjrRpVmSZkGFpH43aNMLlnP7OK+/hLUcaij17Kfdwu6lLoOSWaWH89s0/sr3vsvAcPcRcGhS0arOZVxvHRKJ/V1U9LfkPTtxbHFUb1i+yjjfIPYz2z1KeGvkhfByLmUPf6hDYobfAEy5Ge1I6TFISWYWaMqsZ0XheVLYg69eTi7dwJIR7L8wH6sTWwv6Xc88EaUwQRZSvnLZ0V2Sr90UNbjtV2Go03Y24n82knmP5la2PGhjrhmNjHPhqiiluxjkX07U4du41y4qCei30ROk+mxtgOI8dJcU7GGZhYkNqg0B0lRjFXTw/UNijbfTAeCfVlMnlGO0cXkKt8jMJX8D5eGaPiMIYxM34z1PMxxtSkayCR5REGiHbmhMVFrYPUKqzQ4NW1quRCOEa1jk8ymGHsk84jGMoa7oQygREcjuSAhDq8zB1Vzofda2Z1leulU28twuBvE3dS2ZEsUB58SZlEiucJn1hLbSm+qHCuvBNI5XJUleO4y7uD7ROO2d0s/C0jJCGy0WiSb5XSaAatAoO1XD4L5if5HYaYg2CyOfiVuInn9lcs4PGOUVo2QhgI84MVyTnfrtsU1qAFhP6KNOnazn3M+u6dL4I1GBls5y439YmO0ahNwvk1/a2hdR9zztuU/cCLYiuXU3xOlNuPzKhViYq6bwUZa9rYWcmcsxRgtITub9zvenJq3WMPTDgIci+u5Cpektsq2oWsj0J9VLrG9IafXJLqaLTdjD6PMMc1IvW7gEYXtYTYv9DGrVKwYYkna0tFBd8uqV5s8J7zDDsfX4aRHRvaudQPJh1qVL7ISDdHmF6xwBlEb7CtaYNwTul4q/sLMlEkXgKR+lXHF5rwn3G3V2UbBB9lpQ0aGTFC9E6D/nZtGaLNKpMXnpEvtrOEQtJRDXp+QihLTvI0ZQz9md+fJSKBc/m4r1kC0fl9UHi8f9Um6MI5VbYsykD2FUa2rlfPUEJlLpxXnpiS+eoQl8P6TvRb2r5QnsOEPOWBg7CLaGvvV1RyOXJdhckyuSwjnyqWrY3zIbFgZIBr5ZM2VaMkrPiriG0XMdYPLaHniLXv1ZjoEz171dRLTy/UvlctGz05COeQ63hvREiSlbEm0vlCEOo8kWOppv5GPpEnJNZG2XfCOk3+LJxbvU6QkTxpyC8bxH51//Bo2ii0J3JOHarbYhsD8VaDqkwTMgyto1G7+Ikt5mMOqZSfa618mXMdEuWud04B3jco+y8ClvIqM/HRIJ/V009rfkPTt1bHFQb1i+yjzeQfkfTMYp8a+iIdHTDKodr3cU9p66jjs5SElGHCnlSYyJdjswWxD1XxVmiTHM+16Oxvoo6Cj3hAxhQBBF+g6KurfN9pcmQNIeVYaadRbhSPdgo6vJ27oLTj7+u4wpdKuDP8QTGPfTQI+1uMW8L5YhiLMELloG6HXu6jzonD6XlQ1lqM4oFRnBQm6DV5abgLYEbn0tMDtQ1KvrtJWuQR5KpZp4qHOsdI9YzfGMZEfsQw1PMxxtQ7XVXvfEtIxGPwwx/usRI9HgF+Jv0ZQLXOhoTJgF91ZzIrU/khgUlJmPkc4LvLdurvxln0oHgJf6u09EtdiypNvSK9q264ux0D85xInyqt4JmUgox5QGPfoLTCJJMT+NpK9KHzPNBVkhOsG/u9eljTvknquiX/vR3oHDR8d+rwV6zecGPd04q2L9iBJrZthG97YjY2vgmU5fCPE+xClacFQ4kOZM6dpqhjJO7grMeN5F85kSbJP+GFbCzuPIKzytvZLWFH3s5snCmYB8eqIux216MXqciclyI8TmvYJoFE2JiO6HMTvVf9yExPUbUxMacUdaxc4SPANj+6+EctpMed5MevVGje+/HYtBTgnkop1aj2N9nvGtLmuTBwtp3Jw4+2ix4sd+Qja/Ed1FzqB/9eysufp2JBOv9V8Zvoa2d66S4QH1+QfvO3t0h1NNpuDtu9blRvkx97YD/hkUcLTE/Hgrn1uNzByrzejJO3FiFrtQPL3V40sVX8S627Vs4TdcvIjk3auSUs+iJD3bQ9giFvefARm9lObPMKhyrQ6O7UaZjB/gvqtpYI+wsysWPm3wpbTKPyhYZyHQV7Vbbh2240gvmXWcKWcaQPrfXA4mdTpWUR2xw7su72o1f5vI0SvfcD+XxMeqEkLirAm/c/xaLnc/DGzsPMrofx2DwH0qbL/XETZz73YvU/OEL9syquiAzc5ksxaeuW32N0E13/NojMF+zq1xzMTkcmvOg1/K6ACXlOSsXzKwdx5grzb/4OXPg8B8+vdmLJLQ+a2Cp0NqNmrhMZ0/kjzflUbZzPyC3B4vMFsDvzsfkjN059zftZB2bqvdzXir8yiwX9CEusfR/ArI5Hjq98mclzZlh7P3KkeMryH9vwRZRtkh/plR4Di4GJFktDsRoHYuk7pj0hOqteZ/trFvj4fFoi1thvOqdW6fYUJDJbj5QjqbEqQ6N2DQo+JjNV/f6+jA0e1K5Vyz2EyTZWm8hly1iSrZn4aCafVRGjTlsdVxjUL7KPNsg/DPXMYp9G44sMcqjhvh745zowR1lHi1geo5rIl+NhC6Hj6kHcjvBaGGu5pw4TfUzB6Dp9BF05OciS+yrVibzH3TgR7nUjeljKRQxyozi0U9DheXbMUPrb6TnY98/bsZh3fKMy9lHHKBH1OmXcinksYoj5nFil5wbzZKbiQYQ4mbAwB6vvHscZ/g0At5pxwWvHihfkDwbrEFPMlfjP0v9KlOv04qHqmGmYOTueY5gox2/jzAP3IS3//RGWQDNlBjP+Cy3oaFH/ttilHccR/uMkyz85F1K3jo1xqByv0LMLUas9d8terBBnF5FR6EFPhwd/cqXidnM5ch052NZg8l0Wty7i9GlmGGWuoBNzFDEHPoiai4r3zVgkeWU5Oq424NjvnEi+Vo91S+cht4o5dX6jYZtip6tqDV49Nw1bjjej/1o3+7mxXtoWL6Lpd5vDidWdXrR914MLnmy8+MIUpDld8NU1Y+B6N5qmLkKGlAON3ANmbnGHnv+THNHZGWw3hA1M969eizOJfF/wMmK/42ukjWbh33WWiprmHgxc8WKYn7xPmIcXczy4cOUOuq562WA4XQwARnY8EezcQDd9p3dgWdlNLPj4L5JeefFHp3joqGD7GQvmLIAq4rtlTMh19O31Edj+SvrzYYb/0vXJdvTU7MUrT/twuXwV7Et34Kz8Htrr51DTV4AVFvU5ZlsfN2zIXJiProssWe68iJqF2chMSEXWr+7gZPMgertb8Nji9MAHTqKKpY/n4LPL7fAeKcLCJ/rx+W+Xwf7rw+jSTTIt+KsJwtj3vU0YtCSwpDpu3GrAO3mfYmj+Xnh7xFjT8lFsjnNCxdIHjbjE/gnIaLaLxUHepfwsZJJAQ1R1iBwfo8lnY9Npa+MKw/oZ+OiI+Ue8icYXmclN/wvzm9KfY4JhPj0BbDyqnH6CjymYXBtrB4H6wsCkfUqqC2XfAWcbrHyE2louEjE3Go12ahjzsY8eYzB3EHfiYYc2B5asBqq/6ICv2YuzLM9Z8oS0baLDdJPnJ5djScRn0lUSYnxh5+QNSsbfh64rQOKUR4G/nYMsdKDzxiNImDol+EuYAptRAiSROCcdyUxZ2wMvqWbc70dbM5A1I8IVA0OSMHch0N59EzZN3fg76AJoZDbwVQcwN8nwTpLEGamwXWtHr19xbun8fNt9LCkqq2IOe3IS0ha6sGWvG7Xv2lBz4qLqRcnhGDjtxln7VtRpDKGl3IWBgx7hips+mv5Sct2L/eX16OKvdDybg9U7K+FlhtVWWsfWGbfJGHbep21o6lZ/FMDX6kaZmzkl4WpVP7JeWYfMx6WQFXedNdnvWmzpeD6HDRQP1qN6vhOZvALMdiJv2IvqWi96X3QgTdhRbGPvv/XBrz2/8Lljo+0mGO5Gaz8r+zUHkuVD/p/0vwVmPrcIjzXXo+p0P/Je4K9CTUHmQidqvJ/h8udOPJ8ufRHbyI7jYOexYqSbvVfr4X8xH3lz5a98jwD/If05GjyegnR40fW1tBwNRnIdbXudlY7l+Avaor+GY0ji3zmAa30GPm8GWPNwtlVdEX93Bxonp2BmzJH/DtpqylHlZT7hiVRkuQqx7/hxvDfZgxOXxMFqr9cjJteW9DkOtq7LNKT99yQ0XeJ9pgLW101wYubj0nJYzMnTZndgubcDVXXHkbVwnhDz0l5wYfi8GzUX+7H4OfnKdTQ+dRCN+8tx6hrTgRQ7ludvx6Ez5VjRuhcnwzypYdpfTQis9n08dHwKkv4+ieVf3RYGkAb0t+PU3V/gtbxUJEi6PxJrTJ5IsTQujLZ/UhCH2D96OXUMGLZL9DFNX/O32QcZaChHWYPO3YRKBvrQNDkVSUb9YFW2hvExmnw2Np22Nq4wqp+BjzbKPwz1zGKfRuOLDHIo3TpaxLI9GeV1o2kLZokyp5/IYwp/swcVt/LxmVc9Zu6o2Yo0Np4+eV3a0QTmcxGD3CgO7RTy/OYe9ClNwdeB6nI32lgiMOZjHx1inzswItacWIe4jLNtyPyHVYDbjffP1GPxykWxTVSyfmO9F39U7RoU5vCS/4ZPzOKRY41hfhRHYp50nfk0a/WJw6juvAnfLRZsPfwgU9oYEy0o/l05mq7fYeflv05Xguqpa/DaQmbg/KMu6x9B1e93oUYo9w6GO914Y0ERzpq9pTiVJQ4LvXjnXTe6bohlNFVsR9ndNdj4Iv8IWrRMw+LX18BWtR3Fnh4Ms7r5bvSg+m0nNp9WXBU+wQLZpcFA3YtLO5D16qLAHT5hedqFDxYy2bwly+YOBs6XYtmqA8JV4oTpNnRV7MIfaoJlN7X0s0G/NKF7w4uqqgbmpISzaWBy/rwDGSuzkaY0BPZL5G9nhwdnrugcOH0Onn28BVWHvBjgy7zegrKPj0sbGdMTMHK6CMXlLeJ2XtaX2gF7kugoDNpkhozc7cj6vBTF9f2STD3Y/fu96GJJYgILXMlP2NB4sBKN/PmZTGq2l4B/3GloyMLjHxEx0e+TE1hdWtB1lels4HGcKch4gQVV5jwzneIEBP8IblZuP+unFinwightvLILbyjk2FjqQu4B8Q4Ao+28o36UBYm2f++Bz6cj2KlJSJ7M9OOg2I+8DLft5B97uInhMKNt26Ms+bvSji62f+BRitkOLO53o/rKL5ApVZ9/RUXW4SOoYoPgTOHRYYaRHZuwcxuTKa70oI3ZsFC+IimICwa6mZhkZ4GvUvJ/TK/LmZ6zpLjvpllHZJEEJ15bD5T9bpeoy0KZpaiWNpvCSK6jba+sDSvzh2Nqg67eKUh+eh6SvX3oVW3T6v8UZL22AbbyrSg+L/tiD/PF9cjakY+MmJM25nce6UFZcWlQzj3NuNxvQ/J0Fsfu9+DsIRvWLwnauFmMbT060lZsQtbFHdhcLfkw3pcXfwr/+gKskO02LCblmZCO550eVLsdWPCclLDzj+P1Mf9wxYUFc8VVpmOpikQk3GvA5mKFbrKBaxvsSA4X1s36qxAM/KkprJ/DWt/HR8fTVmxA1umgXvDnKGNxImqmJSEDx1EhnW/gUjne2t3CO04MSbtEZKLH0rgw2v5JgYnYHxJrtYxaTm2ekDoatkv0Mf6y7djfKvpoQRe3NjBXIo7awrW792umryvTpYn8QZwtL8dZvQkWq3mVYXw0k8+G6mcsMcNwXKHCqH4GPtoo/zDUM+M+VWHCF4XogFEONTsb6+0NwTryMig/jEbhbPqElGHVnozqFAdbiBkzOf1EG1Mw+TRWHcbZfj0r8aPtvAdwsbqwnE45Zk6wZyPP3oGTbJyvh65fMZ2LGORGUbVTg5Dns3H0znr0Suev+Wg7dvckIJkdOuZjHz3iMHdgJIfYcmIdrMaDcNiXYePUepw6LT7VEy3ixZ3DqJJyDN7md7uljTFStXOHpH830VW9C7s7nHhzhajYsY9hxjA/iiMxT7omLNqEz1b6UPayE/YFL6P4qhPr10obY8KJLa8m4sTWX8DuWITNV+dh35EiZAiT4DZkbDmCY7l+1PyGletwIPvDDjz/6Q7xXSOmmIbl++vwWYoX65Y42DlcKL42H4eqWRmR7kw0ge3ZIhw76sLIiTVwsLrZV5Sg1fEpPlykCJSuHMxqKEL2Agccv64ENrqxb6WJxHRSEvI+8WBPeg82r+Dr7URuDbBl7wak8bKZnoPPajbg0T9vgJMve8kGXEgpx7n3xHcG+r9pRkWFV331SqbzX1DVEebdIDY7lriA6poGnbtdUrH+f29FUkMh5rMynRvcePRV5qikrfyxW6oPY8H1Eizj68RkXeHLR21VPpL57UZtMsPjLtbutbAdE2Xu/K0Httc9TDd5mdqQucWDP87rxuZssT+6nivCe874BgjDfmfJ9Ovv2nHyTSccBzvEdYzEdCdL3O1Y8Fyw/9Pm/YLV2sXWKQQgtLEEGT1bsYg//4J8HJ1UiD+tTxX61nA766e891zwl7tgL2oIvUPB5sB77PjMq1uFfsz+sAcZRVtZP/ZhKMwcR9qKrcjzf8r6dSvO/iCtFN7byE7nmh+8g2/qPCxg8k5bNk/scwEjOza284SFa/Feeh3ecDpRcZWtuNOHM/v74TOrN0YY6GbyK5/i2OtAxa95/5ePg39ViD3M/w18P2wycFiFl8kh7JN1eUkRTiTOxwppqzkM5Drq9mpjQbFO1YYzSflYH5hsM0ZX75Twd7g9fhwXgmbGCNV/m70QtTX5uF3J1rG2BvyGS8cHRkHiynLUbUxAzW+zpfN7MfOTOnzwAhNUjxc1iTnIiuaxIENbjxIWPw6dLMfMS1L8yCtB7/+oxLEtdlPnNSfPaciYzxIvu2IQwXxG5oushJVOKcaLmIqlKphub2S6Pf87FOfxuunAskofVtccwOpwcjbtr7QY+FNTRHEOi30fFx2f7sK+mk3AwXzWD07kVPRh5nyHtDEKnsjHZ0cLAufLrf4ZtuxaA3w3jGEzjnOix9I4Mdr+KYCJ2B8Sa0MYvZzaLCF1NNEuwcdUzkfn75eK/qKkHwsqj2CLXexp/XYPoqmuH6tZ/BL3uonW/QfQqpcnWc6rjOKjmXxWRz9jiRkG4wo1RvUz8NFG+YcJPTPqUxUmfFGoDhjkUJNSsLrKjS2oRK6TjfHyyjGcnY88/tAwhJZh1Z6M8rrYbSF2DOrImHBjCn8fLh/8FBf6dG7jvNWAo9VA3kK9/CgJWSvtaDv4L+jSmczT9SsWcpHIuVEU7dQi5fnrbW68uoCdn9l8jW0t6qTHv8d+7KNDHOYODOUQY04cQhTjbF2YrmTlsjzgxezgu4SjIXUN/rEoCWfeXsTk9wv8xp2A1wqZwsWB9euy0VvxsuhXD7J+qdmLPDnnj8MYxjZW+VEc+U/817Skv4kxoq10DnLhRn9RnF6uQhCEgN+7C6kVKbjIHHH4yZIHHD6BU17F83tR/HQhEmra4/a+pocB3+kiOM440VKeo3M3znjjR1PJPBxN9+KznOivUhPEmKHxO73VLiy6tBYtlQ/3O7gIQou/tRSL9iTh/xzPx0zeJm7V4w1HPRZ4K4ODSoIgCIIYFe7gVKED55e0YN+LNIZ4UHjgPqRFEAShz0001nVj/Tuuh3fClQXaxmIHclWPZJSiOqUAS56WdiEEEl7cgX2TSrDZE6f3kcUVGzJ3tNOEK/Fg0H8Yy5bKj4qJjyruLuvH8hXzacKV+GlxtwNlH/bjzT9JE66M4SstGC6M8nFTgiAIgjCJ33cTvfXlqLiYj1f4V24SDwx0p+s4QHe6EgQRNb4e1HxSgrLPOzB8dwpmZq/DBzs3IJNmP0K5P4iz2/8FCbx84vWEHEH8BBm+dADvlxzC2f47sE23I69wF95zpUT3iB1BPKB0HS5C038vwfq5pPkEQRDEWHITNeudKL7mxJZ/LKc49IBBk64EQRAEQRAEQRAEQRAEQRBxhF4vQBAEQRAEQRAEQRAEQRAEEUdo0pUgCIIgCIIgCIIgCIIgCCKO0KQrQRAEQRAEQRAEQRAEQRBEHKFJV4IgCIIgCIIgCIIgCIIgiDhCk64EQRAEQRAEQRAEQRAEQRBxhCZdCYIgCIIgCIIgCIIgCIIg4ghNuhIEQRAEQRAEQRAEQRAEQcQRmnQlCMvcRM36OVjnuSktPwQMt2B/gROps+cgxZGDN6p74Jc2EQRBEATxoNGB3Sym726VFgmCIIgxx9dxANvc/dISQRjTdbgIVZ0/gZF4aylSZpeiTVp8mDGYdB3thO3hTwjbSucgpbRDWoo/w54CpKz3YFhaHh/86K1342z/ODmH4RZUuzvgkxYnNIZ1HQObuH8TTW432m5Jy/wk8rtrUTO5ELXeFnTU7MWLc6bAJm2Nhoh6ecODdbMLUHNDWibiSCT9GWc7jYLR9p/Eg83EiH8PCeMUR/2XdiF1dj6qr0srCMIqITnNOCPkOHpxWLxgH4hpwmCTLSt+qc58bObt8L64ixzTo77Ir1OG/IvPjQNWc9bw7RHifcCfi/up6mx3Incr6+eAk9LI04iHPvec4DneTzT393eUI3fbbeStTJHWTAQmhq5EzOEepLH9KJD2Sj6Gfl+Imu+kFWNIxH6ZaPH2AWLi3+lKEzQxM/oTF9+hsWIXys6Pg2dg+DrqsbvUg6YHwDOPR11D+v/Hdpws3YuaK3fE5eFmnPGmYv1GF9KmT0HCE6lY/mySuO0h5Kc7kTe+dhp3fmKxYbz19qdrNxOP0ZhsHp84egeNHjcwuQdVZ3qkdeEZ70l2muSfGBjmNA8UDnxwsgUdLeLv3J/mw1eaj9wqY3swj7oM+bcvZ5q0feKSucMTrPPJT7Hgzl7k5h1AV2BSmgjykOV4VjCRD8Y7hzEVD+6z2LbtX7Di4yJkTJbWjQch8pn4ujLmOcl4jym05U+2Y8uWJBS/5UbvRPJ32nj7ExuLxQK9XoCIAylYf6Yb59aPz1W8hOwS9HSUYHGCtGICMyHqmpCNP3a044/ZU8Tl+/yVzkTYxjMhIMaA8bVTgiAmLuMSm25dxOf1TrxX5MLQ//XSRAoRHdqc5oHCBtvUKUiQfsnPbsCeHU70fnYujo9bqssI/GJ5nGmMsE1ODNb3CTve3LkdWf2VOHNV2oFQQDneRMN3uhJlCWuwfK60YsIw8XXlQRrbjxY2Zz7eu7cX1c0T6O71Bzreji/mJl1/6ECV9L5H/tGX3V7FYyH376DLswu5znTh8Y9UZwH2N6u3t1UVYpFjDtueDseqXai5plGeMOcXrko5d6ARXmxzKq5QGZXJ8HUcxjphOyuz4ACa6kvVV6Su16N4leIdlvtbMCwl/L1VOUhZchi94mIIw5cO4I0lDvFxF0c+ij39kd9/eX+YyaAADjvbn388ptQbKIvH8HwR6irCPybA5CHI2IFFW93ovctWC1cf5iC3iv1dlc+2Ka5E3GjB/jdzYOfPyY7J3ekRj5HxKfuEl289doe9khH6jtMBvj5S/9iXFIb0TxCdR5M0V00EPfioIShDvr5KGYa8D4TJg9cPWR5vHsapqrVB/dG7KqM9B6+37iLFOZgO6V3OFM61CPs7pWWe627kznah6pq0rERbzt1+1OzMF/tB6Pv20EcprnuxW2EfSv0Qr7S6mX7L7WX6/rZR/wdlLhyvtDHBRnTeWRuhDjzDzQdU9nZhMKJFCPi6PSjOE/Xenhf0C22l7DyF9Qo5+NFUwta961WVGcBIl2XCyoNhKGNRh/gyBF2VdKiq3o3Nijac/Y7p/mlZ93l/V4rGCJfBI9q+VEb1JWb/UhmpziJUK/2nGf0JoNevRr4lSOhdAtbt3tehkFfIdrXd8v0Y7vGVSLEhaLdh4o0Goc6KMhsPs/7W+Iqq+sN4ld8nUM4gGkuD/kjrH4xkFdQpOTZa1NtvvSjm/Y7iZqiuA4vUduPX7KOsMx+HtOWF265XvmQ3Y+rnGYZ+JqLflupQ04BtK9g5wt2hYmQTCl8Rul0uQ+lPmP50+uHvPBywdfsSjR0zItuGjHh+B/OF8O6Agy9LlqkZnfzIg7PMX8h9vE5Z95A4KspbrnNInsXnCLLf1dMnEwyfr8fZF3Ow4pUcrL5ViZNKk1Gh3+7eahdS3m4I6ryvAZs18Vi7T0Q5h9WfCHLXIvnkgA5r5BKzz9diNv5JWPHRerFeScCPKWSWu7MBA0wXlXqmtWOlDcU7pwlgxk4bgnku3xeqsY0WX4+iX0X/o5sTxgHb5DGeZTDRtoi+gCfSODGeMNnEKh1/X9C+QnyxkSx4H2E0plVgZbwo6r46LqlyCUP/oJPjKb7XINgay1mLtXE3Qq4iYJD/qzAhn4jyZ0T0QZIMlDmZ0Aa9fFAmrN9ghMt72PqagnSk7gyOO/zNpZjPH/ud2XhwB03nG5CZ60SytCZYf0UcMjN2iJTbGOiFvnx0+tlUDhE5RzPSFUtjRU1OYqp8JUxmRnNFMnoyint+wQi3PbwOpyDzpRRUN7SEtzkDn2VGbtbG8MF4G7beFv2kFjM+IGKexHT5FJNJcGzsRRXT97B521jBRaSd+8OsVO7Jxdu5E1eHuds/DHOdhzZwTz5Twl0eEff49tgqtr2Eu/CNjxsZGeG+/aKEy561ijv6Teh24fijG7inAscbn5/7vpZbO2sDd+J7aZlhVCbXd4xzzbJza492c0M/+Lihq7XcO4tZOb+p5Yb47SPN3PvPBLff/uYi9z7b7jo2IBw+wvb/uLabk6ugZOTLElb/DdxRVl++7KGrx7i17Fzvf6m3N8e17mHlzlrKvcPOJ9blEGtPcH/D8xnUdaiWyYudz7WvmftW2H6Oez8ruJ1HqMOedmmJoTznjyPcyFA3d3SDnXvqw2axzff6uKO/TOWe2nCM6/yenfP7bu7EtqWsHHU/BBnmTvwmlVtbOywsKdt0m9UppH9UiDrwhyvSIo+mz0UZ/pwrOKaW4TvnfOIOV/aw7Xu4VnGJG7nIymcyf/+LAaF8UaYKGejolPYcnZVLg+1netlauYp7anEl13mP36psr487uSmVc1Z08xsEhD556Rj3tbSsQlXOCHeh2K6wjwHu8j5WjlIeP5zjCp8JtuX2V3VMl+1c4b+KbZf7P2f3RVX/Zx/sE7bzhPS/VuYh8lD3p1EdDO1Ni1Ae069f7eMuS+2+8CHTL9nur1ZyzlmbuJM/iLtz91h9Wf+9f1HHxox0WYcQeZiWcS13+ctm7mu+XnIbFDbCl/skq0vOtlrVuqe2neNuC2dSY2j7chnL9wT040xxNtOXQ5JumdAfFZp+NfAtWkL1yKLdd1dy2YrtQ1cqOReTu2w6Wrv99st9bLu2TAUhejvCte5jehQSb9g+g9IuGgzLVPTBCdb3l7/idWKYO8n3a8A/SPq7mNn1j+JhRrKSdUprM+b11sedeSuVyzkq2znz2S+x7bO2cmdkZWO+5qks2Wfx+9u57A8lP/FDH3eS+fSn3pJ102h7aJvG3M+b8DOR/baUb/x8E3fwC9aX7QOhsjayie/rBBvVbs9mchHPJZWhsEnRt9m5Z7T+LmDHDAPb0CLoj8q/mtRJHV0PtE0bR9ly9jOruI+/lPYX+ncp93E739IBIUcI6Ivs6yLobyjiOQrqxP7trMg2PD6k3UxuzllM1tJBvD0/yeTvrJQFJ9qdXIaRnCPrj57cNdwb4E4wOWRrY8CGOuGY2H2+BsP4p7Y7I5sdad8n9LGsI3L91tbqx4RQPybmWk8987Ii5xXPEbDjMclpTNop8wWiLOSxx/ag/1Sh0PfbTM4/Svb1y2Pct9IeKqR+DI3Doj4G6i7YnDoXHRmU6rpPXddA3LaKThlqjNsW2RfIPi/COE5F+PYI/RqwL539RmS/to9rFc6tkacRsn0pfLFgX4G2Gssi8phWjaG9a9DzLypdN/QP6jwjZCwnxwVt3FXJT3MOo/xfQ0T5GMrfhA9SyCCYk8nrI+m5XlsN8h7Bj2QzO2aVv9fNVTC7XHsi6AuN40GzoMOheY+iT0yOHSLGJkO9YITIR9PPbNlcDhEhR4v3WFGTkxiWr8FwrkiLVkZxzi8Mt4fT4SYmh2eYz5MW1Rj7LEO5We0XyTcH421ova34yZDc04IP0Nd3q2PjscPUpKtqskNobHZQSX5kDZIMUkTdGa37WMO3XQwm0ixotvITF4InMXF+PSU0KLOzkgl/U51qokPlHIeYI531MnfwK2GTwO2vmPPmA6O0HJYRVjZT7CBax6VGUPZiRful/QNGa3Q+g7oK7XpJPcEnlBlhsMzdGxEUeUQaSPCo5CM4GsWkF49ePwRQ13noz3ydmPIHzu/jvmZ93vm9nnQ1xsujKStUhuKEw1MsKRVQGay4TTkJyqOSgV5blOe4zQIHk3lgPoNHCJ52lmTyC+r23v7XrcwhsmOF9orbwk1cqcoR+pbp+lVhi4SOLqvazpzZiTXck9IgTq//hWOk7Twh/a+VeYg81O0zqoNg45HsTYtQ3hr1RJg0sSoGZ5bcsEFWwAaYzMI6ayNd1kErj2hkrNsGoW/V64QgHS5YGtm+UIZGDwXb3MCdFCpmrD9qNOe36AdD9Uh9vsh2L9plcJJQ5PJu2Y75hM/AbrVo9VawW608WPDdxsrQPYdZX6HXBxr/yAY3B18KysJQVrxOra4NJEU8wgBNkeBp0Z5TOIfs51nSlPNSJVdRHIynXx99Odhuoc6acw/WcvmyLhltZ4SUP8Z+3tDPGPptsQ66F29kDGxCL7fgvjrE5QTaIbWzSdgiIrRTs47vr4BsjWwjlBAfZ1YndzcLf8sIibHs21RxVLTHnEPqOrVWvsy5DvH20s59zPz1O18EZTky2M5dbupTyyYSggwUdRYutoXXf56QdgtxQ84X+USb9W9FJbMFqU0jF7n3A31jIGdD/dEpXwsbLDw1azt3QZmfsoF74Usl3Bn+oFh9vhbD+Ke2OzM+WusPR77Yrshv1AhlafyYoGeqdWK/yLo8FjmNWTtV+QKh/4N9rWVEI2e1vWiQbT4kDov9Hai7cA62rPr9nMuvaOaGAmWJdQ3oiFV0y2A/hR5HbpuxLwiRpdB+xThORfj2CP2q0V1tvZ9ZU8ldliuulacRevYltDV4sdKonyOPaTVYHC/q+ReVrhv6B8359eKCcA5N3FXJT30OI3vVElE+hvI34YP0zsGjaZceIW01kffwPpOf3DxxiMXKXzK/pNANw3igVydhncWxg1Fs0pOJNm6E1MWErujlEBFyNCNdsTxW1NqeQfkhGMwVhaCVUTzzC8PtDD194VHli6EY+iwDuVnuF60cdeptyU+q6ivWzbIPUOq77ljQoO/HCFOvF7D9tfbFP4O4LT++ZPOji7/lXbp9O2V2Pvg7+GUyckuw+HwB7M58bP7IjVNfA2nzHJipeD4k4vn1iFjmTfS1DyJ5zozwj6AkZmPjm0BZDn/7/C5UeVowlOhA5txpxl9stz2CIW958HGR2U5s80rbwjE5IeS8A7el26CNzmemrn9jw6PSnwF8vvC3ok+ywTZ8EWWb5EfSpMckJIa/asfA43MwY6q0wiKJiwrw5v1Psej5HLyx8zBqLg3jMdbnadMNpRselQynIHE64NdtYB86zwPpKTF8CKq/G2fRg+IlomyEX+papmN++HUeY0hYmIPVd4/jDH9X/a1mXPDaseIFE+V/241GOJE2S1oOQdRluAvEx9+k3/ztLcA9ReM1/f/YtBT19pgwqsNN9F71I+25ORYf+WK9OUn6k2dSEmY+x9T2Ln/OVCxel4rG0xeFx6y6mv8CuLKRoac+BrpsTHQyFtG0QUC9zvbXjwBCm3Qw5Us079qdOg0z2H8jvB4a6o8BsfhBHSLbvWiXXSU5ARnzv1cPy3Y8KGzPejqG90t93Y5T+AUyUqVlARvTTSf81/p0HiU36yvUfTDczfzjPCfSlf5xUgoy5gGNfUyXzMJU42fSnzy2GanIZHIYMvlF0MR01vf1LWhj8htorodvsROrHTmoPs8/hnQTbRd7kDdPFIbg0+HGuqeDsk9ZsANNbBuvS0bb9RhbP2/Cz5j026H5hoKINnETXf82iMwX7Oo6zE5n/eZFr/J7FP9Z+l+Jct1kG9MqWbZGtmGMaZ1k/lJJ8t/bgc7B4ONzAUR7zExV22PGBg9q1/I6ZUfezmycKZgHx6oi7HbXo5f57cx5KabjQNfpI+jKyUGWXOdUJ/Ied+NEg4WPIU1KxfMrB3HmSj8TVgcufJ6D51c7seSWB01sFTqbUTPXiQymR4Zythj39Rju64F/nh0zlD57eg72/fN2LOY7PFafr8Vi/DPy0a31wOJnVQ4Utjl2ZN3tR2+oAxXR+DEB1TobElh7ZDse/ZzGvJ2qfEFCIh6L0Ne2e92o3iY/wsl+q45IW2JF8ZGrf96KDNby5+c7kBiSW8SCzoe0PskRfBBP5LYZ+QIRy+M4kwQ/pOXBe8xdPcrieaZc8ajQ+36BL1BXo342M6YNEM140RDz/iHWsZxpe1VgLJ9I8jfrg/TOYR0zeU/isu344O8qse0j4IM/5mNmXOyS2YqVsYOp2GQhbuhgOoeIkKONzlhRg+m5AIbB/JQh8cwvYsnzVPliKKZiUyy5dRRY8pMqovQBSn0X7MWOmX8rbJlQxPwhra6qNXj13DRsOd6M/mvd7OfGemmbwOM5+OxyO7xHirDwiX58/ttlsP/6MLqMlCwCkctkSSjriASmpOGxIaPQg54OD/7kSsXt5nLkssHqtgb9d30o8Z3egWVlN7Hg479IZXvxR6e0MQqMzxd9XcNyqwHv5H2Kofl74e3hy+xGy0fBQm02ZhVTpygM1CL8F/dOtqOnZi9eedqHy+WrYF+6A2fld+iMAY/yASta7rNABjZQuqBJUtlvC0v6QrA5sGQ1UP1FB3zNXpx1urDkCWmbIY/A9lfSnzqM3ANmbnGH1EOZMI82ZuqQwJLLeOC/PyL8P5PJMMPbgAs3etBYO4zV/+DQ10cDXTbDeMk4Pr4ksv5EJs6+xcDu/SypXv7JuVA5bwwale2RqL1OFNjwM5ZgxuQrxpOUecib68HlzkE0nb+JPGcqEl7IxvLPvWi71Y0uL0sQ7ZI8+URkdiFqtbJv2YsVvJIbbddjHPx8RD9j1W/rMgrx1gRmbGOikbyyHB1XG3Dsd04kX6vHuqXzwH9x3VRqd5/362yAVl8YmCxMSXWh7DvgbMNFnUngcNiQuTAfXRfZgLHzImoWZiMzIRVZv7qDk82D6O1uwWOL0zFT2juinOOiP5GJd/5oOf5NgNxsIuQ0lmH6un/1WpxJ5H2kKOf+42ukjdZJ+6/KkafiI1dz87Fl9TAqDineIxgXFGXIP/krWnFuW8wkJaoG/8EPaaVidWE+hg4exlmTFyYtY0YWFsa0cbf3aGCyiyWrsmyvozDmHzVM5T3/Af8PfOV9GPKNUyPGIDbFg7EcK5rBcH7KkDjmFya2h4XpKa95P9Ob8I+T/457v4ynH7D9DI+xKGIby+GkSWKcdOWvKPcj65V1yHxcDuBKiQ6icX85Tl0DElPsWJ6/HYfOlGNF616cVH54yBJGZU5B0t8noetKd9ikxccGVGVVXgxPTkLaQhe27HWj9l0bak6Id9ZFovdqPfwv5rPBrvzVthHeJ0eN0fliqWtY+ttx6u4v8FoeG6RLRjyikGHC381AcmcLuqNKbO6graYcVd6bsD3BnJOrEPuOH8d7kz04cSnCwPX/Sf/HzAzMXQg0XuUvQ0WCtZcPuHr87RxkoQOdNx7RJKksedG9yskc8z+sAtxuvH+mHotXLjI3eJiVjuX4C9oUH8NRMw0zn7ah99/64NfUI5AwjzpGdZiGtP+ehKZLHRYHCRr5+/uYzTI/MUW6v+WJRchzenGm9DBqUIAV4WKSgS4bM34yjtmXGOpPZKLyLWFla2T3SYJdtnez7Vo5C1crZ+DZHOBsa5SN4dGVh5/plRe22TN0bDIJM9PN+Ao1iXPSkdzsRbvSP97vR1szkDVDcdeskR6yvhYvMYj4+3rQxOr0mOm7UlKQsTgRTXVHcKbPhazZbFXCPCyc78GFg82ocTqQIY1eE2ekwnatHb1+hewl+fM+zWh7KGPt5034Gct+O5TINhGmDkxuTXBi5uPSsmWMbMOYaHVy4KsOYG6Szh0OYp2avlbbxkBDOcoaBoWPZewvr0cX7z+Z4a7eWQkvG1i1ldaxdcb4mz2ouJWPz7yawUfNVqSdduPkdWlHE9jsDiz3dqCq7jiyFs4T2pL2ggvD592oudiPxc/Jd0wYyDkO+iPYUXMP+pRi9nWgutyNNqY08c4frcU/I5vV98H+7g40Tk7BTFNJjRFjEW9HwU6Hu9Ha70Teaw4ky9WM5Mumz0Aa06mB7zV3bUt5zoxp4YTJcsnXmA3Ul6M6hlBoCcO2GfgCy4jn67uhzTIGBdkk/9fEsJOEthfW4L3Z9SirGSXhGMrC2pg2KnvX5AWxkPj3LC6YGcuF9RlW7TXWMf9Y+KAgZvKeXvd2FIO146MkVG2rFJ4sMk0iyzG1T8FEQxxikxGmc4iwjNZYMVqM5orMEbf8wnB7BAb60DQ5lb8eFYrV2BTCaPRLLH4gDj7g8RSkM7vr+lpankDEOOk6BclP2NB4sBKN1+/Ad6MHNdtLhNu3h4b4ZCMRCfcasLm4HE389lt3MMCMug12JE8TTmDMZP5LlS3ounoTvrv8CqMymUGs2ICs0zuwmWUtw6zM4U42kDoYfKYjYboNXRW78AcWuPnt/DmaWvpZIioOPnytbpS59RUwMckOuCtR3cnqc2sQTeVFKGZOqe9mdFOgRuczqqsZbI8yh3mlHV3seOFRhGlJyMBxVEjyGbhUjrd2t/CFYog/INWFN50NeOddN7puSDIuP4xGfpshrH8e6UFZcSlqhDYx+fc043K/DcnT5cRDiWhg1UeiKUuPKchamY+h8q0oPj8olt/pRoVb2swzfQ6efbwFVYe8GOBler0FZR8flzYy+EdM1z+Cqt/vCraBneONBUU4G66b7cuwcWo9Tp3Oxosv6LVThwQnVuYPo+x3u0RdFvq/FNXSZp6M3O3IurILb5S3iHVl+zSWupB7wOQdRYyQ/reIUR3SstcgI4K96dOC4t/JfoE/Xwmqp67Bawtl2U3DkpXZaKyvB3KdSAuXWBjpsg5aecRDxtEQsy8xoT+RsOpbZj7NDPXEYam+LKHx8AN4aaOh3U/D4tfXwFbFElhPsLzqt53YfJof8IfaLd+Xu5V2q0UbG5g8XnvzEYU8+Druwu7TTnzwqt6sPSvz1TWAlTJ5mH/cstAb9I+83Cu2o+zuGmx8UQxskWUl0XwY+2VZ8F98LXHjsfU5yNQbyzD07DjtuV+wQYEbTS86JBthbcp2oqrqCNIWOoITzU+78MFCZnNvKWLx+VIsW3VAvPJstJ2hLn/s/byhn4nGb2swsom0FZuQdTFYByF2FH8K//oCrBAeMYsGI9sIRfi6+ZUetDFZCrpgQicFTpSj7FIwLhaXdjAbWBS4UyOIWCd/2XbsbxVlKfjWrQ1Mzkyrpidg5DTzVwqf2XSpncXBJEnnbqKx6jDO9ut5UD/aznvAvzImi+lKYPDB/+zZyLN34CSrox4h7eZJSMfzTg+q3Q4seE7SPf5VBX1HUHXFhQVzxVWGcjahP7rlKxHsyIPdO+vRK52/5qPt2N2TgGR2aLzzR2vxz8hmme94bQNsqtzJw3SkHlk78pERp8H9WOQ0cbfTqUlInuxFFfM3fJ15uWzbyT/CeRPDuiNVO/J2ONG4fUPA3nzX2cC9aBOqpxfi9UV6PlLiCRc25n+HioPqu139d4fF8yh/gsAi2ZqMH37tsfLxhm0z8AWWkeyQ6dm2gB3249RHhdh9LQfv5akfK1WThLyN+Rj4THO3q98X2jZhvGgRQ1lYG9NatXdx4uswqqzkI5GYnY31dsVYjre1g+q4a5SrWLPXWMf8MfigkLmCUEL8hlHe8x3z5SU+bPkgn+WnRXgv4QC2VXYE2m0YDyaxsSYTb5eV107pEYfcxlA+ZnOICIzOWDFajOeKQtCTUbzyC8PtjDB91Ps1i+kr05EmLauwHJtCiblfQuodix+IQx7CjwXXI+qx8WgS46SrDZlbPPjjvG5sznbAvqIEXc8xx+SUg4oNGRuP4Nj871Ccx7Y7HFhW6cPqmgNY/YR4BkOY8F5/146TbzrhOMi/NNOoTMZ0F/bVbAIO5sPhcCKnog8z5zvEbTzTc/BZzQY8+ucNcLI62ZdswIWUcpx7T3yE2f+NF/vP9+kmgMmvfIpjrwMVv3bCviAfB/+qEHvWAgPfD+vub4Th+Qzqaoa0FVuR5/8UyxxbcfYHtuKJfHx2tCAgn9zqn2HLrjUswAxjWCh0GvI+cWMLKpHrdMCRV47e2U5k8ptMkLiyHHUbE1Dz22yhz52/9WLmJ3X44AW9Gk/B4i3lyPuhHMuEslh/OtdafARAjc25FXUfzUPXu4tY+b/Aq5/58eyL0kaBVKz/31uR1FCI+Xz9Nrjx6KssSZe2Cnq7heltrh81v2H9wvbJ/rADz3+6Q3wvmx6TUpGVywL6i2wgafpONRtzInXYJ+vykiKcScrH+oATZzzuYv1fgoyerVjE9z/TkaOTCvGn9anR979VjOqQko9DKnu7iSWvuYRDw+PEllcTcWLrL5h8F2Hz1XnYd6RI9d5W/lHpxXySPT9CEm6oy6GEyCMOMo6G2H2JCf2JhEXfkrBoEz5b6UPZy3x9X0bxVSfWs/rKGNm97dkiHDvqwsiJNayvWHnMd7c6PsWHi8QobHNux7lPgnb7VkMSXlO8My4EndiQsfE4al/zoUKIN9lYV2vD+hrmX8Lc3cTX6Z+UZX6eiAUqX6HHNCzfX4fPUrxYt4Qvx4Xia/NxqJrpr3TF2khWAvNceP5WJV7lz5G9FV3zSvFPW+xhdU7XjufOQx47Iu+FoJwSnnMyX5aKFfOYP5KZxOzoEw/2pPdg8wq+zsxWaoAtezcgjS/QaDtDW/6Y+3lDPxOF39ZiZBNs+6GT5Zh5SdrO2tH7PypxLEK/mcHINrQkLFyL99Lr8IbTiYqr/BpjnRRw5WBWQxGyF7A++HUlsNGNfSv1yxDqVDkfnb9fKshyWUk/FlQewRb+lRU2O7ZUH8aC6yVMH8TyKnz5qK3KRzJ/sL8Plw9+igt9Ord13WrAUZb95i3Uk1kSG9za0XbwX9ClM4gNbTfPNGTwMcLOchR5Qo3F48wX2dlXOlUxJbKcjfVHv3wFkh2tt7nxKpMxrz81trWokx6vjHf+aDX+GfpoeyFqa/Jxu9IlbffA9roHn7kUviRWxiKnibed2hx4j9U58+pWIWfM/rAHGUVbmZ/tw5D+dREku5isd9nRWyLK0p63Ha2P78C5f2Y+NeLAkcX1VwqQrLnbtUk+j+K3uZ4VHsnWArSgWPDrOsebaFtEXxAFATuslf3sGhz9gfVZQykWG+TPthdc2Dhdc7drdUFI2+wVfE5gEUNZWBvTWrb31DX4x6IknHlbzEd+407Aa4UxvI9gUgpW7z+MjfJYbkURLjymHssZ5iqW7NWafPSI2geF5IOhhPiNSHnPXw2ipngH+tbuAGuqKMsPCoH921El3a1nGA9Y3pO5MBtN51qifzJVIA65jaF8TOYQkRiVsWK0mJgr0qIro3jlF8bb9csfRFNdP1azNuh62yhiUwix9ovuWCx6PxB7HsLbyyHV2PhE4nyskLaOJ/+J/5qW9PfDBZ+wKxKb3moXFl1ai5ZK4/dGde1fhNwfS9FTpHd31E8EjfzQ78ayJV68fqkSy806+QlEW+kc5MKN/lHr0zs4VejA+SUt2PdihLsYCPN0HsD8/wX84wWWAEmrCCLuqHydH4070/HGVDd6CkfP/w97CuA4nY2WKpdhPCKIeDD6MZAgCIKY0NzwYJ2zAUu8lciL+ukMwjT8OzeXFgIfn8ObZm+IIAgJf2spFu1Jwv85Hq+PuP1E0M5h+b0ofroQCTXt4/oe5Jg/pDUh6T+MZUt3qG7D313Wj+Ur5hsPcP09aLpix57XfsoDk35UvZyjePSnB9Wle9Gb40IWzRCE4PfdRG99OSou5uOVwOPxRNTc9wuP4u2vqETi60tpwpUYNXznd8D+a+WjZXux252CjYtoYoogCIIgCIKIkkmpePNPLpz8XSnawrz2gCB0uduBsg/7mf7QhKs17qCx2IFc1WsuSlGdUoAlT0u7jBMP56Rryloc2pGEC78TH4Vx/rYeyTs82GPmDkRbKtYfLsXyn/QVwBSsP7ADyee3Ipu/BX7JBpycvh11u7KRIO1ByNzEybedWFY6iLx/2hr2fYyEBTrKYc/egAvTS/GnV+L4WCNBaEiYX4RjuXdQtlp8ZGtZ6TBWHD2CNyO81YAgCIIgCIIgDEndgLqPH0VNfYzvdiV+UnSdcOOxP4R/PRoRjinIKjqCvFvlyOVf8+RwYfeNZThWbfRqn9Hn4X29AEEQBEEQBEEQBEEQBEEQxDjwcN7pShAEQRAEQRAEQRAEQRAEMU7QpCtBEARBEARBEARBEARBEEQcoUlXgiAIgiAIgiAIgiAIgiCIOEKTrgRBEARBEARBEARBEARBEHGEJl0JgiAIgiAIgiAIgiAIgiDiCE26EgRBEARBEARBEARBEARBxJEJPenq6ziAbe5+aYkgHiz8nYexzpmOlNkFqLkhrSSI0cDXgN3bGzBwX1omCIKwSmspi1elaJMWY+cmatbPwTrPTWmZIAiCIAiCIH5aTNhJV39HOXK33UbeyhRpjXnaSucgpbRDWtJhuAXV7g74pMXIdGD37DnY3SotxgNL5Y8uw54CpKz3YFhaHg+M6zAKfTDa+Fuw+9efAq+70dKyFysSpfXEhMTQZ1jB14DNs9NRpjldW2l6qJ5/58Grs9ei5jtpOQIR65iQjdXpHvyWFeqXVhkiTLCwc4b9iZMvcZXNg8AND9ax9of6G3ECKSALHfmlOvOxmfftgclv0XdN1EmnieD/R4X7N9HkdqPtlrQ8TkS0nQmUB5jHj956N872m/YyRLwYD50WfCFdNA7yAOaiBEEQBEGMO4aTrnEflJlJ4u73oGrbv2DFx0XImCytiyO+jnrsLvWgaZxGO+NXPiWMY0ZPM2ruuvBaXioSp06BbZK0nhh/RnsgmZCK5+f50XZtUFrB04Om037A24MuxXyF799b0DTZjpmPSytiIHllEfKurMVur8kJEXshOlpapJ8HH8wDMnd4FOsKkSHtSoTDgQ9OyvJqwbk/zYevNB+5VT3SdmIsCMlTfmzHydK9qLlyR1ox8RjvPMQUIb7yOzRW7ELZeRNXieLCeOcsEyhnGgOd/sldYJtImMhLxmU8RhAEQRBEzEzIO119pytRlrAGy+dKK+JMQnYJejpKsDhBWjHGjHf5xBhw3w8/HkGCTVomfkIkIe2FJDR19wfvOu1vx5nvHMic58HlTmkdo/daA7AyHWnSckxMSkHeRheqKzwYkFZFZJINCVOnSL9E2B4BbJMTFetIeY2xwRaQ1xQkP7sBe3Y40fvZuTg+ok1YJiEbf+xoxx+zp0grJh4PZh6QgvVnunFuvfUnkIgYeQB0miAIgiAIgggl4qQrf4Xf8a4X8O6AQ3m1//4gGksL4LDPQYrdidydHvTeFTcNeAqQat+FRmkZd1uwe8EcrKsZFK+iO3egEV5sc4a7on4HTecbkJnrRLK0prfahZS3G4KP4QmP7y7CfuXkhXaf+8Noq1LUsdSLYfmRT533lg03H8AbSxzSI6IF2N+seRz0hw5UFTiRKmzPx25vhMdFmXxO7cyHne2b4shHsceLqvUK+SnK79q/SF1vhtCWwvrAOl+HG5vzxLrZlxSq63b/DmtnIRY5WFmz0+FYtQs110LvdBOukM/ORxX7u2oV21d1tZx/ZHAXcoVzOLBoqzvQnwIR+luP4UtBWYrtV0w+MXhZi+86ZfUtOIALg5r63u1HjUp+7Sr5iFf7D+NU1Vphn4Bcr3uxW9FH2nIH+DYK5erI0cf6980csUwTbVSWleLIwRv7WwL6JdRv1RH21xHk8tvD3Tni6xHaKchVkkVT2FsYpDtuahqwbYXiMXWjvrlej+JV+vUUiNAO3bt8NHdGCDb9kQdnt7vYOYLrjewpok5rUbaR18831XIS69AQtHe2j8reFUT0QZF8Bo+BfimZmeoEPm9Hl7Q8/O9edOXk4/UXEnH2inwX5CB6W/3IenoO5OlNQ7kwWTTtD9ZxnaY/bQ4nVnd40BjvV2HHUTaGtnajBfvl7XxfqrbLdqAsrwBVnX7hHcqyztmXFKFa6Qd5P+kuCvo4jQ7FE9vk2GbR/Nc8CpvVyJK1o8sT9GNa2xJ9oxtNAX/O/MrbGn8egk88pySbkP6wILuAb1bsn7uTf9fwIM7Kvk5PfyL5McnnVF9ivkyyjVSn3L+iPoTmKTq+y4yvawjGeV722jgf2T5ZHNXIMeKj4Ko8xFz5QaKzg9A7GcO/c1XfV2r2l/qmql5RZp5+DhLAKGZJ6OYs/W4sm12Es4GE4A7Ovj0H8/cr7izX7mPkm8Js1y2f399kzhWC3l2F2lw0om9U67QpW+fPp9CP/c317Bw6dzYKdZuDXKGx+exc6n38fUHbi9W3RszDTPm3OPsXLWb612A8oPQTITqnsJlX+TKYXUXMSwTEvh/78RhBEARBEHGBM2CodgP35G9quSFpmeN83Jm37Fz2hxe5b3/wcbd/6ONOblvKPfXWOe62sH2YO7nBzjn3tHMjbKmzcqlw/Lf3hI0c930tt3bWBu7E99KylnvN3B9mpXJ/uCIt83RXcs5ZJdwF/oSMkYsl3JNsH2dlt7iClXniN6lcQZ1PWGrdk8q2L+Xeqe3mhlgdh64eYmXaufe/lE5wZQ/bvodrFZe4Ebac/cwq7uMvB1h7fNy3X5Rw2ez4j9v5/duF+jy5eDt34uow2z7MdR5iMnmmhLssnU7NCHeh2M72Z/X9hpfPAHd53yruKWWblOX3HeNyZm3lzojCY/RxR19K5Qr/VWwL3/bsZzZwR4WyWVuuVHKuZ5ZyFVLTvz22SlEWq9vRDdxTYesmtkUpW6F/mWxc+5rF/vzmHPd+VirnOjYg7WHU32pGvixh5Yv1HRkZYbI/xq19RiF71l4XK2/tUblvarl3FjP5BnTMWH5ynXN213KXv2zmvv6BrfzhHFfI5PL+F2If3v6qjp3XHpCjsl7BPl7FHf2G3zrAHf1larCN33dzR5kOP/Vhs6DDIXxfJ7RJbsPtby5y77M2ZEs6L6DRsVAUZd4e4UZ+HOAufMhs5ZfHuG+lPdRIevjzTdzBL5q5y+0DrCyDvhlp5t7XqWegbw3bEaovWvsVbe3nXMHBi6wv2rlv2YGR7YlhoNNqRH/y1IZjXOf3fBslOS1msv1R3CNQh2Nqe3/nnGRDWnR8kKHPMNCvEIQy1nAnBvkFXqdTubW1w4JePPXSMe5rYTWT96zsYLsN5BJaR962lLbKM8CdWM3K+jMryxKiDxXqqCG+sjGwNaXO/sjsYkhri7I/DvoHQR/YMc/8ah93Wblu8SFRzgw+DgV1aJhrrWQ+ZXEl1ynHJSVC32n0XkCU0ZPMPgQEG1fr0cigZEP71DakJ1ddBlnZTJbqPmbykPpT6e95/6r2Y0rfKMlX8ufZB/vEHTSE+n+x/krfZ0V28vmC/l3U0aeeeTmkTUH7NPBjUn88tXxPoM/PFGer+lcoV5WnaHyXSV/H+1fR/uQ4vz0Ymw3sk89LnmJ2ItvBt1/uY9sV+qJFFSNMlK8iOjsQbFlVH43da+NWiK/U7C/3jawfzJ5PsL4L5kdav2ItnwjpR66bq2D6/P5FSTsFH8ralMX0UVwj6sKmOvF8Rr7J0Hdpy7eacykIkSVDJW+jPERdF0Nbv8dySXa+kL7R1kFBiH7I/avQKcH2FHmKFf8QOQ8z79/i6l80RO5f2e7CjwdG2vcJ+Y6sUwEfXivnXUF/doLlr5e/kuqppx8aQv2cUdtiHI8RBEEQBBEXrE+6aiZABdhAMZ8F7pPyTsIAhw1Gag9xLj5hUo73jIK83vZ7LNF5Rp6cECcw3q+o5HJeUk5eBI8REsfii4FBo5z4ByZpVYkun5SkcjmH1IPS1sqXOdchfn8xyQok+TxCHRWTJUpusySe33ZVWhbQJO46iXYgyf+Gn5SU5csnVKxuKgFy3OXdLGFjg3qe1n127sltiraODHCt/ERkhIGacgAh9K8sRwlBfnLSZqa/lYywxO+2cmf1oEuorzwgklDp2BDTHQP56dW5s5INBFR9zpLnE2u4JzfUCecd+jN/DBt8BgYCPu5rJqfO7/kj2rmPWeL+zhfBo0cG27nLTX26SblQlqYN3FeHuByl3moHrzqMsCR5RDkwiXiMjh4a9Y0gy5e5g1+Jm3huf8WSfDZY4A8xbkeovmjtU8/WItuTsU6rENq4iTvJT6zLsMHkwZcUOhVSB7EM3fPx6PgYI59hpF+hKCYHBP/1sugHlb6KDc6eYv19WdABE7bO13F3s/C3jGALigkHVoDgH8O2PSzayZEg8ZWNga3dGxEGqkq7UMcgSSebhAURoT8164SLWZIdCD5Zkr+McHHPzn2sJyb5fEq9FxDbrZ50Zcuq38+5/IpmbihQf7G+enLVI8SfM4bqtnI5xefE9v/I/Kt0sUFEbaNhfWMYPRX2X80G4dKyAGvXU/KFQIuy0zufoD+qdRodNfJjQn9o6iAcE4xBah3hUcvFrK9T+Veh7XI7jexT9HtOTVIgtN3CpGv48rVI7bNiB4zQ+mjsXhuDQnylZn9hu3xxSUK4cCK3RbO/1XxC0488rXvsAd8jXIAvruQqXpL1Q3GBi2Hkm4x9l075lnIuBSGyZGh0IHIeoq6Loa3rxU69OigI0Q9hf43tCXWO0j9EzMMYZvxbvP2Lhsj9K9ZHZaeCjOTxgOgntH5g5Ivt3JPPsH7m260nUx6DvuEJ8XNm2hbLeIwgCIIgiLhg+Z2uw1+1YwBurHt6jvDojPBbsANNbNuI/DjP9Bx8sCMJFe/uBXbswupYX/81KRXPrxzEmSv9gL8DFz7PwfOrnVhyy4Mm/jHazmbUzHUiY7q4u8DkhMAjuzIDt/UeARtE53kgM1VdyYwNHtSuTZWWANtfa882iNt6jyf1d+Ms7Jj5t9KyIUnIWmnHqYZm4RH6gUv16FqdjUyhuD6hbl0lOUFZs9+rh5kYpKZk5JZg8fkC2J352PyRG6e+BtLmOTDTyhOuf2PDo9KfAXw+8RE7M/2txPYIhrzlwdcLzHZim1fahpvovepH2nNzELZ633ajEU6kzZKWw6Gq8030tQ8C7gLhcS+5nvO3twD3REElLirAm/c/xaLnc/DGzsOouTSMx5ic0qbzgrYjb2c2zhTMg2NVEXa769GLVGTOS9Gp5010/dsgMl+wq7fNTkcmvOi18H0R271uVG+TXy/AfsIrCSKj1EPDvknMxsY3gbIc/pG/XajytGAo0YHMudOYbcSvHWpbM7InY51WMtzN2jjPifSp0gqeSSnImAc09ik+VKWqwxQkMl+gd76IhPUZxvoVSioyFgE17T3AtRacnboIGbxIbOl4PseLrmt+DFzrgD8nHWnCR9ZMymWSuoaJf8dO+t1txeOyNiRMjqLtRsRNNga2xtpnG76Isk3y6wWkRyq1/GfpfyXKdZNtSGT/CXYg+OQeFC8J1i8ldS2qmNT8ej7MEooPaf3zVmQwr/T8fAcSo/pwnugfM9NTVLJOzClFHZMZ3x7Y/OjiH62VHr+VH39WofHnj01jOhJWTxmPAD+T/hR4fAbzAT4xvkUjO+35eFTr1DpqLsYkwqb8qObUaZjB/tONQSGY93WqOJ+QiMcC7TSyT9HvZT2t9ntWCV9+GKzYwajB6qzUd9sMFuOZfxgO/eCT5XxCh7R5LgycbWd+w4+2ix4sd+Qja/EdFtNZMni/B5c/T8WC9GlsTyPfFI1fj1POpYuVPEQigq0Lsn58DmYoY2dUaGxPIDr/EDkPY5jxb6PiX4KY6d/w44E+tNYDi58Njh14bHPsyLrbj97Aaxf0ZGodU22L93iMIAiCIAjLWP+QFh/IZxeiNvCFa/m3FyuEUaGI/644aef7Qfw/NmzIXJiProsswei8iJqF2chMSEXWr+7gZPMgertb8NjidMyU9h5XbD9jA6UE2LQ5WQSSF7qQVd+AJt9NNJ3vQd5Ce2DQ7WeJ3PJPzmlkzX4b7eIOj+fgs8vt8B4pwsIn+vH5b5fB/uvDqi+kx4TJ/pbxnd6BZWU3seDjv6D/Wjf7efFHp7RRIoH/Yk9EHoHtr6Q/TTJyD5i5xa2pI/t9kiNOVky2Y8vJdvTU7MUrT/twuXwV7Et34Kz03rLkleXouNqAY79zIvlaPdYtnSd8gTxeYgyBDQ73r16LM4m8bHk5sd/xNdJGkxj2jQ0ZhR70dHjwJ1cqbjeXI9eRg20Noe/vG0sMdXoCYqhfOqTZc+Bv7UPjlXPAr5zSx7KmIOMFJ2qaW9DH/FZa+ozAgDoWuSgHuPzfVvxPrFiVTURbu9WAd/I+xdD8vfD2iHbR8pHGgVhF+KhdDvZd0NSP/bZEoXJp/1U5BaL4kNbcfGxZPYyKQ+p3dMeTrqo1ePXcNGw53iz5VzfWS9viC+sNXqfiLDtdLMaY8cKMfdoeGUPDexCJQ18L763u9KLtux5c8GTjxRemIM3pgq+uGQPXu9EkX+BiGPmmaPz6aOZc8cxDbDbmp5hfGlWNtOofDPKwUfFvVnVutHPqeGKybfEdjxEEQRAEYRXLk66JM1Jhu9aOXn/wi83CL4Eld/LdDv1ubCsBPqgqQdLh7ajosBDmE5MwU+dOO5vdgeXeDlTVHUfWwnnCREXaCy4Mn3ej5mI/Fj+nvrJsniTMXQg0fa3+8sxAQznKGhR30pnl8RSks/p3fS0tm2H6Iqx8sR6XT57DmSsuLHlOTpPFurV331R9IZuXNX8ln7+63ri/HKeuMbGl2LE8fzsOnSnHita9OKn4yFgsmOpvBb1X6+F/MR95c+Uv7I4A/yH9iWlI++9JaLrUEX5SYlY6luMvaFN8F8OYaZj5tA29/9YHv6aOCQm8LO+graYcVV4mxydSkeUqxL7jx/HeZA9OXLopfEhjf3k9uvjzPJuD1Tsr4WWDrrbSusCHkIKEaQOTUROcmPm4tGzEcDda+53Ie82BZLm7/5/0v0mM+sbX4UFZlRfDk5OQttCFLXvdqH3XhpoTFzFspR2W6mVkT0Y6rSZxTjqSm71oV36Q5n4/2pqBrBlJ0orRxki/9En4ezvSmhtw9JLaPyWmM/k2M937dxsy58i3nZiUCxvkKhn4qoP5nEeRELDFQQww28l8YoLKxsjW+ttx6u4v8FpeaqBNI5o2W+Zv5yALHei88UiwflId9XwYps9AGpP5wPeaO/X8fei6AsyYFm46hvXna1uRVl+Oakv+S0aUZVO3+kM/vlY3yty8nfJ3bPYj65V1yHxckm2ssuFh/pl56QD+vh7mAxLxKO/CrcouCqzGGOvEw2cb2ecMMHXG2daoOn5siYfOqGDn4yd/ZCQ7SU4M/cp+XPpaelqg7WA9quc7kckng7NZLB32orqW5Y4vOqQLXEa+KRq/HmvOpZGVEkt5iDEJfzcDyZ0t6I70MbdYseQfDPKwUfJv1nQu1v7V9wP+7g40Tk7BzLAz+dFhqm2xjMcIgiAIgogLhpOuwpeYr/Sg7cYd8W6qp134YGELit8qR9P1O/DduoOB86VYtuqAeCX4/iBqdu+Cb8sOrHa68N6WBOzfVok2Oc6z8yWgBV1Xb8InPI6jYdIcIWnpUj46zJPAEm2nB9VuBxY8JyXzqSzR7juCqisuLJgrrrLONCx+fQ38Zduxv5XViW/PpXK8tbWBZTRRZEgJTry2Hij73S40CvIZRFN5KaqlzfpMQVZ2NqpLdqEpP0d6tQCPWDdb1XYUe3owzOrmu9GD6red2HyaT1ITkXCvAZuLFX3RzAYjsCOZf7ouBBseZQPMtn/vgc9nMvEy6m8NiUl2wF2J6k5elnzbi1DcDPTdFJ+rSsteg4zTO7C5WmzPcKcHZQcVjw8z+a3MH7YoP/6RsO3IurILb5S3YICXEzuusdSF3AP8XSJTkPxID8qKS1Ej1IuV29OMy/02JE9nujQ9ASOnWT0VxzZdagfsSbp3u6St2ISsi8E2+K63sHN/Cv/6AqxQvuIiElOTkDzZiyrWdr5MXg7bdvKvF7iJYbO3yRn0TcJ0G7oqduEPNUHdaWrpZwOeJPGihWE7xAFE9RE3upj988fXlB9GI78pLEb2ZKTTGlJd2LLQi3felerA903FdpTdXYONL+oquTFGPkiHyPoVhhQ2IGV93HjeheeV/iklHUtuNeBsZzaeDbxGw6RcDpdgm7R9uNON4tIOZG10SZMMDH8/uppTseC/ybK5if9/e/cf0uadxwH8PToux6CWg+4oVCl4ZeBJIXODR2/jUUfjsk1raSSDbBXdRdK1oi25hM0q0kbKZruu8dyZYrDSnCkNy7aif5wKnQjdJlzXQpcVRhXKVhhadszBcfnj4L7P88QfSZ765LGpdcf7BYLkSZ7nyfd5vp/v5/k+z/ebqfAFjM/lWN/XwVTZGNW17YUowyX0p85J9dw5NaMEEMyrK1gHZZoN928QPt6zUv9F2b1d7ce47q9sW+HskjHV6cEH135Q37949ybC/jZEdrSjpSa7M2nZLgdaXffQP5j+tGvy3wvaelb/6RwStSw/60X32Jz6HiUunDp+GomnlDor4tguC6YGQ1psVOpjZ0Adfjs/nz2UO2df9eDY0vFQfsk9EMXv3S5UKUHCdNmtg8k2Rk9WnpLh4WO2Uf0Ubfh+F+aDPnRf1c4Z5dw9FdU+vVns3iMC+uULqfb5PhJxpRMstVBPTrFyBuH++HJ8nuoNIPK7JtRLOh2Xpo+1Xs6SGi0QjaJC1m7AK1NQVTXMIRyegfOFlRtcRrHJOHZlbt8o5/oB48Egxu8q/2fYIXLbnaKshrQ2Xz0Hz1xKLRRM5iGGRNt5RJ5caTtzaL8t2wpFPbqBhNi+Xj3KYio+GORhjyq+mTrnzObUmUQcaPTAsioOKDG8u3cMVV0ulK11YyGHuvbor8eSSHwWROT6Q5Q3ERERZTHsdC14qRkdz47ibVlG/y3xwpZCOM/G8f6zt3G0XoJVktEQA7ynPSgVOfb38R68M9uEEwe1xHe3qwtenMc74dSd3wIZLe9aceWIDGnwpvZamq2oeMmGLydmkJ6zbUdZpVinVUbF0kWSSLQrXhEb3S+jTCe/z5XlOT9GQpX45vhr4vtIqAvMoTo0DK91PSu1oMw7hHPl3+KoTZSP3Y/LT1eiPrX0QQrkWuxDIVpfTR+Tpe7bRQf+c7kJktg3a30A16U+nKxRMkCxrdZhjFTeQ7dTORZi30OLOBg7j4O7tM+nK4Gzw4Fk0AGrfzKjfB/A4HhnKnq9DyMtQP+bMqzVLgw+2Y73m5Wnxha0i5hiF4ZibcCgS3wfGbX992FvdKif1VhEcjqaVn7/KHTBbdSpvtOBgVgAZbd9qFHKSWz74pZ2fOguEWsUqfT+IEZbCxA7bFPLST48jd1nR3HiBbHUYoU3cgHVdwOoUz4rOdC/6MLHYReKtLWn21GLoStB7L7mgay83xnAnRdDGPGuTAthyCKhQ+xvxS0fKsU6bCdvo8zvQxVmMa/T96jL6NiI/RyIebDt09R+2j34vDiIiQ5J20/D77EVL3uDcP4URJ0sQRLLE3Kz4XA/o/q09jmdaTv2fTSKgeJpvGVXvqMD3d9VYijiR5nOk7E5MYxBOgzOL31/UJ+OQ62UEZ9Scatcwh/VHgNNTuXS3Az7bBC11eJ4vBkCWqM4t39lefKf04hZHahaeoA2OYsvBvvw+ezy4+b5Z6ZsjOraLhcGLh5ajg8Nkd/C29ME3FvAQtYFcq6UmCziZEMSsT+LuCS2azt5E3/q68LLD+jNKHKIeNFjxZ2AiJXKfjo7cX1nFyY+EXVrzSfyRPx6/RCKMp52/XJpPav+jo7pVHS1LJthGdHOAflwHJaWOAbUY2xBhTeO95Ziozg/Es/70SGv3NRaF7kNjU/HcUypXzYfEuW9+PtyDDBfdqaZbGP0ZOUpmfIQs43qp0XuxMTZciTerRHfYS+OTRaicdW88JtBQU2bOJcW8cEBpX0+gO5bMtyifX6gnGKlBKe0iP6mveJ71+DorXKcGxbxWa9gTR9r/ZxFGS1QCiuqn1+JfaXle8WxdIjXVq3IKDYZxq7M7RvkXP+9h+sfTWNet8OyBO6/+lA42a62+bInim1vtIk2P8VsHmJouyjrqMi/Q2hQ2+8g7jwj8ufUUj2l9T44k31i+z6M/5R6cU3m4sOaeZhY1yOJb6bOObM5dTaLtR0fx1z4OaTF/OUY7jAYfZJDXXv012MLSHwyjMiNhyhvIiIiyvKE8mtaqf83D2W+y9fagTMTOLLuJ1gfIyXhXn1hnpxG9552FMRu5G8ePCKiNPcRc9uQaPwKJ+Ssq0kiovz6MY635EnYp0Nw5jrK4//ZXBR1B+bQMdO5asTSY5SZiyr7Z59Gy7UQ9uXrpgkRERERrcn8D2lthC0lOPKhA1f+0ouvcxz+u3n8gqluCQ1pw9V6ESk+BPue1FuIiPLs+3gnIs9cQAc7XImINlgSiatjKOxq2hwdrphD+EDt8nQ06nQYvadxp9aBKna4EhEREW2YzdnpqijxYPTMNsTG1vFjVo/VVlT5h+H8VxAN1doQsVM/1mEkYjQslYhonRYnEbnhwN/MTHFBRER5YkGpO2o8jHzDFMN9vgtFV32wKdMV2D24sqMToz02bR5cIiIiItoQm3N6ASIiIiIiIiIiIqJfqc37pCsRERERERERERHRrxA7XYmIiIiIiIiIiIjyiJ2uRERERERERERERHnETlciIiIiIiIiIiKiPGKnKxEREREREREREVEesdOViIiIiIiIiIiIKI/Y6UpERERERERERESUN8D/AEP214+OqEnyAAAAAElFTkSuQmCC;" vertex="1" parent="1">
          <mxGeometry x="-830" y="-1090" width="854.98" height="170" as="geometry" />
        </mxCell>
        <mxCell id="DwLo5q6sceBoBFdq7gC3-2" value="User" style="rounded=0;whiteSpace=wrap;html=1;" vertex="1" parent="1">
          <mxGeometry x="-430" y="-845" width="120" height="60" as="geometry" />
        </mxCell>
        <mxCell id="DwLo5q6sceBoBFdq7gC3-4" value="&lt;u&gt;userid&lt;/u&gt;" style="ellipse;whiteSpace=wrap;html=1;" vertex="1" parent="1">
          <mxGeometry x="-410" y="-910" width="70" height="50" as="geometry" />
        </mxCell>
        <mxCell id="DwLo5q6sceBoBFdq7gC3-5" value="name" style="ellipse;whiteSpace=wrap;html=1;" vertex="1" parent="1">
          <mxGeometry x="-500" y="-900" width="75" height="50" as="geometry" />
        </mxCell>
        <mxCell id="DwLo5q6sceBoBFdq7gC3-6" value="location" style="ellipse;whiteSpace=wrap;html=1;" vertex="1" parent="1">
          <mxGeometry x="-520" y="-840" width="75" height="50" as="geometry" />
        </mxCell>
        <mxCell id="DwLo5q6sceBoBFdq7gC3-8" value="timezone" style="ellipse;whiteSpace=wrap;html=1;" vertex="1" parent="1">
          <mxGeometry x="-280" y="-840" width="75" height="50" as="geometry" />
        </mxCell>
        <mxCell id="DwLo5q6sceBoBFdq7gC3-9" value="email" style="ellipse;whiteSpace=wrap;html=1;" vertex="1" parent="1">
          <mxGeometry x="-330" y="-900" width="75" height="50" as="geometry" />
        </mxCell>
        <mxCell id="DwLo5q6sceBoBFdq7gC3-10" value="isa" style="triangle;whiteSpace=wrap;html=1;rotation=-90;" vertex="1" parent="1">
          <mxGeometry x="-400" y="-760" width="60" height="80" as="geometry" />
        </mxCell>
      </root>
    </mxGraphModel>
  </diagram>
</mxfile>
